<?xml version="1.0" encoding="UTF-8"?>
<svg xmlns="http://www.w3.org/2000/svg" version="1.1" viewBox="0 0 500 500">
  <!-- Generator: Adobe Illustrator 29.0.1, SVG Export Plug-In . SVG Version: 2.1.0 Build 192)  -->
  <defs>
    <style>
      .st0 {
        stroke-dasharray: 5.67 5.67;
      }

      .st0, .st1, .st2, .st3, .st4, .st5 {
        fill: none;
        stroke: #000;
        stroke-miterlimit: 10;
      }

      .st1 {
        stroke-dasharray: 5.97 5.97;
      }

      .st2 {
        stroke-dasharray: 5.94 5.94;
      }

      .st3 {
        stroke-dasharray: 5.7 5.7;
      }

      .st6 {
        fill: #f9a459;
      }

      .st7 {
        fill: #ccc;
      }

      .st8 {
        fill: #a69bee;
      }

      .st9 {
        fill: #bbd6d8;
      }

      .st10 {
        font-family: MyriadPro-Semibold, 'Myriad Pro';
        font-size: 12px;
        font-weight: 600;
      }

      .st5 {
        stroke-dasharray: 6.44 6.44;
      }

      .st11 {
        fill: #6bceee;
      }

      .st12 {
        fill: #63bc46;
      }
    </style>
  </defs>
  <g id="Europe">
    <g>
      <path class="st7" d="M292.59,170.74c1.73-.72,2.09-2.17,2.5-3.66.18.8.38,1.6.68,2.38.45,1.17,1.92,1.26,1.49,2.97-.2.77-.43,1.78-.54,2.79.62.38,1.14.45,1.51-.84.71-2.49,3.69-3.59,3.52-6.5-.12-1.93.15-3.11,1.67-4.34,2.16-1.75,5.67-2.63,5.5-6.08-.1-2.1-.99-4.07-1.09-6.16-.07-1.48.14-3.27,1.29-4.36,1.63-1.55.85-3.09-.8-4.17-.44-.29-1.15-.63-1.44-1.11-.91-1.52.05-4,.45-5.56.75-2.93,1.63-5.81,2.1-8.8.48-3.01-.38-10.72,3.56-12.02,2.09-.68,4.79.74,6.62-.67,3.29-2.53-.28-4.9-.11-7.65.1-1.56,1.31-3.06,2.29-4.18.8-.92,2.21-2.1,2.51-3.29.32-1.27.39-2.61.44-3.91.09-2.01.25-3.43,1.84-4.8,1.23-1.06,2.53-2.05,3.78-3.08.92-.76,3.17-1.96,3.66-3.05.72-1.6.06-3.8.64-5.55.41-1.24.92-2.44,1.68-3.5,1.69-2.35,3.93-4,5.86-6.1.54-.58,1.79-3.59,3.1-2.97.87.41.22-.99.39-1.62.11-.4.55-.78.94-.88.56-.15.98.21,1.31.6,1,1.16,2.41,2.38,3.28.32.81-1.92.56-4,1.23-5.93.38-1.09,1.01-1.85,2.15-1.15.07.04.13.1.2.15.08-1.99.31-4.7,1.5-4.93,1.92-.37,3.07,3.15,3.93,4.32,1.31,1.78,3.11,2.57,4.54,4.12,2.44,2.65,3.78-.57,5.34-1.66,1.17-.82,2.55-.88,3.51-.08.38-3.88.14-8.09,2.44-11.39.87-1.24,2.18-2.08,3.51-2.75,1.71-.86,2.28.4,4.09.45,1.22.03,1.82.5,2.03,1.74.43,2.47,1.15,4.45,3.75,5.3.19.06.37.12.56.17-.72-1.58,1.18-2.87.87-4.52,0-.01,0-.02,0-.03.08-.23.08-.46-.04-.66-.11-.19-.28-.41-.5-.48-1.1-.35-1.3-.9-1.6-1.99-.08-.29-.38-.58-.62-.74-.3-.21-.61-.4-.94-.56-1.5-.82,2.69-.68,1.93-.85,1.27.28,2.28.85,3.42-.03,1.75-1.34-.91-4.56-2.05-5.4-.68-.5-4.22,1.21-3.28-.49.42-.76-.45-.94-.61-1.54-.05-.2-.26-.36-.47-.36-.94.03-1.77.3-2.67.4.66-2.06-3.38-3.98-4.99-1.66-.3.43-.13,1.07,0,1.51.08.26,1.31,2.61,1.23,2.61-1.36-.02-1.79.85-2.08,1.88-.12-2.42-.38-5.88-1.96-4.66-1,.77-1.35,2.72-1.69,3.85-.7,2.34-1.03,4.61-2.5,6.65-.37.52-.5-2.28-.5-2.28.06-.97.32-1.9.6-2.82.44-1.46,1.25-2.78,2.03-4.08.58-.96,1.13-2.7-.34-3.04-.48-.11-.97.38-1.29.65-1.26,1.05-2.47,1.9-3.88,2.75-1.11.68-2.19,1.46-3.18,2.31-1.48,1.26-.67,3.99-3.33,4.1-2.15.09-3.5-.26-5.46.92-1.13.68-.91,1.83.12,2.39.06.44.11.88.17,1.31-.16-.13-.32-.26-.48-.38-.19-.11-.46-.16-.68-.16-2.03,0-3.03,2.5-5.37.39-.68-.61-2.58-1.83-3.28-.55-.35.63-.44,1.31-.58,2.02-.36,1.85-2.57,2.13-4.05,2.55-.7.2-1.07.48-1.38,1.14-.58,1.27-1.75,1.84-2.5,2.95-1.02,1.51,3.15,4.58.39,5.33-1.02.28-2.7.84-2.44,2.27.09.5.32.87.62,1.29.34.48-1.31,1.28-1.48,1.7-.15.36-.24.58-.08.95.52,1.16-.69,1.52-1.46,2.23.04-.4-.12-1.26-.25-1.47-.22-.38-.87-.75-1.32-.75-.4,0-.81.19-1.03.53-.73,1.11-.91,2.12-2.04,2.97-.67.51-.96,1.06-1.12,1.86-.28,1.42-.12,2.5-1.35,3.54-1.13.95-1.78,2.37-2.81,3.4-1.14,1.14-2.2,2.33-3.15,3.63-1.01,1.37-1.94,2.69-3.12,3.92-.32.34-.47.86-.41,1.31.23,1.71-1.03,2.88-1.6,4.32-.66,1.67-1.79,2.93-2.53,4.55-.61,1.33-.6,2.79-1.73,3.87-.91.87-2.16,1.49-3.16,2.28-1.22.97-2.25,2.2-3.29,3.36-1.28,1.43-2.79,2.65-4.14,4.02-.92.94-1.74,2.02-2.52,3.08-.8,1.08-1.11,3.74-2.06,4.43-1.57,1.16-3.91-.44-4.7,1.9-.63,1.84-4.72,4.16-6.61,3.42-.84-.33-3.74-1.39-4.19.21-.13.45-.08.84.13,1.27.18.36.37.71.56,1.06.39.75-.02.27-.44.21-1.4-.19-2.3.64-3.64,1.01-1.74.47-2.62.37-4.13,1.48-1.96,1.45-3.38,1.96-4.35,4.25-1.12,2.65-3.15,3.91-2.26,6.99.39,1.35-1.51,2.03-1.87,3.06-.44,1.26-.28,2.39-.03,3.68.2,1.06.41,1.61-.46,2.84-.25.35-.45.62-.45,1.08,0,1.17,1.39,1.54,1.73,2.55.26.79.51,2.7,1.85,1.99.83-.45,1.44-1.18,2.07-1.88.34-.37.68-.72,1.04-1.06.93.09,1.1.39.52.89-.47.39-.97.72-1.52.99-.78.43-1.22,1.08-1.61,1.86-.93,1.86-1.93,2.31-3.83,3.16-.75.33-3.92,2.18-2.68,3.42,1.35,1.35,4,.27,5.53-.12,1.65-.42,1.42,1.5.55,2.34-.63.61-1.26,1.18-1.86,1.83-1.29,1.39-2.74,2.64-4.19,3.86-.21.18-.17.51,0,.69,1.05,1.11,1.39,2.68,2.36,3.89.94,1.18,1.99,2.1,3.26,2.91,2.67,1.73,5.95,2.34,9.07,2.52,2.87.17,5.37-1.4,7.37-3.3,1.85-1.76,4.27-3.08,5.13-5.56.66.31,1.36.68,2.1.47,1.23-.34.99-1.76,2.16-2.25Z"/>
      <path class="st7" d="M411.33,125.82c-1.85-1.25-2.7-3.41-4.49-4.65-1.92-1.32-3.32-2.54-1.84-5.27.39-.71.56-1.37.6-2.18.12-2.08-3.07-2.4-3.68-3.93-.4-1.01.41-3.05-1.11-3.51-.31-.11-.63-.19-.95-.25-.52-.12-.04-1.63.06-2.05.16-.69-.37-1.63-.57-2.27-.46-1.39-1.86-2.96-.92-4.54.39-.65,1.03-1.15,1.32-1.87.57-1.41-.04-2.45-.99-3.53-.68-.78-1.48-1.37-2.11-2.2-.9-1.17-1.29-2.8-1.83-4.16-1.25-3.09-2.22-5.3-1.19-8.67,1.06-3.48,2.33-6.85-1.66-8.61-.86-.38-1.23-1.25-2.01-1.72-1.44-.88-1.91-1.49-1.69-3.27.12-1-.02-1.67-.31-2.64-.56-1.85.12-2.93,1.52-4.07.69-.56,1.09-1.23,1.02-1.95-.72-.21-1.44-.44-2.12-.74-2.19-.99-3.1-2.79-3.5-5.1-.23-1.31-1.08-1.28-2.03-1.66-.52-.21-1.94-.83-2.33-.67-2.04.82-3.91,2.33-4.64,4.48-1.12,3.35-.94,6.92-1.42,10.38-.06.41-.72.48-.89.12-1.55-3.33-4.79,1.96-6.57,2.52-1.56.49-2.88-1.83-3.88-2.48-2-1.3-3.33-2.69-4.59-4.74-.43-.69-.84-1.82-1.46-2.35-.6.34-.9.84-.91,1.48-.17,1.16-.25,2.33-.35,3.5.25.44.49.9.76,1.26.86,1.17,1.82,1.89,2.46,3.18.83,1.68,2.79,1.87,4.2,2.81.98.64,2.34,1.28,3.16,2.12,1.63,1.68.45,4.67.45,6.78,0,3.34,2.04,5.76,1.72,9.18-.17,1.85-.44,3.99.51,5.68.73,1.3,1.55,2.62,2.04,4.03.57,1.63.6,2.94.47,4.64.1.06.2.12.3.19,1.7,1.09,3.3.89,4.12,3.25.58,1.66-.73,3.83-1.23,5.37-.55,1.68-.71,3.09-1.75,4.63-1.17,1.74-2.72,3.24-4.15,4.76-4.85,5.17-8.54,10.85-11.98,17.02-.6,1.08-1.65,2.47-1.07,3.79.34.77.85,1.32,1.33,2.02.91,1.32,1.14,3.17,1.4,4.71.85,4.95.06,10.37,2.17,15.05.54,1.2,1.93,2.58,3.24,2.89.77.19,1.45.24,2.25.21,2.26-.07,1.82,1.89,2.08,3.09.83,3.81,6.95-.49,8.25-.99,2.43-.92,4.76-1.98,7.25-2.75,1.95-.6,3.65-2.3,5.32-3.41,1.01-.67,2.63-1.57,3.86-1,.5.23.84.55,1.45.32,1.41-.54,2.12-1.25,2.3-2.75.29-2.46,2.99-4.55,4.64-6.22,1.59-1.61,3-3.37,4.26-5.24,2.99-4.45,4.22-9.86,6.46-14.67.09-.19.05-.37-.05-.51.07-.08.12-.18.12-.31,0-.94.08-1.98-.8-2.57Z"/>
      <path class="st7" d="M356.91,113.86c-.27-.59-.42-.9-.81-1.39-1.06-1.36.58-2.91,1.17-3.95,1.58-2.79,1.48-6.26,3.47-8.82,1.01-1.29,3.06-1.72,4.56-2.1,2.07-.54,3.69-.08,5.35.83.06-.53.11-1.05.05-1.58-.3-2.68-2.13-4.41-2.86-6.86-.46-1.54-.5-3.06-.35-4.66.12-1.25.32-2.85-.11-4.05-.31-.89-.88-1.59-1.15-2.49-.4-1.33-.46-2.71-.37-4.1.14-2.14.94-4.8-1.37-6.11-1.67-.95-3.11-1.95-4.93-2.66-1.49-.59-1.22-2.14-2.34-3.16-.57-.53-1.1-1.1-1.53-1.76,0,0-.18-.28-.42-.63-.27.04-.56-.1-.53-.45,0-.06.01-.13.02-.21-.55-.65-1.16-1.16-1.34-.42-.5,2.02-.33,4.27-1.33,6.16-.76,1.45-2.15,2.42-3.71,1.39-.44-.29-1.65-2.48-1.72-.89-.04.84-.25,1.18-.93,1.67-.19.13-.43.05-.59-.08.22.18-6.58,6.81-7.11,7.48-1.51,1.9-2.79,4.23-2.83,6.73-.01.95.27,2.11-.14,3.02-.31.68-.78,1.14-1.38,1.59-1.56,1.16-3.05,2.42-4.55,3.66-1.18.97-3.03,1.94-3.26,3.59-.18,1.34-.16,2.71-.27,4.05-.22,2.41-1.14,3.58-2.68,5.34-1.07,1.21-3.32,3.64-2.18,5.41.66,1.03,1.04,1.8,1.25,3.02.31,1.85-.8,3.45-2.36,4.29-2.19,1.19-6.08-1.04-7.45,1.5-1.69,3.12-1.27,6.93-1.79,10.34-.57,3.74-1.81,7.33-2.57,11.03-.5,2.44.72,2.93,2.21,4.15.78.64,1.17,1.16,1.31,2.16.11.71-.25,1.55-.77,2.03-1.29,1.19-1.96,2.58-1.75,4.37.26,2.24,1.39,4.6,1.05,6.88-.37,2.51-2.13,3.85-4.2,5.08-1.9,1.12-3.02,2.28-2.94,4.62.03.93-.15,1.9-.63,2.72-.83,1.41-2.46,2.46-2.92,4.05-.15.52-.34,1.43-.86,1.74-.38.23-.7.43-1.14.23-.13-.06-.3-.17-.51-.3,0,.2,0,.39.03.58-.23.12-.37.38-.2.66,1,1.66.08,3.92,1.75,5.2,2.02,1.54,2.54,2.91,1.33,5.29-.45.88-.6,1.62-.41,2.6.27,1.37,1.53,1.82,1.45,3.42-.07,1.3.11,2.47.49,3.72.91,2.99,5.4,6.49,1.54,8.97-1.33.85.09,3.37.36,4.39.36,1.39.99,2.49,1.74,3.69,1.48,2.34-1.26,2.49-.8,4.16.43,1.55,4.07,1.42,5.26,1.39.77-.02,4.47.42,4.45-1.19,0-.61-.25-1.12-.5-1.67-1.19-2.6,1.46-5.3,3.92-5.37,1.53-.04,3.1.02,4.64.04.98,0,2.19.41,3.14-.02.52-.24,1.01-.57,1.21-1.13.61-1.71.74-3.43,1.48-5.15,1.27-2.94,2.44-5.21,2.65-8.44.11-1.68.04-3.35.01-5.03-.02-1.63.59-3.46.91-5.05.16-.81.03-1.73.03-2.56,0-1.97,1.22-.86,2.07-1.41.75-.49.9-.89,1.07-1.78.39-2.01,2.13-2.02,3.68-2.32.9-.18,1.7-.98,2.34-1.56.82-.74,2.58-1.93,3.04-2.92.21-.44.25-.57.04-1.01-.2-.42-2.53-1.81-.93-1.87,1.25-.05,2.87-.72,2.4-2.3-.43-1.47.35-2.56.31-3.96-.03-.86-.81-1.83-1.19-2.54-.62-1.14-1.61-1.92-2.21-3.1-.37-.75-1.65-.97-2.35-1.09-2.43-.45-3.08-1.67-3.28-4-.13-1.48-.03-2.99.11-4.47.36-4.04,1.23-8.91,3.06-12.54,1.51-3,4.21-5.6,6.5-8.01,2.46-2.59,5.11-4.99,7.7-7.46,1.46-1.39,3.32-3.12,3.59-5.25.14-1.08.26-2.27-.2-3.29Z"/>
    </g>
    <path class="st7" d="M304.77,427.1c-4.56,1.35-8.77-.03-13.31-.45-2.73-.25-4.74.19-7.23-1.31-1.18-.71-2.24-.21-3.24.56-2.18,1.67-.61,4.19.88,5.65,1.42,1.39,3.21,2.19,4.95,3.07,2.48,1.26,4.59,3.31,6.74,5.04,2.01,1.62,4.12,5.32,7.07,4.59,2.15-.53,2.37-.27,3.8-1.99.89-1.08,1.15-1.97.84-3.34-.01-.05-.03-.08-.05-.12.06-.13.08-.28,0-.43-1.16-2.47-1.05-4.62,1.07-6.55,1.17-1.06,2.25-1.93,2.56-3.54.47-2.43-2.95-1.5-4.08-1.17Z"/>
    <path class="st7" d="M258.62,385.1c-1.05-1.05-3.34-1.07-4.69-.95-1.59.14-2.71,1.44-3.66,2.58-.95,1.16-2.41,2.59-3.77.89-.46-.57-.72-.87-1.38-1.12-.98-.36-1.77,1.59-2.13,2.09-.13.17-.07.45.08.59,2,1.96,1.91,5.81,1.81,8.4-.05,1.29-.09,2.57-.05,3.86.04,1.56-1.09,2.74-1.45,4.19-.62,2.46,1.67,6.08,4.33,5.62.23-.04.33-.27.36-.47.55-4.33,3.09-2.12,5.29-1.16.41.18.77-.2.74-.52.05-.05.09-.12.12-.2.05-.14.1-.29.14-.43.03-.09.03-.18,0-.25.5-1.93,1.67-3.44,2.79-5.1,1.13-1.69,1.55-3.42,1.65-5.43.13-2.74-.48-5.46-.38-8.2.04-1.21,1.28-3.32.21-4.39Z"/>
    <path class="st7" d="M258.22,363.75c-.68.49-.8,1.06-.95,1.88-.23,1.29-2.18,1.09-3.21,1.71-1.96,1.16-5.21.93-4.53,4.14.38,1.81,1,3.48,1.26,5.33.15,1.03.52,2,.92,2.96.28.68.8,2.04,1.63,2.36.19.23.58.22.77-.04.17-.1.24-.28.21-.46,1.25-2.91,4.43-4.5,4.86-7.88.09-.72-.08-1.56-.12-2.28-.07-1.2.26-2.43.43-3.6.21-1.44.07-2.66-.62-3.93-.12-.22-.46-.33-.67-.18Z"/>
    <path class="st7" d="M381.35,434.2c-.64.13-1.22.33-1.87.41-.3.04-.28-1.51-.28-1.62-.05-.65-.5-1.25-1.03-1.59-2.44-1.58-4.87-3.46-7.64-4.39-2.9-.97-4.96.47-7.6,1.34-1.4.46-3.39,1.41-2.52,3.3.96,2.12,5.37,3.25,4.72,5.8-.75,2.92.7,3.47,2.31,5.57.36.47,1.37.05,1.11-.42.13-.07.46-.2.46-.39v-.19c0-.17-.31-.29-.42-.37.13-.24.15-.48.29-.72.54-.94,1.68,2.46,1.74,2.72.28,1.35.22,2.82,1.06,3.97.16.22.4.32.65.18,1.21-.7,1.43-2.33,1.81-3.55.75-2.39,2.21.56,2.69,1.43.37.66.83,1.18,1.5,1.55.25.14.51.05.67-.18,1.62-2.26.59-4.67-.77-6.8-.61-.95-1.26-1.85-1.82-2.83-.34-.59-.6-1.21-.79-1.86.71-.1,1.16.14,1.37.74.19.34.39.68.6,1,.12.2.33.27.55.22,1.07-.21,4.23,1.3,4.63-.89.18-1,.1-2.72-1.4-2.42Z"/>
    <path class="st7" d="M354.79,424.29c-1.19-.26-2.29.29-1.8,1.62.3.81.88,1.62,1.55,2.27,0,.56.3,1.05.94,1.02.65-.04,1.22-.58,1.55-1.1.97-1.52-.81-3.49-2.24-3.8Z"/>
    <path class="st7" d="M392.29,426.75c-.96-.86-2.28-.64-3.35-1.22-.18-.1-.45-.1-.59.08-.91,1.12,1.03,2.4,1.98,2.66.5.14,1.17.32,1.68.13.54-.2.52-.65.33-1.06.13-.17.15-.41-.06-.59ZM391.27,427.47c-.29-.04-.59-.12-.87-.2-.07-.02-.1-.03-.12-.03,0,0-.02-.02-.05-.05-.13-.11-.27-.2-.4-.3-.03-.02-.11-.08-.2-.16.59.12,1.2.21,1.68.49-.01.08,0,.17.03.25-.02,0-.04,0-.07,0Z"/>
    <path class="st9" d="M395.45,429.16c-.07-.05-.16-.06-.25-.06-.02-.02-.02-.04-.04-.05-.37-.36-.79-.61-1.25-.84-.25-.12-.51-.06-.67.17-.41.63-.45,1.35.03,1.95.36.46.97.73,1.53.84.52.1,1.16.11,1.5-.37.45-.63-.43-1.32-.86-1.63ZM395.14,430.23s-.02,0-.03,0c0,0,0,0-.02,0-.06,0-.12-.02-.18-.04-.1-.02-.19-.05-.29-.09-.01,0-.06-.03-.09-.04-.04-.02-.07-.04-.11-.05-.08-.04-.16-.09-.23-.14-.02-.02-.06-.05-.07-.06-.05-.04-.09-.08-.12-.13,0,0,0,0,0,0,0,0,0-.01-.02-.04-.02-.02-.03-.05-.04-.08,0-.01-.03-.07-.03-.09,0-.03,0-.03-.01-.04,0,0,0-.02,0-.04,0-.02,0-.07,0-.09h0c.2.12.4.25.57.42.11.1.23.14.35.14.04.05.08.09.14.13.1.07.19.14.29.24-.03,0-.07,0-.1,0Z"/>
    <path class="st9" d="M406.1,410.34c-.96-.41-1.83-.07-2.43.62-.21-.01-.43.08-.53.32-.32.78-.16,2.17.61,2.65.88.55,1.3-.14,1.7-.8.03.55-.42,1.1-.41,1.74.02.54.23,1.05.82,1.09.52.04.96-.6,1.22-.96.37-.51.7-1.12.75-1.76.1-1.21-.61-2.42-1.74-2.9Z"/>
    <path class="st7" d="M345.42,190.93c-1.82-.21-3.68,1.01-4.7,2.43-.64.88-.5,1.95-.31,2.96.21,1.12-.39,1.92-.39,2.92,0,.09.02.17.07.25.49.66.5,1.26.51,2.05,0,.56.77.62.94.19.1.26.37.45.66.23.92-.7,1.64-1.04,2.04-2.22.58-1.69,1.06-3.11,1.96-4.67.75-1.29,1.49-3.87-.76-4.13Z"/>
    <g>
      <path class="st7" d="M175.42,197.48c.24-.43.42-.69.42-1.2,0-.41-.39-.98-.57-1.3-.4-.71.16-1.72.16-2.51,0-1.01-1.45-1.57-2.16-1.89-.55-.25-.97-.65-1.61-.72-.74-.08-1.93.28-2.8.27.35-.5.86-.85,1.53-1.02.3-.12.45-.42.29-.72-.02-.03-.03-.06-.05-.09-.62.46-1.18,1.08-1.89,1.79-.91.91-2.06,1.56-3.17,2.19-1.89,1.07-3.69,1.83-5.79,1.55.26,1.69,1.11,5.44,2.89,4.53.98-.5,1.91-1.11,3.04-1.02.28.02.46.21.49.49.19,2.06,1.93,2.46,2.96,3.99.57.84,1.01,1.79,1.52,2.68.74.06,1.46.04,1.76-.48.77-1.32,1.03-.87,2.24-1.22.96-.27.94-1.64.85-2.38-.15-1.22-1.2-1.02-.12-2.92Z"/>
      <path class="st7" d="M166.38,200.74c-.5-.23-.82-1.08-.93-1.57-.34-1.49-1.23-.44-2.28.02-1.21.53-2.27.66-3.08-.53-.48-.7-.27-1.68-.57-2.44-.39-1-.68-1.93-.78-3-.03-.33.33-.54.62-.47,3.36.8,7.42-1.8,9.46-4.33.38-.47.79-.84,1.22-1.12-.58-.85-1.35-1.59-2.37-1.6-.92-.01-1.79.86-2.47,1.72-.18-1.04-.68-1.89-2.02-1.78-.8.06-1.48,1.01-2.01,1.5-1.21,1.12-4.05,1.86-5.52,2.46-.3.12-.44.41-.29.71.64,1.3,2.82,2.55.04,2.83-.87.09-1.49.37-1.9.97-1.71-1.69-3.67-2.97-5.99-3.69-.95-.3-3.27-.53-3.27,1.06,0,1.23.23,2.22-.11,3.48-.34,1.24-1.42,1.42-2.54,2.05-.67.38-3.09,2.08-2.36,3.01.55.7,1.48,1.24,2.15,1.86,1.17,1.08,5.06,2.53,1.56,4.75-1.16.73-2.22,1.26-3.2,2.25-1.06,1.07-1.79,2.42-2.84,3.52-1.09,1.13-2.12-.62-3.06-.74-.81-.1-1.39.33-2,.82-1.64,1.32.13,2.21,1.07,3.09-1.07.45-2.44.74-3.02,1.73-.68,1.17.9,1.68,1.73,1.79,2.12.28.84,2.21,1.59,3.21.54.71,1.38,1.04,2.12,1.51.66.42,1.42.74,2.22.59,2.09-.4,4.09-.19,6.18-.4,2.71-.27,5.35-.64,7.85-1.68,1.28-.54,3.93.63,5.25.94.98.23,1.9-.11,2.72-.6.88-.52,1.63-1.44,2.24-2.24.85-1.12,2.25-1.91,3.19-3.02.71-.84,1.21-1.69,1.56-2.73.14-.41.2-1.21.25-1.63.14-1.2.65-2.19.93-3.35.04-.16,0-.29-.08-.4.38-1.48.79-2.94,1.02-4.46.06-.37.42-.45.9-.44-.78-1.45-1.52-2.9-3.18-3.66Z"/>
    </g>
    <path class="st7" d="M342.59,294.63c-.97.69-1.26,1.55-1.79,2.56-.53,1-1.21,2.38-2.53,2.31-.37-.02-.87-.35-1.05-.67-.63-1.08-1.24-1.55-2.57-1.39-1.47.18-1.47,1.42-2.62,1.73-.4.11-.86.09-1.27.06-1.36-.1-2.07,1.37-2.39,2.62.07.27.07.5-.08.79-.04.08-.08.15-.12.23-.02.08-.06.14-.1.2-.67,1.28-1.07,2.27-.17,3.82.26.46.47,1.03.62,1.66,2.81,1.43,4.45,4.58,8.15,3.45,1.11-.34,2.18-.45,3.32-.19,1.38.3,5.1.27,5.95-1.42.44-.88,1.58-3.56,2.95-3.29.44.09.92.18,1.07.69.19.65,1.05.3,1.55.13,1.11-.38,1.7-.91,2.11-2.03.72-1.98,3.48-2.37,5.29-2.78,2.75-.62,2.97.25,4.92,1.82,1.17.95,3.35-1.58,5-2.1.08-.58.16-1.16.18-1.7.03-.67.06-1.25.18-1.77-.52-.14-1.03-.38-1.56-.73-.5-.34-.58-1-.9-1.46-.85-1.24-1.33-.98-2.07-1.86-1.17-1.39-1.93-2.86-4.19-2.47-1.42.25-2.26-.19-3.63-.44-2.14-.4-3.79,1.95-5.26,3.1-.21.17-.48.2-.69,0-.75-.72-2.44-1.09-2.68-2.28-.13-.67-.19-1.26-.15-1.94.13-2.07-2.92-1.02-3.75-.36-.04.03-.08.04-.12.06.07.73,0,1.48-.14,2.02-.21.76-.84,1.22-1.45,1.65Z"/>
    <path class="st7" d="M291.87,322.97c1.48.3,2.97.28,4.45.58,1.57.32,2.02.85,2.52,1.62,1.83.57,4.14,1,5.85.45,1.89-.61,3.58-1.26,5.56-1.57.86-.13,1.69-.14,2.56-.07.95.07,1.96.68,2.92.56,1.85-.24,3.25-1.65,4.9-2.41-.02-.58.06-1.14.5-1.58.62-.62,1.93-.64,1.79-1.98-.07-.65-.12-1.21-.05-1.87.05-.47,1.64-2.55,1.31-2.79-.56-.41-.76-.92-.77-1.61,0-.23.15-.4.36-.47.92-.32,2.67.58,3.34,1.19.11.11.53-2.28.54-2.62,0-.3,0-.59,0-.89-.03-.02-.07-.04-.1-.08-.23-.26-.29-.38-.33-.73-.02-.17.1-.33.25-.42-.09-.32-.22-.62-.42-.92-1.07-1.6-1.14-2.56-.15-4.26,1.72-2.94-4.78-1.62-6.16-2.05-2.16-.68-3.78-1.65-5.74-2.74-.99-.55-2.21-.88-2.75.31-.12.33-.29.64-.5.93-.33.54-.91.97-1.4,1.35-1.54,1.16-2.86,2.17-4.83,1.76-1.22-.25-2.23-1.42-3.21-2.5-.07,1.09-.6,2.28-1.25,3.03-1.06,1.21-2.71,1.41-4.09,2.11-1.99,1.01-1.36,3.22-1.79,5.03-.17.72-.35,2.16-1.2,2.47-1.53.57-2.67-1.08-4.09-1.36-2.61-.51-5.05.88-7.38,1.88-2.76,1.19-4.39.66-5.93-1.73-2.14-3.3-2.05,2.45-4.33,2.12-.77-.11-1.16-1.71-1.37-2.27-.11-.33-.24-.66-.4-.97-.78-.21-1.56-.42-2.35-.64-.21.49-.4.98-.57,1.48-.11.3-.22.59-.35.88.17,1.29,1.1,2.71,2,3.53,1.17,1.06,2.57.99,3.84,1.73.34.2.58.46.75.75.15.07.26.2.26.41,0,.04,2.36.27,2.7.32,1.78.26,3.65,1.01,5.36.05,1.66-.93,4.13-3.16,6.16-3.13,1.48.02,1.73,1.21,1,2.33-1.27,1.94.52,4.35,2.58,4.77Z"/>
    <path class="st7" d="M270.18,320.62c.9-.67,1.85-.21,2.74.24.33-.98.54-2.31-.85-2.74-.64-.19-1.29-.37-1.92-.59-.76-.26-1.47-.84-1.97-1.46-.74-.91-1.48-1.93-1.81-3.07-.12-.03-.23-.09-.3-.21-.7-1.27-1.39-2.77-2.81-3.37-1.87-.8-3.84-1.09-5.85-1.25-2.56-.2-5.33-.34-7.81-1.06-.8.38-1.92.03-2.87.1-1.81.12-.16,1.38-.73,2.05-.81.95-1.81.77-2.79,1.48-.97.7-1.46,1.85-2.43,2.56-1.68,1.23-3.11,2.01-3.8,4.16-.13.31-.28.6-.47.88-.59.76-.51,1.58.25,2.46.28-.38.32-.43.7-.75.58-.49,1.22-.58,1.96-.55,1.36.06,2.63-.17,2.97,1.43.1.47.03.97.05,1.45.06.95.48,1.43.84,2.24.07.15.15.33.2.52,1.1.11,2.19.05,3.31.13,1.31.09,2.56.8,3.9.74,2.86-.14,2.35-1.49,3.33-3.17.17-.28.57-.48.86-.57,1.05-.29,1.82.77,2.28,1.52.71,1.18.16,1.97,1.38,3.13.42.4.85.79,1.26,1.19.09-.11.19-.22.31-.33,1.85-1.68.93-4.47,1.94-6.48.17-.33.67-.3.84,0,.55.96.85,2.31,2.2,1.55.33-.19,1.15-.22,1.51-.08.78.29,1.38.7,1.92,1.36.78.97,1.44,1.87,1.11-.15-.17-1.05-.49-2.57.54-3.33Z"/>
    <path class="st7" d="M294.83,285.29c.43,2.29.39,4.4,2.58,5.75,2.45,1.51,3.94,4.56,4.65,7.38.62.47,1.19.98,1.69,1.62,1.53,1.91,3.63,1.91,5.52.47,1.23-.94,1.66-1.67,2.39-2.96.19-.33.4-.79.79-.92,1.42-.49,3.09.89,4.2,1.6,1.14.73,2.35,1.27,3.64,1.67,1.47.46,2.53.03,3.96.1.86.04,2.42.21,3.36.85.38-1.16,1.05-2.23,2.2-2.6.28-.09.65,0,.93,0,.85.03,1.15-.31,1.77-.79.5-.39,1.04-.88,1.71-.96.8-.1,3.44-.35,3.63.99.32,2.16,2.01-.62,2.31-1.23.27-.55.51-1.22.96-1.67.88-.88,1.96-1.41,1.96-2.78s.37-1.99-1.54-2.25c-1.01-.14-1.7-.65-2.46-1.31-.66-.58-1.88-1.61-2.77-1.73-.55-.08-1.14,0-1.7-.1-.47-.08-.69-.24-.94-.63-.16-.25-.29-.79-.33-1.05-.25-1.57-1.41-2.17-2.84-2.34-.92-.11-2.09-.16-2.92-.63-.16,1.09-.69,2.24-1.83,1.93-.82-.23-1.43-1.08-1.87-1.75-.62-.93-1.53-1.3-1.95-2.38-.57-1.47.89-2.9-1.16-3.82-1.3-.58-2.9-.74-4.11-1.51-1.54-.98-2.34-2.1-2.66-3.63-.21.57-.51,1.11-.91,1.62-1.38,1.78-2.97,3.1-4.7.99.11.13-8.11,4.29-9.08,4.57-1.6.46-3.37,1.13-5.05.97-.87-.08-1-.04-.7.72.29.74.08,1.69.38,2.49.07.19.02.33-.08.43.75.68.79,1.84.98,2.85Z"/>
    <path class="st7" d="M311.33,240.22c-.12-.06-.24-.11-.38-.19-.4-.23-.84-.36-1.29-.46.38.36,1.05.53,1.66.64Z"/>
    <path class="st7" d="M271.04,214.23c1,.55,2.04.52,2.58,1.97.46,1.22-.22,2.08-.57,3.13-.03.1-.05.21-.07.32,2.67,1.37,5.59,2.41,8.51,2.53-.02-.07-.05-.13-.08-.2-.54-1.6,1.01-3.43.84-5.1-.24-2.52,1.51-2.78,2.98-3.74.79-.51,1.09-1.53,1.35-2.37.95-3.03,3.79-.93,4.99-3.25.74-1.42.06-3.29-1.35-3.92-.24-.11-.54-.09-.8-.11-1.41-.11-1.15-1.49-.96-2.54.13-.77-.03-1.31-.39-1.97-.2-.36-.26-.66-.25-.91-.06-.01-.11-.02-.17-.03-3.22-.6-5.85-2-9.05-.23-.5.27-1.22.79-1.98,1.22.92.27-.02,2.31-.31,2.87.05-.09-.87-1.47-1.13-1.64-1.19-.8-1.77-.17-1.88,1.12-.04.48.05.94.12,1.41.25,1.65-.09,2.93-.92,4.38-.54.96-.94,1.56-.88,2.66.06,1.12.44,1.43-.27,2.51-.17.26-.47.62-.58.94-.11.33-.13.76.23.96Z"/>
    <path class="st7" d="M278.13,196.96c.95-.45,1.88-.79,2.91-1.02,2.2-.48,4,.62,6.11,1.01.4.08.81.12,1.21.16.39-.38.93-.75,1.34-1.28.66-.84.8-1.87.8-2.9,0-1.26-.52-2.4-1.88-2.11-.83.18-1.59.97-2.3,1.4-1.78,1.08-3.53,1.92-5.64,2.05-1.55.1-4.04-.08-4.98,1.53-.26.44-.46,1.83-.13,2.62,1.07-.43,2.42-1.41,2.55-1.47Z"/>
    <path class="st7" d="M259.8,240.48c-.4,1.43-1.01,2.73-2.17,3.7-1.5,1.25-.61,2.43-1.19,4.01-.57,1.54-1.41,2.73-1.76,4.4-.22,1.07-.48,1.84-1.57,2.21-.24.08-.6-.04-.81-.15-1.49-.81-2.59.19-2.85,1.56-.26,1.39-.04,2.92-.45,4.28-.53,1.72-1.39,3.25-2.43,4.71-.11.15-.24.28-.39.4.15,2,.79,4.67-.23,6.48.02.08.03.16,0,.26-.06.34-.12.68-.17,1.02,0,.17-.09.29-.2.37-.23,1.14-.3,2.37-.18,3.45.16,1.45,1.44,1.71,1.7,2.93.18.84-.33,1.97-1.15,2.38,1.02.72,1.26,2.77,2.32,3.24,1.13.5,1.85.98,2.8,1.76,1.54,1.26,3.64,1.68,5.56,1.89,1.15.12,1.87,1.78,1.24,2.76-.43.67-.98.75-1.59,1.22-1.39,1.07-2.28,2.62-3.2,4.09-1.08,1.74-2.28,3.81-2.38,5.92-.04.92.06,2.06-.32,2.93,0,0,0,.01,0,.02,3.64.93,7.57.5,11.2,1.49,2.39.65,3.67,1.74,4.84,3.62.04-.02.08-.05.12-.07.75-1.79,1.98-4.78,3.95-2.54,1,1.13,1.08,2.46,1.87,3.68.44.68,1.35-2.32,1.66-2.58,1.52-1.29,2.51-.17,3.41,1.22.81,1.25,1.46,2.31,3.29,1.79.98-.27,1.88-.69,2.81-1.08,1.39-.58,3.07-1.48,4.61-1.52,1.68-.04,2.77.48,4.19,1.25,2.33,1.25,2.08-3.6,2.15-4.4.09-.98.42-1.9,1.37-2.38.8-.41,1.53-.92,2.36-1.28.42-.18,1.16-.12,1.53-.38,1.51-1.1,1.69-2.63,1.37-4.19-.14-.12-.28-.23-.42-.32-.37-.25-.22-.75.08-.89-.32-.93-.74-1.83-1.11-2.62-.9-1.95-2.15-2.71-3.84-3.91-1.05-.74-1.38-2.32-1.56-3.49-.15-.97-.21-3.64-1.09-4.54-.08-.02-.16-.05-.23-.12-.06-.06-.13-.13-.19-.19-.3-.3-.11-.66.19-.77-.47-1.25-1.54-4.54.75-4.32,2.03.19,4.21-.44,6.12-1.13,2.09-.75,5.24-1.89,6.62-3.74,2.12-2.82,3.27,1.82,5.21-.41,3.52-4.07,1.03-8.79-.52-13.14-.74-2.07-.13-3.92-.64-5.96-.37-1.49-.82-2.96-.24-4.45.62-1.6,2.86-1.01,2.84-3.36,0-.86.21-2.24-.08-3.01-.69-1.85-1.64-1.25-2.73-1.5-.94-.21-1.76-.51-1.96-1.52-.05-.23-.03-.41.02-.57-.49-.75-.73-2.26-1.2-3.08-.38-.31-.77-.6-1.16-.88-.11-.04-.21-.08-.31-.11-1.63-.5-2.37-1.18-2.96-2.67-.76-1.94-3.21-1.66-4.76-1.06-.29.11-.56.29-.79.49-.99.9-1.95,1.58-3.23,2.09-1.33.52-2.03.85-3.4.31-.68-.26-1.74-.3-2.49-.51.59-.92,1.38-2.17.82-3.14-.33-.57-.96-.7-1.55-.82-.51-.1-1.09-.11-1.59-.19-1.65-.25-1.98-1.9-2.37-3.2-.31-1.03-.89-2.01-1.38-3.01-3.11,0-6.2-1.07-9.05-2.5,0,1.33.33,2.9.47,3.9.2,1.41.65,2.78.41,4.21-.18,1.06-.87,2.08-1.38,3.02-.34.63-.48,1.47-.7,2.15-.74,2.29-1.97,1.49-3.2,2.72-.34.35-2.11,2.97-2.24.05-.03-.62.19-1.28.04-1.9-.21-.85-.58-1.56-1.54-1.65-1.42-.12-4.42.27-5.09,1.85-.21-.01-.42.08-.51.33-.08.25-.16.5-.25.74.42,1.4,1.36,2.69.9,4.34Z"/>
    <path class="st7" d="M304.41,337.85c.17,0,.74-2.52,1.43-2.97.86-.56,1.62-.46,2.36.28.68.68,1.87,2.05,2.59.52.37-.78.68-1.57,1.12-2.3.31-.5.75-.76,1.26-.99,1.65-.73,1.07-1.66,1.66-2.68.55-.94,2.64-1.22,3.56-1.37,1.95-.32,2.99,1.56,5.15.96,1.41-.39-1.19-4.04-2.41-5.74-.19-.03-.35-.17-.41-.37-1.42.77-2.77,2.04-4.36,2.25-1.09.14-1.9-.12-2.95-.34-1.52-.32-3.02-.16-4.52.17-1.8.39-3.58,1.58-5.46,1.56-1.24-.02-2.53-.17-3.77-.44.15.18.31.38.51.58,1.19,1.24-.33,2.23-1.14,3.06-.77.79.69,2.65.83,3.63.11.74.07,1.51-.28,2.19-.12.24-.35.47-.48.7,0,0-.1.01-.1.01h0c1,.12.58.27.93.39,1.41.48,2.98.87,4.48.91Z"/>
    <path class="st7" d="M388.64,213.52c-1.27-.84-1.92-3.76-3.31-3.49-2.41.46-4.86.36-7.3.66-.86.1-1.76.25-2.62.09-1.35-.25-2.48-1.01-3.8-1.3-3.32-.73-6.62.82-9.49,2.36-1.69.91-3.43,2.29-5.42,2.14.13.51.31,1.01.42,1.46.3,1.17.2,2.48.37,3.68,0,.02,0,.04,0,.05,1.1.63,1.98,1.51,2.55,2.94,1.79,4.5,4.87-.21,7.4,1.85.9.74,2.25,2.02,2.8,3.02.81,1.49.45,3.1.75,4.73,0,.05,0,.09,0,.14,1.35.09,2.61.48,3.37,1.68.71,1.12.58,2.81.9,4.05.12.49.26.98.41,1.45.85-.43,2.37-.35,3.04-.41,1.08-.1,2.19-.57,3.23-.88,1.23-.37,2.48-.38,3.73-.62.75-.15,1.6-.33,2.22-.83.82-.67,1.89-2.29,3.1-2.15.24.03.52-.24.49-.49-.2-1.67-.44-3.08-.2-4.77.25-1.76,1.68-3.11,2.81-4.36.63-.7,1.38-1.56,1.65-2.48.35-1.22-.43-3.46.48-4.39.11-.11.15-.25.13-.38-.32-.18-.64-.38-.97-.62-2.06-1.52-4.67-1.76-6.74-3.13Z"/>
    <path class="st7" d="M354.37,231.03c2.31.23,4.58.73,6.88.97,2.03.22,3.95.08,5.97,0,.86-.04,1.83-.15,2.81-.17-.37-2.1-.21-3.99-1.96-5.57-.28-.36-.54-.75-.76-1.15-.92-.58-1.83-.69-2.73-.33-.6.16-1.2.27-1.81.37-2.43.42-2.91-1.54-3.89-3.22-.25-.43-.54-.8-.86-1.12.26.58.55,1.14.77,1.68.76,1.81.23,2.96-.79,4.47-1.02,1.51-4.45-.95-5.88-.37-.88.36-1.09.86-1.11,1.81,0,.48-.06.88-.17,1.21.78.89,1.79,1.25,3.51,1.42Z"/>
    <path class="st7" d="M314.02,242.97c.17,1.25.14,2.76-.23,3.98-.37,1.25-1.76,1.2-2.44,2.07-1.25,1.62.38,4.44.19,6.35-.26,2.63,1.05,4.49,1.83,6.88.65,1.99,1.25,4.29,1.06,6.44.19.05.36.19.37.45.1,3.5,2.37,4.27,5.2,5.29,1.03.37,2.16.8,2.74,1.8.79,1.34-.65,2.8.8,4.03.46.39.83.74,1.18,1.23.99,1.38,2.12.66,1.92-.87-.08-.58.78-.61.96-.13.72,1.96,5.27.11,6.22,2.25.33.73.29,2.77,1.35,2.76,1.03-.01,2.02.19,2.88.79,1.38.95,2.46,2.22,4.22,2.41.46.05,1.12.19,1.41.61.13.18.22.41.3.66,1.26-.84,2.76-1.08,4.26-.68,1.12.29.72,1.8.76,2.57.11,2.18,1.1,1.55,2.13,2.54.28.27,2.11-1.64,2.38-1.86,1.34-1.13,2.56-1.41,4.2-.87,1.63.53,3-.08,4.6-.04.42,0,1.02.31,1.29.63.75.87,1.26,2.16,2.25,2.78.67.42,1.37.9,1.7,1.66.48,1.07,1.13,1.64,1.88,1.86.23-.53.59-1.03,1.17-1.56.81-.73,1.17-1.42,1.33-2.47.29-1.99-.8-3.4.12-5.52.62-1.44,2.61-2.24,3.8-3.2,1.79-1.45,4.3-4.01,5.13-6.23.91-2.42-.08-4.75-1.42-6.79-.76-1.15-1.59-2.22-2.23-3.45-.97-1.86.49-3,.26-4.74-.21-1.63-1.37-3.88-2.81-4.77-1.01-.62-2.85-.42-1.58-3.14.44-.94,1.59-1.63,2.4-2.21,1.01-.73,1.72-1.52,2.33-2.61.12-.07.21-.2.21-.39-.06-2.58-.68-4.83-1.48-7.24-.02-.02-.04-.04-.05-.06-.81-1.78-1.61-3.6-2.09-5.51-.52-2.03-.28-5.72-3.23-5.72-4,0-7.91.45-11.89-.18-2.21-.35-4.5-.44-6.68-.87-1-.2-1.77-.51-2.51-1.22,0,0,0,0,0,0-.39.33-.92.58-1.64.83-1.04.36-2.08.67-3.1,1.09-2.22.91-3.28-1.03-3.71-2.74-.17-.67.41-1.21.23-1.87-.3-1.1-2.2-1.1-3.05-1.06-2.14.09-4.35,1.29-6.28,2.16-2.77,1.26-5.6,2.38-8.31,3.77-2.5,1.28-7.65,1.29-9.34,4.01-.68.67-1.2,1.45-1.53,2.36-.28.77-.58,1.18-1.03,1.27,1.05.35,1.45,1.55,1.58,2.52Z"/>
    <path class="st7" d="M372.63,184.9c.27.88,1.01,1.87,1.61,2.57,1.12,1.32,4.35-1.94,4.5.15.1,1.36-.64,2.77-.68,4.2.46-.47.89-.96,1.32-1.36.83-.76,1.81-1.41,2.82-1.88,1.52-.71,3.16-.04,4.03,1.3,2.71,4.18,6.82,4.15,11.25,3.07.33-.08.64-.1.94-.1.19-1.36,1.08-2.88,1.66-3.6.21-.26.15-.58-.1-.74-.19.25-.61.33-.81-.02-.1-.18-.21-.36-.32-.53-.84-.49-1.37-1.1-1.76-1.83-.54-.36-1.14-.65-1.83-.86-.64-.19-1.38-.68-1.71-1.28-.53-.95-.75-1.92-.75-3.01,0-1.38-.36-2.66-.38-4.02,0-.2.15-.44.36-.47,1.93-.3,4.1-.01,5.66-.71.44-1.36.2-3.15.07-4.36-.03-.28-.29-.6-.62-.47-1.52.59-2.65,1.31-4.4,1.47-2.07.19-3.47-.37-5.27-1.3-2.16-1.11-4.54-.37-6.58.62-1.29.62-2.5,1.44-3.75,2.14-1.61.89-3.43,1.42-5.07,2.29-2.15,1.15-.56,3.43-.39,5.15.12,1.25-.18,2.35.2,3.59Z"/>
    <path class="st7" d="M356.57,213c2.42.26,5.63-2.38,7.84-3.36,1.67-.74,3.86-1.56,5.74-1.37,2.28.24,4.31,1.8,6.61,1.59,2.56-.23,5.28-.18,7.79-.66.7-.13,1.69-.57,2.3.04.58.59.73,1.53,1.14,2.23.84,1.43,2.32,1.73,3.74,2.25,1.96.71,3.45,1.87,5.25,2.84.8-.72,1.52-1.45,2.52-1.92.89-.41,2.08-.78,2.66-1.64.36-.54.34-.53.57-1.18.34-.99.9-1.68,1.52-2.51.71-.95.84-1.68.42-2.79-.51-1.34-1.95-2.67-2.77-3.79-.65-.89-1.33-2.05-1.43-3.15-.08-.84.13-1.69.05-2.55-.08-.94-.83-1.53-1.48-2.1-.31-.27-.49-.61-.58-.99-.92.02-1.93.43-2.98.58-1.14.16-2.21.2-3.36.1-1.69-.15-3.92-.76-5.16-2.04-.73-.75-1.09-1.85-1.85-2.55-1.81-1.68-4.21.31-5.42,1.5-.5.49-1.01,1.08-1.56,1.58.17,1.92.55,3.76.21,5.73-.26,1.53-1.97,2.64-3.2,3.34-2.67,1.52-3.96-2.39-4.16-4.21-.02-.21-.13-.42-.36-.47-1.49-.36-2.3-1.2-3.01-2.5-.21-.38-.45-.78-.9-.91-.44-.12-.87.22-1.2.44-1.23.84-1.87,1.85-3.53,2.11-1.72.27-1.97,2.46-2.34,3.76-.64,2.29-2.25,3.94-2.82,6.24-.18.72-.16,1.48-.12,2.21.06,1.23-.06,2.37-.18,3.59-.02.19-.01.38,0,.57.02,0,.03,0,.05,0Z"/>
    <path class="st7" d="M325.49,329.24c.63,1.68,3.51,2.77,4.86,3.86,1.4,1.12,2.61,2.34,3.79,3.67,1.9,2.13,2.54.03,4.13-.41.8-.22,1.63-.16,2.29.33.48.36,1.02.13,1.54-.3.01-.11.02-.22.03-.33.02-.41.44-.55.72-.42.38-.43.71-.86.95-1.07,1.05-.94,3-.94,4.29-1.23,1.86-.42,3.33-1.5,5.11-2.09,1.8-.59,4.04-.41,5.49-1.81,2.04-1.97,2.69-4.74,4.18-7.07.71-1.11,2.12-2.08,2.65-3.23.69-1.5.79-3.06,1.8-4.4,1.85-2.49,5.07-3.71,7.18-5.97.27-.29.49-.57.67-.85-1.4-.34-2.84-.53-4.24-.88-2.02-.5-2.3-1.8-2.21-3.25-.8.26-1.4.78-1.97,1.37-.38.39-1.15,1.42-1.83,1.37-.76-.05-1.22-.4-1.79-.91-1.32-1.2-1.93-2.05-3.97-1.57-1.73.4-4,.75-4.75,2.55-.22.52-.38.97-.85,1.33-.77.59-3.07,1.93-4.01,1.14-.72-.6-.86-1.38-1.74.02-.43.69-.82,1.79-1.43,2.32-1.16,1.01-3.37,1.78-4.91,1.62-1.91-.2-3.36-.37-5.27.17-.83.23-1.6.28-2.44-.04-1.99-.77-3.33-2.38-5.07-3.41.16,1.66-.12,3.45-1.03,4.48-.18.21-.5.17-.69,0-.36-.33-3.7-2.18-2.01-.95.23.17.25.39.34.67.19.64-.71,1.58-1.01,2.04-.81,1.25.25,3.15-.83,4.17-.94.88-1.7,1.12-1.78,2.35.11.09.19.23.19.38,1.09,1.45,3.57,4.52,3.43,6.13.08.05.15.13.19.23Z"/>
    <path class="st7" d="M355.38,402.67c.28.06,1.71,1.06,1.82.44.05-.34.12-.68.24-1.01.23-.8.96-1.69,1.39-2.41.47-.79,1.21-1.75,1.36-2.67.02-.14.04-.27.05-.39-.08-.08-.13-.18-.13-.33,0-.2,0-.4-.02-.59-.32-.49-1.07-.29-1.56-.79-2.38-2.38-3.19-5.36-2.67-8.49-.19-.06-.35-.24-.34-.46.08-1.65.6-3.56-.06-5.16-.46-1.12-1.15-2.79-1.83-3.82-.98-1.48-2.71-.98-3.92-1.82-.39,1.25-.43,2.49-1.37,3.6-.85,1-1.65,1.38-2.76,2.04-.48.28-.87.75-1.19,1.32.04.02.09.02.14.02.31-.11.6-.07.87.13-.15.26-.03.51.17.64.23.66.58,1.23,1.03,1.86,1.62,2.28.47,4.4-.1,6.79-.47,1.98-.29,4.41-.3,6.44-.01,1.5-.34,3.26.02,4.72.22.91,1.18,1.34,1.95,1.69,1.13.52,3.01.9,2.02,3.05-.21.46-.26.49-.29.99-.01.29.06.51.17.68.18-.09.35-.18.53-.27.67-.32,1.55-.46,2.06-1.05,1.33-1.53-.86-5.94,2.73-5.17Z"/>
    <path class="st7" d="M418.23,355.6c-.77.14-1.4.06-2.1-.22-2.13-.83-2.91-3.73-5.74-2.85-3.11.96-6.26,2.3-8.84,4.31-1.09.85-2.65,2.67-4.18,2.71-2.84.06-5.49-.49-8.35-.07-2.28.33-4.52,1.39-6.85,1.4-1.87,0-3.87-.25-5.57-1.07-1.4-.67-1.95-1.64-2.61-2.84-.06.03-.12.04-.2.04-5.46-.3.33,6.71,1.06,8.31.58,1.28,1.86,3.35.98,4.77-.51.82-1.18,1.44-1.98,2-2.04,1.42-1.4,3.03-1.51,5.01-.03.46-.17.9-.4,1.25,0,.01.02.02.02.04l.26.36c.09.09.12.2.12.3.75.64,2.42,1.24,2.91,1.63.82.65,1.32,1.68,1.25,2.73-.07,1.05.14,3.17-.24,4.66,2.09-.79,4.64-1.98,6.71-1.81,1.94.16,3.34.03,5.13-.84.69-.33,1.43-.74,2.2-.81,2.24-.21,3.35,1.17,5.26,2.03,1.16.53,10.54.64,8.99-2.65-.83-1.78.38-3.03,1.98-3.63.66-.96,1.72-1.79,2.32-2.23.63-.46,1.06-.89,1.75-1.33,1.54-.97,2.79,0,3.94.67.83.49,1.74.78,2.7.71,1.17-.1,1.65-1.46,1.6-2.45-.06-1.49-2.17-2.48-3.22-3.13-2.96-1.84,1.7-4.52,1.89-6.64.18-2.09-.22-3.78,1.65-5.3.39-.32.81-.63,1.17-1,.02,0,.05.01.07.02.27.09.51-.1.6-.34.46-1.19.63-2.4.65-3.64-1.14-.19-2.1-.33-3.42-.09Z"/>
    <path class="st7" d="M428.18,341.39c-.34-1.81.33-4.53-1.64-5.59-1.57-.84-4.17.86-5.57,1.41-5.56,2.18-5.28-6.71-5.57-9.89-.25-2.67-.19-5.43-1.93-7.63-2.12-2.69-3.98-5.63-5.96-8.42-1.29-1.82-1.76-5.38-3.79-6.6-2.18-1.3-3.73.14-5.75,1.1-3.88,1.84-7.8,3.19-12.1,3.58-3.42.31-6.44-.38-9.67-1.17-.54.86-1.24,1.57-2.07,2.24-1.3,1.06-2.63,2.04-3.97,3.05-1.26.95-2.5,1.96-2.93,3.56-.18.66-.31,1.38-.59,2.01-.7,1.53-2.09,2.4-2.93,3.84-.77,1.31-1.34,2.71-2.05,4.05-1.14,2.16-2.6,4.13-5.13,4.59-.83.15-1.6.36-2.34.6,1.55,1.05,3.4,3.84,3.99,4.6.44.57.96,1.05,1.35,1.66.61.96.42,2.22,1.1,3.19,1.04,1.49,2.92.86,3.17,3.13.16,1.48,1.2,2.37,1.4,3.8.16,1.12,1.97.76,2.85.86,1.23.15,1.2-.25,2.18-.68.39-.17.8-.39,1.25-.27,1.23.32,2.59.83,2.74,2.2.1.96-.89,1.71-1.31,2.43-.57.98.22,1.78.82,2.54.21-.13.51-.12.67.16.54.95,1,2.45,2.06,2.96,1.37.66,2.87,1.12,4.4,1.2,2.5.14,4.72-.73,7.13-1.22,2.12-.44,4.45-.55,6.6-.32,1.63.17,2.9.49,4.29-.61.89-.71,1.79-1.4,2.68-2.1,1.88-1.49,4.24-2.39,6.46-3.25,1.33-.51,3.12-1.4,4.6-.8,1.48.6,3.21,3.27,4.77,3.14,1.24-.1,2.31-.46,3.55-.29.23.03.46.09.69.16-.03-.51-.09-1.02-.16-1.53-.31-2.28-.37-4.06-.03-6.37.24-1.61-.56-3.2.66-4.46.4-.41.41-.4.72-.88.29-.45.35,1.31.35,1.28-.03.45.04.79.34,1.12.99,1.06,3.12-1.96,4.07-1.74.38.09.67-.23.6-.6Z"/>
    <path class="st7" d="M405.94,381.73s-.04.02-.06.04c-1.11.79-.08,2.44-.05,3.45,0,.51-.51.92-.84,1.22-1.5,1.32-4.4,1.57-6.29,1.57-2.59,0-3.48-.59-5.68-1.81-3.19-1.77-5.47,1.55-8.69,1.21-1.91-.2-3.28.2-5.06.77-.45.15-3.28.71-3.28,1.25s-.72.61-.92.22c-1.09.36-2.21-.84-3.34-.03-1.58,1.15-3.16,2.48-4.94,3.32-1.45.68-3.04,1.25-4.67,1.18-.53-.02-1.04-.25-1.04.12,0,.47,0,.95,0,1.42.1.26.12.44.16.9.13,1.44-1.3,3.27-2,4.4-.61.99-.74,2.57-1.7,3.24-.79.55-3.65-1.54-3.39.82.12,1.12.11,2.14-.47,3.13-.56.95-1.79,1.26-2.78,1.68.59.36,1.2.8,1.1,2.13-.1,1.3.18,2.1,1.14,3,.94.89,2.22,1.44,3.22,2.27,1.29,1.08,1.42,2.27.84,3.63-.12.29-.16.67-.08.97.31,1.11,1.85,2.04,2.51,2.97.45.65,1.05,1.42,1.95,1.07,2.05-.79,3.91-1.35,6.12-1.58,1.05-.11,1.01,1.02,2.26.61.64-.21,1.2-.56,1.85-.76.26-.08,1.57.58,1.89.65,1.41.32,2.72,1.2,3.91,2.17-1.72.44-2.29,2.5.57,2.92.59.09,1.27-.32,1.77-.52,1.48-.61,4.26,1.61,4.82,2.77.45.93,1.64,1.76,2.69,1.02.92-.65.74-1.36.31-2.32-.59-1.3-1.16-2.56-1.59-3.93-.12-.38-.08-1.69-.53-2.06-.22-.18-.45-.31-.68-.43.65.18,1.34.33,2.09.51.27.06.47-.09.55-.29.04.09.07.17.11.26.26.57,1.1.08.84-.49-.42-.92-.09-2.6-.83-3.34-1.2-1.2-3.42-.71-4.78-1.85-1.04-.87-2.76-4.12-4.65-2.86.02.29-.24.6-.57.54-.31.48-.3,1.11.09,1.56,1,1.17,2.32,1.57,3.12,3.02.65,1.18,1.44,1.87,2.36,2.34-.8-.21-1.57-.36-2.18-1.11-.28-.34-.61-.75-.97-1.01-2.33-1.68-6.03-.67-7.15-3.54,1.12-.04,2.63.15,3.33-.76.24-.32.41-.71.41-1.11-.51-.43-.96-.96-1.33-1.46-.48-.63-1.15-1.64-.61-2.44.6-.88,1.66-.93,2.51-.33,1.09.77,1.34,2.04,1.88,3.18,0,.02,0,.04.01.06.01-.02.02-.03.03-.05,1.07-1.63-1.18-4.8-2.17-5.94-1.1-1.26-3.09-1.75-3.42-3.57-.36-2-.55-3.61.2-5.57.25-.65.42-1.25.54-1.93.53,0,1.06-.02,1.58-.03.17.36.3.73.4,1.11.22.74.29,1.69.9,2.25.8.74,2.14,1.16,2.53,2.23.26.69.57,1.14,1.21,1.44.97.45,1.31-.77,1.03-1.44-1.38-3.24,2.53-1.97,3.13-4.16.22-.79-.33-1.61-.75-2.19-.25-.35-.57-.62-.88-.91-.17-1.25.17-1.82,1.02-1.71.49.02.99.05,1.48.11.72.07,1.71.18,2.39-.21,1.18-.69,1.7-1.28,3.21-1.09,1.71.22,3.97-.7,5.56.06,1.15.55,2.57.49,3.8.81,1.53.39,2.78-.1,3.5-1.49.4-.77.18-2.31.3-3.14.27-1.75,1.37-3.19,1.67-4.92.08-.48.05-1.56-.25-2.04-.23-.37-.29-.75-.25-1.13Z"/>
    <path class="st7" d="M343.73,381.43c.51-.86,1.15-1.26,2.28-1.9,2.25-1.28,2.17-3.39,3.06-5.46.16-.36.66-.27.84,0,.78,1.16,2.39.54,3.46,1.16.7.41,1.17,1.36,1.46,2.07.54,1.31,1.62,2.65,1.77,4.11.12,1.21.03,2.35-.05,3.53.15,0,.3.07.4.18,2.66-1.23,3.3-3.91,4.7-6.37.59-1.04,1.33-1.35,2.37-.7.79.5,1.36,1.68,2,.38.23-.46.5-1.01.94-1.31,1.27-.85,2.14-.21,3.09.72,1.05.11,1.49-.31,1.33-1.24-.08-.56-.19-1.12-.35-1.66-.07-.26-.09-.57-.02-.83.31-1.09.79-1.71,1.69-2.41,1.43-1.12,2.89-2.07,2.08-4.07-.67-1.64-1.47-3.06-2.46-4.53-.95-1.39-2.44-3.34-1.66-5.17.48-1.14,1.23-1.73,2.31-1.88-.68-.94-1.56-1.47-1.25-2.91.13-.58,2.32-2.54,1.08-3.17-1.19-.62-2.07-.76-2.99.32-.62.73-3.19-.06-3.99-.19-1.12-.19-1.3-.36-1.55-1.37-.5-1.99-1.93-4.65-3.52-5.72-1.38-.93-1.33-2.39-1.91-3.8-.39-.95-4.94-6.85-5.76-6.51-.17.07-.3.03-.4-.04-.85.34-1.69.72-2.58,1.12-1.97.9-4.73.37-6.27,2.13-.26.29-.51.6-.78.89-.1,1.1-.26,2.23-.15,3.31.18,1.74,1.35,1.17,2.25,1.62,1,.5,1.51,1.59,1.42,2.72-.03.4-.21.92-.49,1.39.04.05.08.11.1.18,1.16,3.3-2.71,8.48,2.12,9.83.44.12.44.65.12.89-2.1,1.56.41,3.56-.95,5.29-.38.48-.78.72-1.43.7-1.67-.07-.57,1.57-.13,2.53.15.31-.02.75-.42.73-1.1-.05-2.88-.27-2.5,1.43.15.66.1.69-.17,1.33-.17.4-1.59,1.28-1.77,1.42-1.03.77-1.6,1.57-2.05,2.66.07.31.08.65.05,1.04-.09,1.01-.14,1.97-.14,2.93.15.13.3.27.46.4,1.52,1.28,3.13,2.64,4.37,4.22Z"/>
    <path class="st7" d="M378.33,415.67c-.4-.84-.58-2.01-1.3-2.65-.28-.25-1.72-.86-1.45.09.31,1.08,1.48,2.31,2.46,2.84.07.04.12.08.15.13.12-.06.23-.13.34-.21-.08-.04-.15-.1-.2-.2Z"/>
    <path class="st7" d="M361.61,393.12c2.44.1,4.62-.81,6.6-2.18,1.08-.74,2.46-2.24,3.72-2.59.73-.21.68-.2,1.41-.02,1.91.48,1.96-.41,2.03-1.73.06-1.36.61-4.1-.59-5.05-.97-.78-3.01-1.28-3.62-2.5-.24.1-.51.15-.82.13-.56-.04-.94-.64-1.29-.99-1.51-1.48-2.2.84-2.61,1.55-.41.71-1.1.67-1.72.31-.33-.19-.57-.54-.84-.8-1.28-1.22-1.64.6-1.86,1.19-.34.88-.74,1.78-1.3,2.54-1.04,1.42-2.23,2.6-3.83,3.22-.34,1.45-.53,3.08.05,4.46.52,1.24,1.41,2.09,2.08,3.2.27.45.67.53,1.04.66.02-.88.29-1.45,1.57-1.4Z"/>
    <path class="st7" d="M200.72,360.41c-1.47-.72-2.94-.92-4.79-1.1-2.21-.22-5.51-.15-7.25-1.78-.92-.86-1.66-2.3-1.83-3.55-.21-1.54-.64-2.79-2.17-3.4-.48-.19-1.01-.36-1.44-.66-.49-.35-.98-.71-1.5-1.02-.86-.49-2.08-.72-1.21.66.43.69.89,1.29.77,2.12-.04.27-.37.4-.6.34-2.52-.58-4.51-.33-6.69-1.88-1.8-1.28-3.58-2.45-5.19-3.98-1.07-1.03-3.51-1.84-4.16-3.23-.41-.86-.55-1.83-1.09-2.62-.23-.34-1.73-1.73-2.07-2.45-.08.02-.17.05-.25.07-.14.11-.34.15-.5.1-3.5.55-8.38-1.95-10.72-3.32-1.39-.81-2.69-1.74-4.23-2.24-1.09-.35-2.16-.56-3.18-1.13-.77-.44-1.42-1.34-2.07-1.95-.75-.71-1.58-.96-2.58-1.09-.94-.12-2.18.27-3.06.39-1.5.19-2.87-.92-4.01-1.71-1.53-1.07-3.02-2.04-4.71-2.85-1.53-.73-2.96-1.83-4.52-2.46-1.65-.67-3.47-.74-5.18-1.18-1.99-.51-2.89-2.71-4.49-3.79-2.95-1.99-5.03.43-8.01,1.38-1.67.53-3.11-.97-4.77-.77-.66.08-1.23.39-1.81.39h0c-.09,0-.17.13-.25.15-.12-.02-.24.07-.32.15-.21.09-.41.25-.59.42-.08.07-.16.19-.25.29-.17.06-.33.13-.46.2-.16,0-.3.1-.37.25-.8.66-.72,1.71-.08,2.87.59,1.07.14,2.29.7,3.41.29.58.6,1.13.93,1.68.87,1.47-.74,2.11-1.48,2.97-.44.51-.7,1.16-.91,1.8.16.01.32.03.46.04,1.53.12,7.44-1.36,6.68,1.8-.11.46-1.74,2.13.53,1.91.42-.04.84-.09,1.26.02.75.21,1.21.69,1.61,1.33,1.41,2.22,2.26-1.5,3.85-1.17,1.21.25,1.66,1.54,2.81,1.79.91.2,2.25.28,2.9,1.06.74.89.64,1.79-.03,2.72-.73,1.02-1.27,1.79.17,2.46.42.2,1.06.46,1.22.95.49,1.49-1.09,2.38-2.22,2.89-2.78,1.27-5.86,2.18-5.7,5.85.06,1.42-.16,2.66-1.51,3.42-1.38.77-3.75,1.29-3.4,3.24.16.92.22,1.86-.12,2.77-.37,1-1.28,2.61-2.65,2.08-.65-.25-1.08-.61-1.66-.98-1.22-.77-.37,1.9-.29,2.11.32.91.41,1.9.21,2.85-.53,2.51-2.02,4.67-3.75,6.54-2.42,2.61-6.37,3.86-6.59,7.84-.1,1.8-.4,3.6-.4,5.41,0,.97-.69,1.9-.69,2.86h0s.26.04.26.06c.64-.03,1.41-.04,2.05,0,2.78.17,4.4,2.83,4.75,5.41-.04.07-.05.16-.04.27.24,2.85.38,6.27,1.59,8.89,1.1,2.38,2.33,3.55,4.69,4.55,2.26.95,3.56-2.1,5.71-2.33,2.16-.23,4.43,1.15,6.28-.4,3.1-2.6,7.13,1.45,10.12,2.46.93.31,1.56.19,2.5.71.66.37,1.22.76,1.93,1.06,1.4.6,3.02.47,4.49.76,1.06.21,1.7,1.03,2.81,1.1.8.05,2.37.03,3.1-.3.94-.42,1.81-.91,2.54-1.65.34-.35.53-.88.72-1.32.73-1.65,2.13-2.39,3.88-2.52,1.3-.1,2.56.45,3.87.19,1.26-.25,2.24-.78,3.34-1.44.86-.52,1.36-1.24,1.79-2.13.2-.42.34-.89.49-1.33.61-1.74,1.73-2.49,3.36-3.13,1.71-.67,4.18-1.15,5.51-2.52,1.54-1.59.91-3.13-.18-4.82-2.55-3.99.17-6.63,2.89-9.44,1.25-1.3,2.6-2.6,4.04-3.69,1.3-.99,2.98-1.43,4.39-2.27.5-.3,1.36-.94,1.46-1.56.08-.52.1-.71.11-1.25.02-2.07,2.32-1.93,3.62-2.01,1.46-.09,2.94.1,4.38-.18,1.99-.38,3.84-1.11,5.74-1.77,2.66-.92,5.28-1.8,7.88-2.88,1.31-.54,3.99-1.54,4.56-3.03.28-.73.31-1.18.03-1.91-.4-1.04-.78-1.92-.94-2.87Z"/>
    <path class="st7" d="M87.02,387.94c0-1.81.05-3.61.19-5.41.16-2,1.37-3.33,2.95-4.43,2.85-1.98,6.41-4.98,7.18-8.58.39-1.84-.29-2.67-.49-4.32-.06-.49-.24-1.68.28-2.08.48-.37.79-.4,1.38-.17.35.14.61.4.91.6,2.75,1.9,2.76-2.35,2.59-3.08-.48-2.09.65-2.68,2.39-3.53,1.57-.77,2.53-1.57,2.49-3.39-.02-1,.14-1.85.43-2.8.58-1.96,2.73-2.32,4.28-3.16.6-.33,4.54-1.97,2.48-2.88-.55-.24-1.17-.49-1.49-1.03-.58-1,.48-2.01.97-2.76,1.34-2.07-2.03-2.05-3.15-2.71-.95-.56-2.04-1.73-2.85-.08-.43.87-1.58,1.63-2.47.76-1.19-1.15-1.72-2.35-3.64-2.22-.44.03-1.3-.28-1.51-.71-.21-.45-.37-.79-.12-1.29.11-.21,1-1.54.6-1.72-.54-.23-1.17-.25-1.74-.23-1.58.05-3.12.21-4.7.17-.49,1.38-1.16,2.64-1.69,4.01-.18.47-.12.94-.08,1.43.1,1.38.63,2.62.25,4.06-.54,2.03-1.46,4.03-2.37,5.91-1.7,3.52-4.16,6.31-7.08,8.84-.96.83-2.24,3.38-3.62,3-.37-.1-1.32-.7-1.69-.26-.44.52-.49,1.39-.66,2.02-.36,1.34-1.43,2.38-1.96,3.64-.26.62-.57,1.4-.19,2.04.21.36.56.61.88.87,1.03.83.6,1.71.36,2.77-.1.44.33.73.72.55,1.18,0,1.95.52,2.29,1.57.13.96,0,1.88-.34,2.75-.39,1.19-1.05,2.34-1.6,3.45-1.17,2.35-2.52,4.35-4.24,6.33-.89,1.04-2,.85-1.76,2.33.16,1,1.62,1.4,2.43,1.44.63.03,1.35-.35,1.92-.57,1.47-.56,2.33.15,3.18,1.23.88,1.12,2.39,1.52,3.77,1.62,1.38.1,2.75-.03,4.12-.12.02-1.3.39-2.55.4-3.87Z"/>
    <path class="st7" d="M329.46,395.49c-2.79-1.64-5.61-3.72-8.56-5.03-1.43-.63-6.1-1.17-4.64-4.24.36-.75,1.19-1.29,1.41-2.11.42-1.54-1.08-1.97-2.34-2.18-1.23-.2-2.73.32-3.94.4-1.84.12-4-1.9-5.2-3.05-.86-.82-1.31-2.06-2.3-2.76-1.52-1.09-2.92-1.5-3.63-3.45-1.07-2.93-1.58-6.06-2.6-9.02-.67-1.93-1.71-2.9-3.38-4.02-3.27-2.2-4.56-5.54-6.39-8.86-.65-1.19-1.86-4.46-.1-5.26.63-.29,1.08-.7,1.27-1.4.12-.43.1-.92-.24-1.26-.22-.22-2.83-3.26-1.39-3.71,1.12-.35,2.09-.49,3-1.25.46-.38,1.34-1.63,2-1.46.54.14.59.14,1.19.15.73.02,1.2-.39,1.67-.87.85-.86,1.37-.77,2.51-.62.33.04.59.12.8.22.47-1.29.51-2.59-.3-3.7-.94-1.29-.86-2.01.51-3.06,1.32-1.01-.25-2.07-.67-2.91-.02-.04-.04-.07-.06-.11-.11-.04-.24-.07-.35-.11-.33-.12-.39-.46-.28-.7-.95-.83-2.27-.65-3.72-.84-2.35-.31-3.9-.87-5.43-2.78-1.06-1.33-.61-2.44.14-3.8.73-1.32-1.9-.14-2.08-.04-.46.25-1,.46-1.44.74-.92.57-1.92,1.5-2.97,1.81-1.97.58-4.79.06-6.74-.37-.31-.07-.71-.12-1.09-.21-.01.7-.21,1.43-.46,2.03-.12.31-.41.44-.71.29-1.13-.52-2.72-.4-2.45,1.24.09.52.23,1.1.21,1.63-.04.79-.18,1.34-.9,1.72-.19.1-.44.09-.59-.08-.6-.66-1.08-1.49-1.75-2.08-3.35-2.97-1.82.22-3.34.13-1.12-.07-1.37-.73-1.6-1.5-.2,1.13-.13,2.36-.54,3.44-.08.2-1.19,2.38-1.34,2.5.03.03.06.06.08.09.36.4-.1,1.07-.59.76-.3-.18-.48-.38-.58-.58-1.24-1.22-2.64-2.21-3-4.02-.18-.92-1.46-2.54-1.88-1.14-.04.21-.11.4-.19.59-.34.64-.72,1.1-1.22,1.63-.96,1-3.06.73-4.24.47-1.93-.44-3.9-.35-5.82-.65-.74.85-1.78,1.52-1.63,2.8.1.86.44,2.05.24,2.93-.21.93-.66,1.63-1.47,2.18-2.12,1.44-.59,2.2.25,3.6.55.93.84,1.89.95,2.97.21,2.04.05,4.17,2.67,3.81,1.14-.15,2.84.22,2.98,1.64.2,2.11-1.49,3.42-1.7,5.4.68-.33,1.35-.68,1.97-1.02,2.29-1.25,3.64-3.64,6.47-3.96,1.34-.15,2.74.89,3.94,1.4,1.41.6,2.65,1.28,3.85,2.25,1.45,1.17,2.53,2.72,4,3.84.97.74,1.95.93,2,2.5.03.92-.71,2.04-.41,3,.44,1.4,1.25,2.29,1.23,3.81-.03,1.26.22,3.88,2.07,2.79.04-.03.07-.06.1-.09,2.55,4.7,6.88,7.57,10.12,11.76,1.68,2.17,3.81,3.96,5.43,6.15,1.37,1.85,2.36,3.9,4.08,5.48.48.44,1.1.84,1.7,1.06,1.4.52,3.32.11,4.29,1.56.55.83.39,1.79,1.04,2.61.54.68,1.3,1.88,2.23,2.1.96.22,1.89.18,2.87.19,2.09,0,1.02,1.73.69,2.76-.49,1.51.91,2.41,2.12,2.74,1.21.33,2.22.5,3.25,1.28,1.23.94,2.94,1.1,3.89,2.36.92,1.21.92,3.21,1.06,4.62.14,1.36.62,2.6,1.13,3.86.74,1.8,1.09,3.28.08,5.12-.66,1.18-1.8,1.75-2.4,2.91-.55,1.07.78,1.94-.04,3.24-.4.64-1.22,1.27-1.32,2.06-.34,2.78,4.2.61,5.13-.24,1.04-.96,2.66-2.73,2.66-4.26,0-2.14.47-2.87,2.2-3.96,1.33-.84,1.98-.3,3.12.34.28.16.62.01.71-.29.65-2.06-.29-5.11-.77-7.16-.14-.61-.67-1.25-1.26-1.5-.67-.28-1.32-.39-2.02-.56-1.93-.46-.48-2.64.21-3.64.91-1.31,1.45-2.79,2.24-4.16,1.62-2.79,5.55-1.62,6.89.74.59,1.03.9,2.04,2.04,2.54,1.08.47,1.76,1.46,2.82,1.9.25.1.53-.11.6-.34.54-1.81.37-4.73-.38-6.47-1.14-2.63-3.31-3.82-5.69-5.23Z"/>
    <path class="st7" d="M337.64,375.86c0-.6.22-1.3.15-1.95-.14-.1-.17-.27-.1-.49.01-.04.05-.07.06-.11-.2-.69-.61-1.27-1.5-1.53-1.62-.47-3.4-1.03-4.77-2.05-1.26-.94-2.37-2.07-2.94-3.57-1.02-2.67-1.7-4.87-3.84-6.9-1.35-1.29-2.59-2.61-3.14-4.44-.44-1.47-.73-3.01-1.95-4.09-.62-.55-1.33-1.04-1.9-1.65-1.77-1.84-3.35-5.21-.94-7.15,3.03-2.44,7.32-1.13,10.53.03,1.39.5,2.74,1.22,4.27,1.02,1.01-.13,2-.16,3.02-.13,1.84.05,3.74,0,5.33,1.02.4.25.82.67.94,1.15.3,1.13,1.19.93,2.16.9.54-.02,1.26.34,1.56.03.42-.44,1.06-.75,1-1.48-.23-2.47-2.41-1.39-3.36-3.01-.57-.97-.45-2.39-.29-3.69-.22.13-.46.24-.72.3-1.36.33-2.08-1.43-3.66.02-2.34,2.14-4.07-.8-5.6-2.28-1.66-1.6-3.47-2.95-5.46-4.1-.87-.5-1.4-.99-1.79-1.83-.88.5-2.3.88-3.26.54-.71-.25-1.77-1.21-2.49-1.16-.82.06-1.68.25-2.44.56-1.4.58-.84,2.56-2.37,3.27-1.92.89-1.82,2.29-3,3.82-.41.53-1.12.75-1.75.46-.64-.3-1.07-.71-1.57-1.2-1.48-1.47-2.21,1.16-2.22,2.19,0,.26-.22.5-.49.49-1.3-.04-2.64-.16-3.9-.51-.58-.17-1.42-.65-2.13-.88-.23.78-.73,1.64-.96,2.29-.33.91-.5,1.67-.33,2.62.39,2.19,3.65,3.27,2.79,5.77-.2.57.58.78.89.38.95-1.24,1.19-2.9,1.65-4.37.49-1.58,1.61-4.98,4.03-1.76.59.78,1.03,1.83,1.51,2.69,1.12,1.99-1.89,4.17-.5,5.84.49.59,1.03.9,1.69,1.26.58.21.93.63,1.06,1.23.02.17-.11,1.57-.44,1.33-.41-.28-.92.27-.67.67.93,1.46,2.06,2.54,3.47,3.53,1.36.95,2.51,1.83,3.5,3.18.4.54.6,1.51,1.11,1.96.62.54,1.53.7,2.16,0,.89-.96,1.59-1.73,3.05-.87.94.55,1.57,1.41,2.28,2.2,1.02,1.13,1.96,2.19,2.46,3.66.2.59.4,1.29.86,1.74,1.23,1.21,2.66.88,4.24,1.22,1.3.28,2.29,1.68,3.27,2.5.52.44.85.9,1.42,1.36h0Z"/>
    <path class="st7" d="M347.12,356.53c-1.27-.45-2.1-1.08-2.21-2.72-.08-1.17-.12-2.37.1-3.53.2-1.08.56-2.42.33-3.57-.39.31-.85.47-1.34.32-.84-.26-3.16.37-3.72-.59-1.12-1.9-1.73-2.44-4.05-2.56-1.05-.05-2.13-.14-3.18-.07-2.4.16-3.73-.12-6-.92-2.19-.77-4.75-1.83-7.11-1.24-1.68.42-4.07,1.14-3.32,3.62.35,1.17.86,2.28,1.78,3.11,1.11,1,2.59,1.91,3.19,3.35.54,1.29.68,2.88,1.42,4.07.65,1.04,1.49,1.93,2.38,2.76,1.12,1.05,2.2,2.1,2.77,3.56,1.08,2.71,1.58,5.59,4.39,7.12,1.65.9,3.55,1.15,5.17,2.02.25.13.45.28.62.43.28-.64.65-1.22,1.29-1.69.33-.25,2.57-1.83,2.4-2.33-.14-.39-.3-.8-.3-1.22,0-1.57,1.69-1.58,2.95-1.5-.64-1.42-1.28-3.32.93-3.23,1.9.08.72-3,.85-4.13.05-.45.32-.8.65-1.09Z"/>
    <path class="st7" d="M302.64,213.96c-1.71-.05-3.72-.25-5.3-.95-.57-.25.23-3.57-.68-4.42-.7-.66-2.14-.72-2.95-.29-.89.47-1.6,1.55-2.39,2.25,0,0-.01,0-.02-.01-2.16-.51-4.08,2.17-5.14,3.67-.17.25,0,.66.29.72,1.97.37,2.17,1.15,2.37,2.89.12,1.03.62,1.79,1.16,2.65,1.26,2.02,4.81,1.62,6.75,2.21,1.32.41,2.65,1.17,3.83,0,2.26-2.25,1.74-5.19,2.55-8.09.09-.31-.16-.61-.47-.62Z"/>
    <path class="st7" d="M369.45,183.74c-.54-.86-1.38-.89-2.21-.64-.08-.08-.19-.14-.35-.13-2.67.16-4.35,2.4-6.08,4.16-.17.17-.21.52,0,.69,2.52,1.98,5.59,3.34,7.63.04.6-.97,1.74-2.94,1-4.12Z"/>
    <path class="st7" d="M367.95,179.53c.1-.35.08-.74-.1-1.08-.16-.31-.43-.49-.74-.58-1.71-1.61-5.21-.75-6.38,1.34-.18.32.05.73.42.73.58,0,.49.2,1,.55.59.4,1.16.55,1.87.6,1.25.08,2.41.06,3.41-.77.25-.21.42-.48.51-.78,0,0,0,0,0,0Z"/>
  </g>
  <g id="france">
    <path class="st11" d="M244.66,349.89c.45-.99,1.4-2.06,1.56-3.14.35-2.38-2.85-1-3.79-1.27-.61-.18-.88-.43-1.22-.95-.78-1.18-.41-3.32-.73-4.61-.34-1.38-1.47-2.04-1.96-3.21-.98-2.33.55-2.38,1.79-3.93,1.53-1.92-.88-4.75,1.13-6.41.25-.2.43-.37.55-.52-.03,0-.06-.01-.09-.02-.59-.16-.35-1.07.23-.94-.1-.23-.25-.51-.38-.93-.26-.85-.22-1.62-.28-2.5-.19-2.78-3.94.78-5.27.21-1.83-.8-1.22-2.56-.53-3.82.86-1.57.96-2.66,2.34-3.81,1.19-.98,2.45-1.56,3.42-2.84.56-.73,1.01-1.18,1.88-1.56.31-.13,1.9-.68,1.79-.97-.11-.3-.35-.76-.33-1.1.1-1.78,2.36-1.23,3.57-1.25,1.76-.02,1.18-2.61,1.47-3.75.31-1.26.69-2.5,1.29-3.65,1.06-2.03,2.51-5.29,4.67-6.42.28-.15.55-.29.83-.43-.15-.59-.3-1.19-.46-1.79-.61,0-.86-.02-1.5-.2-1.28-.37-2.58-.72-3.7-1.45-.73-.47-1.22-1.2-2.03-1.57-.55-.25-1.19-.46-1.71-.79-.53-.34-1.18-.75-1.29-1.44-.04-.26-.23-2.62-1.44-1.21-.18.21-.42.57-.69.68-.44.2-.94.39-1.41.13-2.01-1.1-2.83-3.52-5.03-4.29-1.31-.46-2.43-2.59-2.5-3.94-.08-1.29.28-2.56.19-3.84-.1-1.4-.86.92-1.03,1.14-.89,1.12-2.76,1.71-3.81.38-.65-.82-1.15-1.68-1.21-2.76-.06-1.01.06-2.78-.77-3.45-.62-.5-1.24-.73-1.92-1.08-.73-.38-1.68-.76-2.14-1.49-.24-.37-.53-.79-.61-1.24-.32-1.87-1.09-.92-1.91-1.15-1.78-.49-2.8-2.51-2.85-4.3,0-.16,0-.32,0-.49-2.06.24-4.18-.61-6.33.21-1.3.5-2.44,1.3-2.89,2.68-.33,1-.48,2-.65,3.03-.35,2.22-2.69,3.18-4.57,3.84-1.51.53-2.64.06-4.13.03-.72-.02-1.47.02-2.03.55-.52.49-.84,1.01-1.15,1.65-1.12,2.3-2.89,2.71-5.17,1.5-1.53-.81-2.89-1.69-3.76-3.23-.25-.44-.47-.56-.86-.6.02-.07.02-.15,0-.23-.54-2.17-.21-2.86-2.62-2.98-.85-.04-3.76-1.02-3.49.95.21,1.54.95,2.78,1.05,4.38.11,1.95-1.25,3.53-1.86,5.26-.24.67-.38,2.14-1.18,2.44-.61.23-1.45-.08-2.04-.24-1.84-.49-4.1-.9-5.22-2.57-.99-1.47-1.51-3.25-3.33-3.86-.58-.2-1.16.02-1.68.26-.83.37-1.07,1.21-2.36.51-.66-.36-1.23-.71-1.93-.98-2.26-.88-8.96-1.27-7.29,2.69.67,1.58,1.15,2.62.62,4.4-.27.92-.18,1.84.04,2.76.09.4.6,1.06,1.03,1.13,1.97.32,3.16.82,4.53,2.36.63.71,1.11,2.02,1.93,2.54,1,.63,2.17.48,3.25.99,1.07.5.56,2.24,1.39,2.95,1.52,1.3,3.85,1.48,2.54,4.43-.76,1.71-1.07,3.87-.15,5.58.42.78,1.39,1.33,2.05,1.89,1.57,1.34,2.17,3.44,2.29,5.42.34,5.8-3.62,11.64-5.72,16.85-1.57,3.89-3.08,7.84-5.21,11.47-.4.67-.91,1.16-1.5,1.49.99.79,1.89,1.78,2.39,2.91.51,1.15.54,2.21,1.8,2.89.65.35,1.31.71,1.88,1.19,1.99,1.7,4,3.22,6.08,4.81,1.8,1.38,3.74,1.3,5.78,1.65-.46-1.25-2.49-3.53-.01-3.67,1.07-.06,2.38,1.02,3.18,1.6,1.2.86,2.68,1.05,3.79,2.08.37.35.48,1,.49,1.46,0,1.16.37,3.21,1.29,4.07,1.59,1.49,3.89,1.5,5.93,1.73,1.94.22,3.88.29,5.72.95.02-.34.06-.7.15-1.08.31-1.25.85-2.44,1.2-3.68.5-1.75.6-3.63,2.97-3.8.11,0,.2-.05.27-.11-.05.28.09.59.45.54.65-.08,1.08-.11,1.68-.41,1.9-.93,3.28-1.27,5.36-.76.62.15,1.32.52,1.98.43.42-.03.82-.11,1.22-.25,1.66-.46,1.29.64,1.32,1.36.03.81.73,1.14,1.41,1.18.5.03,1.12-.29,1.57-.45,2.11-.72,2.12,1.21,2.47,2.52.37,1.34,1.34,1.59,2.62,1.86,2.08.44,2.87,1.94,5.16,1.24,1.57-.48,2.7-1.57,3.83-2.69,1.89-1.88,5.04-1.85,7.49-2.33.88-.17,1.77-.48,2.64-.85-.09-.68-.08-1.35.21-2Z"/>
    <text class="st10" transform="translate(84.95 294.91)"><tspan x="0" y="0">France</tspan></text>
    <g>
      <line class="st4" x1="124.66" y1="294.91" x2="127.66" y2="294.91"/>
      <line class="st2" x1="133.61" y1="294.91" x2="166.29" y2="294.91"/>
      <line class="st4" x1="169.26" y1="294.91" x2="172.26" y2="294.91"/>
    </g>
  </g>
  <g id="british">
    <path class="st8" d="M184.53,218.58c-.77-.48-1.43-1.15-2.2-1.64-.4-.25-.89-.39-1.33-.53-1.29-.41-1.38-1.23-1.86-2.21-.19-.39-.78-.27-.89.12-.42,1.47-.8,2.64-1.67,3.9-.82,1.18-1.62,2.39-2.44,3.59-.17.24,0,.67.29.71,1.48.25,4.15-.17,3.71,2.24-.51,2.77-2.91,3.81-5.42,4.09-1.37.16-4.06-.29-4.91,1.21-.86,1.52.49,3.29,1.51,4.42.75.82,2.05,1.14,3.03,1.58,1.21.55,1.42,2.25,2.23,3.23,1.52,1.85,5.32,1.35,7.33,1.3,1.56-.04-.44,1.38-.39,1.33-1.26,1.04-2.33,1.84-4.07,1.21-1.13-.41-2.76-1.74-4.03-1.62-2.51.25-5.59.56-7.64,2.2-1.38,1.1-2.53,2.4-3.76,3.66-.82.84-2.3.83-3.37,1.02-1.27.23-2.08.94-3.46.84-.37-.03-.61.43-.42.73.88,1.42,2.23,3.51,4.02,3.81.49.08.88-.4,1.19-.7,1.39-1.33,2.6-2.61,4.61-.91,1.29,1.09,4,2.65,5.8,2.21,2.55-.62,2.14-3.7,4.49-4.63.04.01.07.03.11.03,1.64.09,4.46-.34,4.83,2.15.07.47.23,1.07.68,1.33.41.24.81.1,1.22-.03,1.36-.44,2.22-.53,3.55,0,1.77.7,2.39.53,3.89-.47.96-.64,5.6,2.71,6.24,3.01,1.43.67,3.73.58,5.27.77,1.5.18,4.43,1.17,5.79-.03,1.25-1.1,2.2-2.14,4.05-1.93.36.04.85-.14,1.11-.4.44-.44.76-1.17.63-1.78.03-.04.06-.07.08-.12.46-1.17-.44-1.49-1.47-1.51-.66-.01-.96.01-1.7-.13-2.91-.56-.35-3,.6-3.57,1.41-.84,3.05-2.43,4.59-2.85,2.06-.56,2.59-2.15,3.19-4.05.59-1.88,2.54-4.89.61-6.7-1.45-1.36-3.56-2.26-5.53-2.49-1-.12-1.87.48-2.66.98-1.8,1.14-.52-3.31-.76-3.03.37-.67.99-1.28,1.41-1.92,1.42-2.15-.95-4.42-1.01-6.55-.06-2.39,2.09-5.82-.06-7.94-1.02-1-1.55-1.86-2.2-3.18-.8-1.64-2.66-2.02-2.13-4.37.66-2.91.31-6.37.06-9.34-.16-1.91-1.79-3.53-3.27-4.58-1.15-.81-2.69-1.18-3.95-1.74-.68-.3-1.35-.65-2.03-.99-.21-.11-1.66-1.12-1.46-1.14,1.11-.1,2.33.34,3.49.27,1.08-.06,2.13-.46,3.04-1.03.21-.13.47-.54.36-.81-.53-1.34-.03-1.3,1.26-1.62,2.19-.55,4.27-2.3,5.54-4.1.9-1.27,1.21-2.7,2.33-3.86.47-.48,1.56-1.15,1.56-1.94,0-1.86-3.31-3.07-4.78-3.46-1.87-.49-3.85-.44-5.73-.87-.71-.16-1.43-.29-2.15-.43-.17-.04-2.67.26-1.51-1,.7-.75,1.55-1.11,2.15-1.94.13-.19.15-.46.18-.69.17-1.26,2.74-1.48,3.64-1.7,1.07-.26,2.63-.72,3.44-1.53.85-.85.66-1.96.9-3.03.05-.24-.07-.55-.34-.6-1.6-.26-3.07.4-4.72.11-2.19-.39-4.12-1.96-5.87-3.19-1.32-.93-2.32.93-2.71,1.86-.74,1.77-1.4,2.26-2.95,3.5-.82.65-1.78,1.11-2.83,1.07-.22-.01-.46.17-.61.31-.55.55-.25,1.57-.06,2.18.54,1.7-1.68,2.95-2.06,4.58-.55,2.38-1.22,3.1-3.46,3.79-.82.25-1.18.63-1.29,1.48-.11.83.58,3.02,1.74,2.79.29-.06.56-.13.83-.26.28-.13.55-.27.82-.42.81-.59,1.21-.06,1.22,1.59-.91,1.65-2.77,2.75-3.96,4.18-.84,1-1.18,2.33-1.55,3.56-.46,1.5-2.22,1.89-2.55,3.48-.07.33.23.74.6.6,1.71-.66,2.97-2.3,3.82-3.86.79-1.45,2.13-1.3,3.03-.09.89,1.19-.63,2.12-.86,3.07-.2.81-.23,1.03-.34,1.85-.26,2-1.27,1.8-2.31,2.67-.91.77-2.49,3.82-1.42,4.95.59.63,1.61.67,2.41.86,1.63.4,2.07,1.65,3.34,2.37.54.31,1.34.09,1.9-.04.47.73.94,1.45,1.41,2.18-.17.13-.32.28-.44.44-.25.33-.57.73-.55,1.18.02.65.09,1.27.68,1.67.91.62,1.15.61,1.63,2.13.02.07.81,3.28-.4,3.1-.57-.08-1.22.4-1.49.87-.83,1.42.5,2.56-.86,4.08-.78.87-2.42,1.77-3.58,1.04Z"/>
    <text class="st10" transform="translate(84.52 180.87)"><tspan x="0" y="0">Great Britain</tspan></text>
    <g>
      <line class="st4" x1="152.52" y1="180.87" x2="155.52" y2="180.87"/>
      <line class="st0" x1="161.18" y1="180.87" x2="181.01" y2="180.87"/>
      <line class="st4" x1="183.84" y1="180.87" x2="186.84" y2="180.87"/>
    </g>
  </g>
  <g id="netherlands">
    <path class="st12" d="M227.38,255.76c-.04,1.43.34,3.12,2.49,2.67.44-.09,1.1-.29,1.55-.21,1.61.29,2,.69,3.58-.29.72-.46,1.13-.37,1.91-.05,1.39.57,2.69-.25,4.07.29,1.14.45,1.79,1.64,2.97,2.15.81.35,1.1.74,1.22,1.61.06.47,0,.83-.17,1.26-.48,1.15.84,1.42,1.43.46,1.14-1.85,1.69-3.45,1.82-5.62.1-1.7.31-3.66,1.85-4.66.47-.3,1.33-.29,1.82-.04,1.94,1.02,2.05-2.27,2.45-3.42.6-1.73,1.6-2.24,1.13-4.36-.15-.69.44-1.23.91-1.62,2.03-1.69,3.15-4,2.08-6.51-.1.31-.19.63-.26.94-.51-1.44-1.12-3-2.83-3.01-1.49-.01-3.63,1.21-5,.71-1.05-.39-2.07.03-2.99.51-1.84.96-2.17,2.77-1.32,4.44,1.01,1.97.2,2.93-1.23,4.02-.07.05-2.54,2.02-2.21.45.28-1.36.79-2.65,1-4.03.21-1.35-.32-2.76-1.79-2.91-1.53-.16-2.79,2.47-3.32,3.51-.48.95-.75,2-1.11,3-.87,2.4-2.76,2.57-4.23,4.35-1.36,1.64,1.11,2.48,1.94,3.82-2.38.34-4.7,1.14-6.87,2.17-.29.14-.57.27-.85.39Z"/>
    <text class="st10" transform="translate(84.95 145.49)"><tspan x="0" y="0">Netherlands</tspan></text>
    <g>
      <line class="st4" x1="152.52" y1="145.49" x2="155.52" y2="145.49"/>
      <line class="st1" x1="161.49" y1="145.49" x2="230.14" y2="145.49"/>
      <polyline class="st4" points="233.13 145.49 236.13 145.49 236.13 148.49"/>
      <line class="st3" x1="236.13" y1="154.19" x2="236.13" y2="242.5"/>
      <line class="st4" x1="236.13" y1="245.35" x2="236.13" y2="248.35"/>
    </g>
  </g>
  <g id="belgium">
    <path class="st6" d="M220.45,260.47c.6,1.3,2.32,1.09,3.46,1.74,1.09.62.21,2.12,1.76,2.96,1.73.94,3.98,1.57,4.17,3.88.06.77-.05,1.89.21,2.6.73,2.06,2.75,2.34,3.67-.04.24-.62.46-.97.99-1.37.16-.12.46-.07.59.08,2.37,2.79-1.59,7.36,3.19,8.86,1.3.41,1.5,1.54,2.49,2.42.74.66,1.73,2.47,2.8,1.33.23-.24.49-.55.83-.64.07-.02.14-.03.21-.04-.07-.28.08-.61.45-.61.48.01,1-.88.87-1.29-.16-.5-.61-.63-.93-.99-.42-.48-.68-1.01-.75-1.67-.15-1.36-.12-2.85.16-4.24-.11.07-.22.13-.35.19-1.23.58-1.51,1.58-1.79,2.75-.19.81-1.92,2.95-1.56,3.59.31.55-.54,1.04-.84.49-.51-.92-.02-1.7.54-2.5.83-1.17.46-3.06,1.44-4.02,1.52-1.48,3.39-1.75,3.39-4.33,0-1.2-.15-2.39-.23-3.58-.8.17-1.59-.15-1.58-1.3,0-.71.19-1.13.42-1.81.56-1.71-.55-1.69-1.51-2.17-1.46-.72-.85-2.18-3.54-1.7-.56.1-1.13.25-1.69.02-1.2-.49-1.65-.42-2.7.51-.2.17-.46.33-.73.35-.33.03-.57.03-.88-.14-1.21-.63-2.2-.55-3.54-.33-2.06.34-2.93-1.6-3.03-3.33-.94.34-1.88.57-3.01.66-1.01.08-2.13.21-3.05.66-.2.1-.4.17-.59.24.09.98.3,1.91.69,2.76Z"/>
    <text class="st10" transform="translate(84.95 261.06)"><tspan x="0" y="0">Belgium</tspan></text>
    <g>
      <line class="st4" x1="132.68" y1="261.06" x2="135.68" y2="261.06"/>
      <line class="st5" x1="142.13" y1="261.06" x2="216.24" y2="261.06"/>
      <line class="st4" x1="219.46" y1="261.06" x2="222.46" y2="261.06"/>
    </g>
  </g>
</svg>