<?xml version="1.0" encoding="UTF-8"?>
<svg id="Layer_1" xmlns="http://www.w3.org/2000/svg" version="1.1" viewBox="0 0 179.5 105.6">
  <!-- Generator: Adobe Illustrator 29.0.1, SVG Export Plug-In . SVG Version: 2.1.0 Build 192)  -->
  <defs>
    <style>
      .st0, .st1 {
        font-family: ArialMT, Arial;
        font-size: 99.4px;
      }

      .st0, .st1, .st2, .st3 {
        isolation: isolate;
      }

      .st0, .st4 {
        fill: #fff;
      }

      .st1 {
        fill: none;
        stroke-miterlimit: 10;
      }

      .st1, .st4 {
        stroke: #000;
      }

      .st4 {
        stroke-linecap: round;
        stroke-linejoin: round;
        stroke-width: 5px;
      }

      .st3, .st5 {
        display: none;
      }
    </style>
  </defs>
  <g id="Layer_11" class="st5">
    <g class="st3">
      <g class="st3">
        <g class="st3">
          <g class="st3">
            <text class="st0" transform="translate(-1527.1 -768.3)"><tspan x="0" y="0">Map</tspan></text>
          </g>
        </g>
      </g>
      <g class="st3">
        <g class="st3">
          <g class="st3">
            <text class="st1" transform="translate(-1527.1 -768.3)"><tspan x="0" y="0">Map</tspan></text>
          </g>
        </g>
      </g>
    </g>
  </g>
  <g id="Back">
    <g id="Back1">
      <polygon class="st4" points="2.5 52.8 57.3 102.8 57.3 76.9 177 76.9 177 28.6 57.3 28.6 57.3 2.7 2.5 52.8"/>
      <g class="st2">
        <g class="st2">
          <g class="st2">
            <g class="st2">
              <g class="st2">
                <path d="M83,65.3h-9.8v-26h9.3c4.5,0,7.6,2.8,7.6,6.8s-1.5,4.9-4.1,5.8c3.2,1,4.7,3.6,4.7,6.5s-3.2,6.9-7.8,6.9ZM77,50.5h5.2c2.4,0,4.1-1.8,4.1-4s-1.6-4-4.2-4h-5.1v7.9ZM86.8,57.8c0-2.3-1.7-4.1-4.2-4.1h-5.7v8.2h5.6c2.7,0,4.3-1.8,4.3-4.1Z"/>
                <path d="M100.8,39.3h4.9l8.7,26h-4.1l-2-6.6h-10.1l-2.1,6.6h-4l8.7-26ZM99.3,55.4h7.9l-3.9-12.4h-.1l-3.9,12.4Z"/>
                <path d="M136.7,46.2c-1.7-2.5-4.6-4.1-7.9-4.1-5.4,0-9.4,4.3-9.4,10.1s3.9,10.1,9.4,10.1,6.1-1.6,7.9-4.1l2.5,2.3c-2.3,3.3-5.9,5.3-10.4,5.3-7.9,0-13.3-5.7-13.3-13.6s5.6-13.6,13.3-13.6,8.3,2,10.5,5.3l-2.6,2.2Z"/>
                <path d="M142.8,39.3h3.8v11.5c.7.1,1.5.1,2.3.1,4.5,0,7.6-2.9,7.6-7.7s0-2.7-.1-3.9h3.8c0,1.2.1,2.6.1,3.7,0,5.2-2.4,8.9-6.7,10.5l7.9,11.8h-4.7l-7.2-11c-.4,0-.8,0-1.1,0-.6,0-1.3,0-1.9-.1v11.1h-3.8v-26Z"/>
              </g>
            </g>
          </g>
        </g>
      </g>
    </g>
  </g>
</svg>