<?xml version="1.0" encoding="UTF-8"?>
<svg xmlns="http://www.w3.org/2000/svg" version="1.1" viewBox="0 0 1920 1080">
  <!-- Generator: Adobe Illustrator 29.0.1, SVG Export Plug-In . SVG Version: 2.1.0 Build 192)  -->
  <defs>
    <style>
      .st0 {
        font-family: Cy-Black, Cy;
        font-weight: 800;
      }

      .st0, .st1, .st2 {
        letter-spacing: .2em;
      }

      .st3 {
        letter-spacing: .2em;
      }

      .st3, .st1 {
        font-family: Cy-SemiBold, Cy;
        font-weight: 600;
      }

      .st4, .st5 {
        stroke-width: 5px;
      }

      .st4, .st5, .st6, .st7 {
        fill: #fff;
      }

      .st4, .st5, .st7 {
        stroke: #000;
      }

      .st4, .st7 {
        stroke-miterlimit: 10;
      }

      .st5 {
        stroke-linecap: round;
        stroke-linejoin: round;
      }

      .st8 {
        font-size: 67.58px;
      }

      .st2 {
        font-family: Cy-SemiLight, Cy;
        font-weight: 300;
      }

      .st7 {
        font-size: 99.4px;
      }

      .st9 {
        display: none;
      }
    </style>
  </defs>
  <g id="Layer_1" class="st9">
    <text class="st7" transform="translate(-656.88 -255.28)"><tspan x="0" y="0">Map</tspan></text>
  </g>
  <g id="Geography">
    <g id="Biography">
      <rect class="st5" x="139.15" y="92.75" width="1641.7" height="838.65"/>
      <line class="st5" x2="139.15" y2="92.75"/>
      <line class="st5" x1="1920" x2="1780.85" y2="92.75"/>
      <line class="st5" x1="1920" y1="1080" x2="1780.85" y2="931.4"/>
      <line class="st5" x1="139.15" y1="931.4" y2="1080"/>
      <rect class="st5" x="161.8" y="144.29" width="1591.08" height="761.16"/>
      <g id="Gallery_screen_1">
        <rect class="st5" x="181.58" y="166.93" width="1548.22" height="717.78"/>
      </g>
      <g>
        <path d="M67.14,73.27c0,.35.11.67.26.97-5.31,4.07-8.74,9.96-9.65,16.59-.91,6.67.83,13.31,4.9,18.67l27.9,36.75c.29.38.7.59,1.12.72.52.92,1.12,1.79,1.85,2.57,2.85,3.09,6.92,4.73,11.66,4.73.93,0,1.89-.07,2.87-.19,5.69-.74,11.47-3.6,16.29-8.04,9.74-8.98,12.59-21.91,6.75-29.5-.07-.27-.19-.54-.37-.78l-27.9-36.75c-4.59-6.05-11.4-9.41-18.43-9.88v-36.88c13.36-1.76,22.26-7.77,22.26-15.17,0-8.81-13.66-15.71-31.09-15.71-17.43,0-31.09,6.9-31.09,15.71,0,7.77,8.88,13.74,22.67,15.31v40.9ZM71.44,71.72V19.21h8.65v49.99c-2.97.31-5.9,1.13-8.65,2.51ZM84.4,27.9v-10.84c0-1.19-.96-2.15-2.15-2.15h-12.95c-1.19,0-2.15.96-2.15,2.15v10.97c-10.86-1.34-18.37-5.78-18.37-10.97s11-11.41,26.79-11.41c15.79,0,26.79,6.01,26.79,11.41,0,4.9-7.46,9.33-17.96,10.84ZM96.69,146.63c-2.44-2.65-3.26-6.57-2.3-11.04,1.02-4.75,3.87-9.48,8.05-13.32,5.05-4.65,11.07-7.12,16.21-7.12,3.42,0,6.46,1.09,8.55,3.37,5.24,5.68,2.66,16.61-5.75,24.37-4.17,3.85-9.12,6.31-13.93,6.94-4.53.6-8.38-.54-10.82-3.19ZM70.09,77.59c9.19-6.98,22.34-5.18,29.31,4.01l22.46,29.58c-6.93-1.17-15.47,1.59-22.34,7.92-4.82,4.44-8.14,9.98-9.34,15.59-.25,1.16-.37,2.29-.43,3.4l-23.67-31.17c-6.98-9.19-5.18-22.34,4.01-29.31Z"/>
        <path class="st6" d="M71.44,71.72V19.21h8.65v50.63c-2.97.23-5.9.84-8.65,1.88Z"/>
        <path class="st6" d="M70.09,77.59c9.19-6.98,22.34-5.18,29.31,4.01l22.46,29.58c-6.93-1.17-15.47,1.59-22.34,7.92-4.82,4.44-8.14,9.98-9.34,15.59-.25,1.16-.37,2.29-.43,3.4l-23.67-31.17c-6.98-9.19-5.18-22.34,4.01-29.31Z"/>
      </g>
      <g>
        <path d="M1852.04,32.37c13.79-1.57,22.67-7.53,22.67-15.31,0-8.81-13.66-15.71-31.09-15.71-17.43,0-31.09,6.9-31.09,15.71,0,7.4,8.9,13.41,22.26,15.17v36.88c-7.04.47-13.84,3.84-18.43,9.88l-27.9,36.75c-.18.24-.3.5-.37.78-5.84,7.59-2.99,20.52,6.75,29.5,4.82,4.44,10.6,7.3,16.29,8.04.98.13,1.94.19,2.87.19,4.74,0,8.81-1.63,11.66-4.73.72-.79,1.32-1.65,1.85-2.57.43-.12.83-.33,1.12-.72l27.9-36.75c4.07-5.37,5.81-12,4.9-18.67-.91-6.64-4.34-12.52-9.65-16.59.15-.29.26-.61.26-.97v-40.9ZM1839.09,69.21V19.21h8.65v52.51c-2.76-1.38-5.69-2.21-8.65-2.51ZM1816.83,17.06c0-5.4,11-11.41,26.79-11.41,15.79,0,26.79,6.01,26.79,11.41s-7.5,9.63-18.37,10.97v-10.97c0-1.19-.96-2.15-2.15-2.15h-12.95c-1.19,0-2.15.96-2.15,2.15v10.84c-10.5-1.51-17.96-5.94-17.96-10.84ZM1811.68,149.81c-4.81-.63-9.76-3.1-13.93-6.94-8.41-7.75-10.99-18.68-5.75-24.37,2.09-2.27,5.13-3.37,8.55-3.37,5.14,0,11.16,2.47,16.21,7.12,4.17,3.85,7.03,8.58,8.05,13.32.96,4.47.14,8.4-2.3,11.04-2.44,2.65-6.29,3.78-10.82,3.19ZM1853.11,106.9l-23.67,31.17c-.06-1.11-.19-2.23-.43-3.4-1.2-5.61-4.52-11.14-9.34-15.59-6.87-6.33-15.41-9.08-22.34-7.92l22.46-29.58c6.97-9.19,20.12-10.99,29.31-4.01,9.19,6.97,10.99,20.12,4.01,29.31Z"/>
        <path class="st6" d="M1847.74,71.72V19.21h-8.65s0,50.63,0,50.63c2.97.23,5.9.84,8.65,1.88Z"/>
        <path class="st6" d="M1849.1,77.59c-9.19-6.98-22.34-5.18-29.31,4.01l-22.46,29.58c6.93-1.17,15.47,1.59,22.34,7.92,4.82,4.44,8.14,9.98,9.34,15.59.25,1.16.37,2.29.43,3.4l23.67-31.17c6.98-9.19,5.18-22.34-4.01-29.31Z"/>
      </g>
      <path class="st4" d="M1462.2,1003.33c-5.57-6.48-26.52-20.68-27.12-26.48-.34-3.22,6.3-5.57,7.41-12.36,3.37-20.71-1.08-41.41-26.54-37.65-5.65,1.33-13.17,4.96-15.19,14.83-.62,13.47,10.39,28.02,8.18,37.21-2.1,8.74-14.12,13.11-21.56,19.59-.32-2.63.63-2.76-.06-5.02-6.86-22.39-39.77-9.25-46.31-21.19-3.74-6.83,1.67-5.67,1.77-12.28.2-12.82,4.62-29.75-14.4-33.07-22.46-3.92-26.31,15.53-23.19,28.22,1.66,6.77,9.57,8.74,10.01,16.57.17,2.93-2.86,8.01-2.86,8.01-.47.11-38.82,11.13-38.89,14.03-1.19-1.65-2.08-3.54-2.55-5.78-1.69-8.07,4.61-21.66-.03-29.9-1.16-2.06-2.43-4.01-4.02-5.69h0s0,0-.01-.01c-.3-.32-.57-.66-.78-1.01-1.86-2.26-6.85-7.54-13.65-8.26-3.88-.42-9.44-.64-13.02,1.98h-.02c-15.39,14.73-.27,31.54-1.24,47.25-.19,3.1.1,6.77-2.89,8.65-1.91,1.21-23.56,15.26-22.7,26.66-6.22-2.36-9.56-9-15.84-11.24-4.69-1.67-13.83-1.06-16.01-3.61-6.53-7.65,9.22-29.12,7.91-41-1.07-9.71-7.47-16.33-14.35-23.02-1.51-.81-16.69-8.71-27.8-5.32-4.89,1.49-10.11,5.06-12.14,10.67-1.38,11.81.6,21.39,5.27,33.38,3.21,8.25,12.27,15.34,9.25,24.87-7.26,2.71-15.31,2.39-23.21,2.37,1.37-2.96,1.91-6.67.84-13.03-3.02-17.83-32.67-11.95-37.39-27.36-3-9.79,4.83-11.69,5.94-19.1,2.52-16.72,1.75-36.17-24.22-33.05-26.14,3.14-6.5,36.98-12.89,49.89-5.47,11.06-27.37,9.58-35.41,14.25-1.21.71-2.37,1.98-3.45,3.62-6.06-5.12-11.53-10.18-11.84-13.1-.34-3.22,6.3-5.57,7.41-12.36,3.37-20.71-1.08-41.41-26.54-37.65-5.65,1.33-13.17,4.96-15.19,14.83-.62,13.47,10.39,28.02,8.18,37.21-2.1,8.74-14.12,13.11-21.56,19.59-.32-2.63-.8-5.1-1.49-7.36-6.86-22.39-38.62-12.12-45.16-24.06-3.74-6.83.71-10.98.82-17.59.2-12.82,4.35-40.33-14.67-43.65-22.46-3.92-26.05,26.1-22.93,38.79,1.66,6.77,10.52,14.06,10.96,21.88.17,2.93-.91,5.64-4.29,5.66h0c-.47.12-11.58,2.47-22.34,3.55-8.28.83-12.38,8.16-13.1,9.58-3.9,9.14-.49,19.37,2.39,29.45-8.16,0-16.51.43-24.02-2.37-3.01-9.53,6.04-16.62,9.25-24.87,4.67-11.99,6.65-21.57,5.27-33.38-2.04-5.62-7.25-9.18-12.14-10.67-11.11-3.39-26.29,4.51-27.8,5.32-6.88,6.69-13.27,13.31-14.35,23.02-1.31,11.88,14.43,33.35,7.91,41-2.18,2.55-11.32,1.94-16.01,3.61-6.28,2.24-9.62,8.88-15.84,11.24.87-11.4-20.79-25.45-22.7-26.66-2.99-1.88-2.7-5.56-2.89-8.65-.98-15.72,14.15-32.52-1.24-47.25h-.02c-3.58-2.61-9.15-2.39-13.02-1.97-6.8.72-11.79,6-13.65,8.26-.22.35-.48.69-.78,1.01,0,0,0,.01-.01.01h0c-1.59,1.68-2.87,3.63-4.02,5.69-4.64,8.24,1.66,21.83-.03,29.9-.99,4.71-3.82,7.89-7.42,10.44-8.26-7.12-21.45-16.96-21.93-21.54-.34-3.22,6.3-5.57,7.41-12.36,3.37-20.71-1.08-41.41-26.54-37.65-5.65,1.33-13.17,4.96-15.19,14.83-.62,13.47,10.39,28.02,8.18,37.21-2.1,8.74-14.12,13.11-21.56,19.59-.32-2.63-.8-5.1-1.49-7.36-6.86-22.39-38.62-12.12-45.16-24.06-3.74-6.83.71-10.98.82-17.59.2-12.82,4.35-40.33-14.67-43.65-22.46-3.92-26.05,26.1-22.93,38.79,1.66,6.77,10.52,14.06,10.96,21.88.17,2.93-.91,5.64-4.29,5.66h0c-.47.12-11.58,2.47-22.34,3.55-8.28.83-12.38,8.16-13.1,9.58-2.75,6.45-1.86,13.45-.09,20.55-4.94-3.24-9.61-6.58-10.78-11.46-1.95-8.12,7.78-20.98,7.23-32.88-1.79-8.72-8.43-11.93-13.42-13.1-22.49-3.32-26.43,14.97-23.45,33.27.98,6,6.85,8.08,6.55,10.92-.54,5.12-19.05,17.67-23.97,23.4-21.76,25.31-4.28,38.56-2.52,62.02h1011.03c-.17-29.43,23.29-44.45-2.69-74.67Z"/>
      <rect class="st5" x="248.81" y="19.21" width="1422.37" height="102.72"/>
      <text class="st8" transform="translate(556.05 91.8)"><tspan class="st3" x="0" y="0">Map </tspan><tspan class="st2" x="220.58" y="0">of</tspan><tspan class="st1" x="310.79" y="0"> </tspan><tspan class="st0" x="341.14" y="0">VAN GOGH</tspan></text>
    </g>
  </g>
  <g id="Board">
    <rect class="st5" x="181.58" y="166.93" width="1548.22" height="718.08"/>
  </g>
  <g id="Back">
    <g id="Back1" data-name="Back">
      <polygon class="st5" points="39.7 1000.41 94.51 1050.49 94.51 1024.58 214.12 1024.58 214.12 976.24 94.51 976.24 94.51 950.33 39.7 1000.41"/>
      <g>
        <path d="M116.15,1012.97h-9.79v-26.04h9.3c4.55,0,7.64,2.81,7.64,6.8,0,2.5-1.46,4.93-4.1,5.8,3.16.97,4.72,3.65,4.72,6.49,0,3.82-3.16,6.94-7.78,6.94ZM110.18,998.18h5.21c2.4,0,4.06-1.77,4.06-3.96s-1.6-3.99-4.2-3.99h-5.07v7.95ZM120.04,1005.5c0-2.26-1.7-4.13-4.17-4.13h-5.69v8.23h5.55c2.67,0,4.3-1.8,4.3-4.1Z"/>
        <path d="M134.38,986.93h4.93l8.68,26.04h-4.1l-2.05-6.56h-10.1l-2.08,6.56h-3.96l8.68-26.04ZM132.81,1003.04h7.95l-3.89-12.36h-.14l-3.92,12.36Z"/>
        <path d="M170.65,993.88c-1.74-2.53-4.65-4.1-7.95-4.1-5.45,0-9.37,4.27-9.37,10.14s3.92,10.14,9.37,10.14c3.3,0,6.14-1.56,7.88-4.06l2.53,2.26c-2.26,3.26-5.87,5.28-10.41,5.28-7.88,0-13.3-5.73-13.3-13.57s5.62-13.57,13.3-13.57c4.55,0,8.3,2.05,10.55,5.31l-2.6,2.19Z"/>
        <path d="M177.08,986.93h3.82v11.49c.69.14,1.53.14,2.29.14,4.55,0,7.64-2.88,7.64-7.74,0-1.21-.03-2.71-.1-3.89h3.82c.07,1.25.1,2.6.1,3.75,0,5.21-2.43,8.89-6.7,10.48l7.88,11.8h-4.65l-7.22-11c-.38.03-.76.03-1.15.03-.62,0-1.28-.03-1.91-.1v11.07h-3.82v-26.04Z"/>
      </g>
    </g>
  </g>
</svg>