<?xml version="1.0" encoding="UTF-8"?>
<svg id="Layer_1" xmlns="http://www.w3.org/2000/svg" version="1.1" viewBox="0 0 60.01 42.92">
  <!-- Generator: Adobe Illustrator 29.0.1, SVG Export Plug-In . SVG Version: 2.1.0 Build 192)  -->
  <defs>
    <style>
      .st0 {
        fill: #fff;
      }
    </style>
  </defs>
  <path class="st0" d="M15.91,40.53c4.07.46,8.93-.34,13.08,0,.26-3.65-5.95-1.71-6.74-2.79-1.18-1.62.89-1.81,1.62-2.2,1.28-.69,1.82-1.33,2.35-2.69,2.14-5.44-1.69-11.75-7.8-11.04v-2.16c7.47-.71,12.31,6.92,9.96,13.68-.37,1.05-1.12,1.88-1.55,2.88,2.51-.25,4.14,2,4.34,4.3,1.47,0,2.96.08,4.43.03.57-.02,1.09-.25,1.66-.26,5.44-.11,13.09.69,18.19-.05,2.36-.34,2.51-1.49,2.34-3.65-.2-2.57-1.97-5.71-3.6-7.68-.74-.9-5.14-4.75-5.24-5.1-.19-.71.77-1.83,1.04-2.71,2.83-9.16-12.55-11.1-11.89-1.31.19,2.88,2.27,3.46,2.61,4.6s-.6,1.87-1.63,1.39c-2.35-1.1-4.01-6.89-2.65-9.23-6.33-2.46-15.61-5.62-22.37-4.02-14.72,3.49-13.26,26.31,1.85,28.01Z"/>
  <path d="M2.11,21.33l1.07-2.41c2.35-4.64,7.19-8.46,12.48-8.88,7.02-.56,15.01,1.85,21.41,4.53.43.04,1.77-1.61,2.26-1.98,4.51-3.42,11.37-.99,12.83,4.41.65,2.4.08,4.04-.58,6.33,3.12,2.74,6.45,6.24,7.72,10.3,1.38,4.43,1.13,8.33-4.27,8.82-12.52-.71-25.74,1.07-38.17.26C-1.54,41.5-6.84,10.45,10.89,5.27c2.04-.59,7.8-.64,3.21-3.29.09-.47.14-2.04.82-1.98,1.42.14,3.1,2.21,3.05,3.68-.11,3.26-4,2.98-6.25,3.61-5.9,1.66-10.08,7.94-9.6,14.04ZM15.91,40.53c4.07.46,8.93-.34,13.08,0,.26-3.65-5.95-1.71-6.74-2.79-1.18-1.62.89-1.81,1.62-2.2,1.28-.69,1.82-1.33,2.35-2.69,2.14-5.44-1.69-11.75-7.8-11.04v-2.16c7.47-.71,12.31,6.92,9.96,13.68-.37,1.05-1.12,1.88-1.55,2.88,2.51-.25,4.14,2,4.34,4.3,1.47,0,2.96.08,4.43.03.57-.02,1.09-.25,1.66-.26,5.44-.11,13.09.69,18.19-.05,2.36-.34,2.51-1.49,2.34-3.65-.2-2.57-1.97-5.71-3.6-7.68-.74-.9-5.14-4.75-5.24-5.1-.19-.71.77-1.83,1.04-2.71,2.83-9.16-12.55-11.1-11.89-1.31.19,2.88,2.27,3.46,2.61,4.6s-.6,1.87-1.63,1.39c-2.35-1.1-4.01-6.89-2.65-9.23-6.33-2.46-15.61-5.62-22.37-4.02-14.72,3.49-13.26,26.31,1.85,28.01Z"/>
  <path d="M46.92,28.34c3.75-.86,4.46,4.33,1.33,4.94-3.42.66-4.17-4.29-1.33-4.94Z"/>
</svg>