<?xml version="1.0" encoding="UTF-8"?>
<svg id="Layer_1" xmlns="http://www.w3.org/2000/svg" version="1.1" viewBox="0 0 1920 1080">
  <!-- Generator: Adobe Illustrator 29.0.1, SVG Export Plug-In . SVG Version: 2.1.0 Build 192)  -->
  <defs>
    <style>
      .st0, .st1, .st2, .st3 {
        fill: none;
      }

      .st1 {
        stroke-width: 4.9px;
      }

      .st1, .st4, .st5, .st6, .st7, .st2, .st8, .st9, .st10, .st11, .st12, .st3, .st13 {
        stroke: #000;
      }

      .st1, .st4, .st5, .st6, .st8, .st9, .st10, .st11, .st12, .st13 {
        stroke-linecap: round;
        stroke-linejoin: round;
      }

      .st14, .st6, .st7, .st8, .st9, .st10, .st11, .st12, .st15, .st13 {
        fill: #fff;
      }

      .st14, .st2 {
        font-family: ArialMT, Arial;
        font-size: 99.4px;
      }

      .st14, .st2, .st16, .st17 {
        isolation: isolate;
      }

      .st4 {
        stroke-width: 5px;
      }

      .st5 {
        stroke-width: 6.6px;
      }

      .st6 {
        stroke-width: 2px;
      }

      .st7, .st2, .st3 {
        stroke-miterlimit: 10;
      }

      .st7, .st8, .st3 {
        stroke-width: 10px;
      }

      .st9 {
        stroke-width: 7px;
      }

      .st10 {
        stroke-width: 3.2px;
      }

      .st11 {
        stroke-width: 3px;
      }

      .st12 {
        stroke-width: 2.4px;
      }

      .st17, .st18 {
        display: none;
      }

      .st19 {
        fill: #202020;
      }

      .st13 {
        stroke-width: 1.8px;
      }
    </style>
  </defs>
  <g id="Layer_11" class="st18">
    <g class="st17">
      <g class="st17">
        <g class="st17">
          <g class="st17">
            <g class="st17">
              <g class="st17">
                <g class="st17">
                  <text class="st14" transform="translate(-656.9 874.1)"><tspan x="0" y="0">Map</tspan></text>
                </g>
              </g>
            </g>
          </g>
        </g>
      </g>
      <g class="st17">
        <g class="st17">
          <g class="st17">
            <g class="st17">
              <g class="st17">
                <g class="st17">
                  <text class="st2" transform="translate(-656.9 874.1)"><tspan x="0" y="0">Map</tspan></text>
                </g>
              </g>
            </g>
          </g>
        </g>
      </g>
    </g>
  </g>
  <g id="Reception">
    <g id="Reception1">
      <rect class="st8" x="359" y="493.6" width="1202" height="99.5"/>
      <polygon class="st8" points="401 999.7 401 593 1519.1 593 1520.8 999.7 401 999.7"/>
      <g>
        <line class="st0" x1="1863.2" y1="1021.2" x2="1167.9" y2="1021.2"/>
        <g>
          <path class="st19" d="M1167.9,1020.5c-.4,0-.2.3.8.2l.7-.3h-1.6,0Z"/>
          <path class="st19" d="M1174.7,1021.1c1.2-.2,2.6-.4,1.8-.8-1.2.3-1.5.2-2.7.6-1,0-1.8,0-1.6-.2h-2.1c1.3.3,3,.3,4.7,0,.4,0,0,.2,0,.2h0v.2h-.1Z"/>
          <path class="st19" d="M1273.3,1021.6h-.6.6Z"/>
          <path class="st19" d="M1334.4,1021.8h-.7c.4,0,.8,0,.7,0Z"/>
          <path class="st19" d="M1344.8,1022.2h-.6.6Z"/>
          <path class="st19" d="M1273.3,1021.6h1.6-1.6Z"/>
          <path class="st19" d="M1188.3,1020.3h-.9.9Z"/>
          <path class="st19" d="M1246.4,1021.9h-.9.9Z"/>
          <path class="st19" d="M1225.7,1022c.5,0,.6-.3.8-.4-.3,0-.6.2-1,.2l.2.2Z"/>
          <path class="st19" d="M1192.9,1021.5h-.6.6Z"/>
          <path class="st19" d="M1261.2,1022h.2-.2Z"/>
          <path class="st19" d="M1839.3,1019.9h0s.2,0,0,0Z"/>
          <path class="st19" d="M1863.2,1021.3h-.3v.2l.4-.2h0Z"/>
          <path class="st19" d="M1363.9,1022.5h0c-.5,0-.2,0,0,0Z"/>
          <path class="st19" d="M1539.2,1022.3c-2-.2,3.2-.3.2-.6.3,0-2.7.4-.2.6Z"/>
          <path class="st19" d="M1188.8,1020.4h.8-.8Z"/>
          <path class="st19" d="M1539.4,1021.7h-.3.3Z"/>
          <path class="st19" d="M1407.9,1022.4h-.4.4Z"/>
          <path class="st19" d="M1375.1,1022h.8-.8Z"/>
          <path class="st19" d="M1424.9,1022h1.2-1.2Z"/>
          <path class="st19" d="M1442.6,1022h-.9.9Z"/>
          <path class="st19" d="M1785.4,1020c.4,0,.6.2.8.2-.3-.2,2.3-.3-.8-.2Z"/>
          <path class="st19" d="M1188.3,1020.5h.5-.6,0Z"/>
          <path class="st19" d="M1425.7,1019.8h2.8-2.8Z"/>
          <path class="st19" d="M1658.4,1020h.7-.7Z"/>
          <path class="st19" d="M1436.8,1019.8c.5,0,1,.2,1.6.2h.3-1.9v-.2Z"/>
          <path class="st19" d="M1786.3,1020.3h0Z"/>
          <path class="st19" d="M1804.8,1019.6c-2.7,0-1.3.4-1.8.6-3.2,0-1.5-.3-2.6-.5-2,0-3.5.4-5,.4s-.4,0,0-.2c-2.1.3-6.3,0-8.7.4h-.3c.4.2.5.4.4.5-1.2,0-2.2.2-2.7,0,.7,0,.8,0,1.1-.2h-1.3c-1.1-.2,1.7,0,1.7-.3-2.5,0-5.3.4-7.2.3-.4-.3,4.4,0,1.9-.4h2.9c-2.2-.4,1.8.2-.3-.4-3.8,0-4.3.2-8.1,0-.9.2.3.3-.6.5-5.4.3-4.3-.8-8.3-.4-1,.2-1.4.7-4.3.4l1-.4c-3.7,0-2.1.5-6,.3.7-.2,2.9,0,2.3-.2-2.5-.3-1.8.2-3.7.2l-.4-.3c-3.9,0-8.3.3-12.7.4.2,0,1-.2,0-.3-5.5.2-11.8,0-17.1-.2l-2,.3c-.5,0-.9,0-.4-.2-2.1,0,0,.2-1.1.3-1.2,0-1.6-.2-.8-.3-3.7.2-10.4.5-14.3.2h.8c-3-.2-3.4.5-6.2.2h.5c-6.5-.2-13.7,0-18.7-.3-.9.4-6.4-.2-6.9.4-3.7-.3-2.7-.4-7.9-.6-1.4,0-2.1.4-3.8.4v-.3l-2.4.3-1.2-.4h-1.6c.7,0,1.4.2,1.3.3-2.5,0-6.2-.2-6.2-.4l-6,.3s1.1-.2,1.9-.2c-3.2.3-.6-.3-3.5,0,.4,0-.2.2-.3.2-1.5-.2-4.8-.2-7.2,0l.5-.2h-14.4c1.8,0,1.4.5,0,.5l-.6-.3c-.9.2,1.5,0-.4.4-1.9,0-1.2-.4-.2-.5h-2.3s.4,0,.5-.2c-.9.2-3.9-.3-5.3,0h-11.4c0,.3-1.7.2-2.9.5-3,0-6.3-.3-9.9-.3s-.7.2-1.9.4c-.2-.3-3.8-.2-1.9-.4-4.3,0-5.5,0-11,.3.6,0,1.3.2.9.2-1,0-2.3,0-2.1-.2h.3c-6.1.3-14.2-.8-19-.2h.3l-5.1.2c-2.3,0,1.4-.2-.3-.3-5.5.4-8.6,0-13.1.2-3.5-.8-12.4,0-17.1-.4l.3.2c-1.2.2-1.5,0-2.4,0,0,0,1.3.2.6.3-10.3.2-21.2-.3-31.8-.4-3.9,0-2.2.9-7.1.5l1.4-.3c-7.8.4-15.9,0-23.6.3.4,0,.5-.2,1.2-.2-1.6-.2-5.9,0-6,.2-1.2,0-.3-.2-1-.3-1.6,0-4.1.3-4.9,0-.2,0,.4,0,.8,0-1.1,0-4.9,0-3.9.2h-7.8c-1.5.3-4.9-.2-5.4.3.2-.5-5-.4-6.8-.2.6,0-1.6,0-.9-.3-2.1,0-4,0-3.6.3-3.8-.5-7.7.4-9.8-.3-6.1.2-11.8.4-17.3.5.2-.5,6.1,0,5.9-.5-5.2.2-8.2.6-13.4.5-1.3,0,.8-.2,1.2-.3-5.2.2-10.1,0-14.8.2h1c-.9,0-2.1,0-2,0h.9c1.5.2-3.6.6-3.8.7,1.6-.6-4.6-.2-2.1-.9-.6,0-1.4,0-1.2.3-.9,0-1.2,0-.3-.3-3.3,0-2.1.3-5.1.3,0,0,.6,0,.9-.2-1.5.2-3,.4-5.5.3h.6c-4.3,0-7.4.5-12.1.3,1.4-.4-1.6,0-1.9-.5h-2.6l1,.3c-2.2,0-4.2.3-6.1,0l1.7-.2h-4.2l2.4.2c-2.3.2.2.5-2.7.4.6,0-2.2,0-3.4-.2h0c-1.1,0-2.2.2-3.9.2s.3-.4,0-.5c-1.1.3-5.2,0-6.6.4.5,0,.5-.3.3-.3l-.9.2c-1,0-1.2,0-1-.3-3.1,0,1,.5-2.7.3h.8c-3.7,0-7.2.2-10.6,0-1-.4,3,0,1.8-.4-4.9,0-10.2.5-14.9.4h.9c-.7.6-3.5-.2-5.9,0,.6,0,.8-.3.6-.2-3.3,0-6.7,0-11.6.3h.6c-1.9-.3-5.1-.2-7.1-.3-.6,0-1.8,0-1.1.3-6.4-.8-12.2.4-17.8-.2.7,0,1.6,0,1.1,0h-4.8c.4.4.6.3,1.7.5-.6,0-2,.2-3.2.2,2.2-.2,0-.4-1-.5.2,0-.2.2,0,.2-2.5-.4-.4.5-3.9.2h.2-3.9c-.6-.3,1.4,0,1.5-.3-1.9,0-3.8.5-5.6.2.8,0,2,0,2.8-.2-1.9-.3-2.2-.2-3.6-.3h-3.3.8c-2.4.7-5,0-8.3.6,3.2-.4.5-.2.8-.5-.8,0-2.1-.2-1.8-.3-1.6.2-2.6-.2-4.8.2,0,0-1.7,0-1.3-.2-2,0,.5.2.3.3-3.1.3-7.3-.4-11.8,0-3.9.2-4.6.5-8.2.7-1.2-.2,1-.3,1-.3h-5.3c.4,0,0-.2-.6-.3-1.5,0-1,.3-2.9.2.3,0,.8-.3,1.5-.4-1.7,0-3.5.3-5.3.4-.5-.2,1.1-.3,1.7-.4-2,0-5.2.2-5.9.4h1.3c-.7,0-.4,0,.2-.2,1.7-.2,2.5,0,2.6.2h-1.3c1.3.6,5.2,0,7.7,0l-1.1.4,2.7-.3c.6,0,.9.3-.3.4,1.8.2,1.6-.2,3.2,0,.2,0,0,0,0,0h1.8c-.3,0,.3.2-.8,0,3.2.2,5.2-.3,6.5,0h-.3c4.5,0,.4-.3,3.8-.6l2.3.8.4-.3c.5,0,1.4,0,1.2.2,1.7-.2-.3,0,.7-.3,2.2.3,6.2,0,6.7.4.8-.2-2.1-.2.2-.3.7.5,2.8,0,4.8.2-.6.3-2.6,0-.5.4,1.2-.5,4,0,5.7,0,0-.4,3.8-.2,6.6-.3-.2,0,5.4.2,8.1.3h0c.5-.3,3.3-.2,5.3-.3,0,.2-.4.3-1.5.4h1.9c.4,0,1-.2,2.3-.2l-.5.3c2.5,0,5.1-.3,8.3,0,.2-.3-2.6-.7.8-.9,0,0,.2.4-.7.4h1.7l-1.4.2c1.5,0,.8-.2,2-.2,0,.2.9,0,.7.3h-1.5c1.3,0,2.9.2,3.5.3,0,0,0-.3,1-.3,2.5,0,.9.2,2.3.3.6,0,2.2,0,2.3-.3.7,0,.9,0,1.2.2,1.3,0,6.1,0,4.6-.3h-.3.2c4.3-.3,8.9.2,13.2,0h0c2.5,0,5.7,0,7.5-.2.8,0,1.8.2,1.4.3,1.9,0,2.2-.2,5,0-1.9.2.7.2-2,0,2.5,0,3.1.2,5.8,0-.9.2,1.9.3,3.1.2l-1.8-.2h3.7l-.7.3c5.2.4,9.3-.7,13.2,0,1.4-.2-2.8-.2-1.6-.4,2.4,0,4.8.5,5.6.5,3.3.2,3-.5,6.4-.4-.4,0-.8-.4,1.7-.5,2.4,0,2.9.5,1.4.6h-.8c-.8,0-1.8,0-.8.2h.3c1.2,0,4.4,0,3.7.2,1.8,0,.8-.2-.6-.3,3.1.2,4.8,0,7.9,0-.5,0-1-.2-.5-.2,4.6.2,2-.2,5.2-.3,1.8.2-.6.4,2.5.3,1.9,0,.4.3-.4.4,2.9-.2,5.3.2,7,.2h-1.5,2.4l-.9-.2h1.6c.9-.2-.7-.4,1.1-.6,1.2,0,3.6,0,4,.2-3.7,0,.4.3-2.7.4h2.2-.4c3.6.3,1.6-.4,5.3-.3-.5.2.8.3,1.4.3-1.5,0-.7-.3.7-.4h3.8-1.4c.5-.2,1.7-.2,3.3-.3,0,0-1.5,0-.9.2,1.8-.3,4.1.3,6.7,0,1.2,0,0,.3,1.2.4,2.8-.2,3.1.2,6.1,0-.9-.2-1-.2,1.1-.4l-4.9.2,3.2-.3c-1.5,0-3.1.2-4,0,1.5-.2,1.3,0,.6-.3,2,.4,4-.2,6.4,0v.6c3.5.3,6.2-.3,10.8-.2h-1.5c.6-.3,2.8,0,4.3-.2,0,.2.8.3,1.4.4,0-.2,3.4,0,3.8-.4l2.1.3c3.7,0,4.2-.6,7.8-.5-1.1.2.6.3-1.8.5h2.3c.7,0,3.3-.3,4.4,0,.5,0,.7-.3,2-.3s0,0,0,0c0,0,2.1,0,.9-.3,3.7.6,10.2,0,13.4.5h8.1-.4c3.3.2,2-.6,5.7-.4,1.9.3-2,.2-.8.3.5.7,4.5,0,7,.3h-.6c1.9.3,4.7-.2,7.8-.2,0,0-.2,0,0,0,2.1-.3,6.2-.4,9.2-.5-.9.2-1.4,0-.8.4,1.3,0-.4-.4,2.3-.5.9,0,2.8.3,3.1.5h-2.5c1.3.4,3.3,0,4.6,0l-.2.2c3.9,0,3.9-.4,8.1-.4h-.4c2.3-.5,1.9,0,4.2-.2l.7.4c1.5,0,5.3-.4,7.9-.5-1.5.3-4.7.4-6.6.6,1.5,0,5.1,0,5.8-.2h-1.9c1.8-.3,4.2-.5,7.2-.5-.5.8,7.7.2,9.9.8,5.2-.3,10.4,0,16.5,0-2.2-.6,1.8,0,1.4-.6h2.1l4.3.4c1,.2-1.3,0-1.2.3,3.1,0,1.3.3,3.4.4-.4-.2,1.1-.3,2.9-.2l-2.5-.3c4.4-.3,3.8.5,8.2.2l-1.4.2c2.2,0,8.3,0,10.5-.5.4,0,.9.2,0,.3,5.4,0,12-.5,16.2-.2l-.4.2c1,0,1.8-.3,3,0,0,0-.4.2,0,.2s2.7-.3,4-.2l-1.1.2c5.2.2,8.1-.4,12.5-.5,0,.4,4.1.6,6.2.7h0c6.1,0,10.4-.3,16.1-.5,3.5.5,11.9.2,17.6.5-.9,0,0-.3,1.2-.4,1.3,0,3.7-.3,3.4,0h-.5c1,.4,3.7.3,5.8.3l.3-.5c5.6.8,14.6-.3,17.6.4,1.3,0,3,0,4.3-.3v.3h10.1l-.9.2c2.6,0,3.3-.8,5.7-.8l.7.4c4.5,0,9.1.4,13.6,0,0,0-.2.2-.9.2,2.1,0,8.2.3,7.5-.3,0,.4,4.7,0,7.1,0l-.4.3c2.1-.4,2.1-.5,5-.5s.6.2-.3.2c2.3.2,1.8-.3,4.5,0l-1,.2c2.3,0,2.2,0,3.4-.3,1.5,0,4.4,0,4.8.3.3-.2,1.6-.4,3-.3.2,0-.3.2-.6.2,3.9.2,5.8-.3,8.5,0l.4.2c-3.1,0-5.6,0-5.4,0,0,.3,2.5.3.5.7,2-.2,5.5-.6,7.9-.5h.3-.2,3.6c.3.2,2.9,0,4.1,0,0-.3,1.5-.2,0-.5.2,0-.2,0-1.1,0h-3.6c1,0,2-.3,3.4,0,.6-.2,1.3-.4,1.8-.5,1.7.4,5,.6,5.5.8,3.8-.2,9,0,11.4-.6,1.1,0,1.2.2,1.7.2h-1.7c2.2,0,6.4,0,7-.4,2.7.2-1.5.3,2.2.3h-.5c7.4.7,12-.8,20.2,0h-1c9.4.3,19.3-.3,28.5.2,2.6,0,2.9,0,4.5-.3l.6.3,2.7-.3c3.9-.2,6.7.7,11.7.3l-.6-.2c1.8,0,5.6,0,5.3,0,.2,0,.6-.2,1.3,0v.2l4.4-.3c3.4,0-.5.6,4.4.7,1.8,0,5.2-.5,4.5-.6-.7,0-1.9,0-1.9-.3h1.7c.3-.5,1.6-1-2.5-1.4l-2.8.3-.9-.2h2.4c-1.4-.2-2.2,0-3.2,0s-.6-.2-1.2-.2l-2.8.4c-.3-.2,1.3-.4-.6-.5-1.3.2,1.3.4-.9.5-1.4-.2-1-.4-2.6-.2-.2,0,0-.2.8-.2-1.4,0-3.8,0-4.5.3-1.4-.3-4.8,0-4.7-.4-.4,0-2.5.3-3.8.4,2.4-.5-4.9,0-4.3-.6-1.8.5-6.4.2-9.5.5h.8c-1.8,0-2.3-.2-3.4-.3-.2.4-3,.5-4.5.7-2.2-.4,1.3-.5.6-.8,0,.3-3.8.3-3,.6-1.7-.2-1.4,0-2.3-.4-.3.5-1.5,0-2.9.4-2.4-.2-.6-.5-3.2-.3-1.2-.2,1.1-.3,1.1-.3h0l-.5-.3v-.2h.1ZM1742.2,1020.4h1.3-1.3ZM1736.9,1020.4h2.3c.2,0,0,.2-.5.2.3,0-.9,0-1.7-.2h-.1ZM1748.1,1022.4h-1.2,1.5-.3Z"/>
          <path class="st19" d="M1749.6,1022h.3-.8.5Z"/>
          <path class="st19" d="M1272.6,1021.6h-.2.2Z"/>
          <polygon class="st19" points="1664.3 1019.9 1664.3 1020 1664.7 1019.9 1664.3 1019.9"/>
          <path class="st19" d="M1243.6,1020.6h-.4.4Z"/>
          <path class="st19" d="M1231.1,1020.6h-1.8,1.8Z"/>
          <path class="st19" d="M1221.4,1020.4h-.2.2Z"/>
          <path class="st19" d="M1374.5,1020.1h.4c.9,0,.3,0-.4,0Z"/>
          <path class="st19" d="M1328.9,1020.8h1.5-1.5Z"/>
          <path class="st19" d="M1425.3,1019.8h.3-.3Z"/>
          <path class="st19" d="M1332.5,1020.6h-2.1,2.1Z"/>
          <path class="st19" d="M1179.7,1020.3h-.5.5Z"/>
          <path class="st19" d="M1179.2,1020.3h-.5.5Z"/>
          <path class="st19" d="M1177.6,1020.4h1.1-1.1Z"/>
          <path class="st19" d="M1192.5,1020.4h.2-.2Z"/>
          <path class="st19" d="M1196.3,1020.4c-.9,0-2.3-.2-3.6-.2h0c.6,0,2.8.3,3.7.2h0Z"/>
          <path class="st19" d="M1212.5,1021.7h-3.2c.6,0,1.3.2-.2.2,4.1.3-.8-.2,3.4-.2h0Z"/>
          <path class="st19" d="M1222.6,1021.8c-1.7,0,0,.2,0,.2,1.1,0,1.4,0,0-.2Z"/>
          <path class="st19" d="M1295.3,1021.8l-.2.3c1.3,0,0,0,.2-.3Z"/>
          <polygon class="st19" points="1309.2 1020.5 1307.9 1020.3 1307.2 1020.6 1309.2 1020.5"/>
          <polygon class="st19" points="1317.4 1022.3 1316.8 1022.4 1319 1022.3 1317.4 1022.3"/>
          <path class="st19" d="M1439.5,1022.2l-.4-.3c-.9,0-1.1.4.4.3Z"/>
          <path class="st19" d="M1492.2,1021.9c.6.2,2.1.3,3,0h-3Z"/>
          <polygon class="st19" points="1650.3 1022.4 1649.2 1022.5 1651.2 1022.4 1650.3 1022.4"/>
        </g>
      </g>
      <g>
        <path class="st19" d="M369.9,998l-.3.8c0,1.1.1,1.3.2.9v-1.7h0Z"/>
        <path class="st19" d="M369.2,992.2s.1-.5.2,0c-.2,1.9-.2,3.7,0,5.2.2-.6,0-1.9.1-2.3-.1.2-.3-.6-.2-1.8.4-1.4.2-1.7.6-3-.3-.8-.6.7-.8,2h0Z"/>
        <path class="st19" d="M368.7,884.6v-.7.7Z"/>
        <path class="st19" d="M368.4,817.6v-.8.8Z"/>
        <path class="st19" d="M368.1,806v-.7.7Z"/>
        <path class="st19" d="M368.6,882.1v1.8c0-.9.1-1.9,0-1.8Z"/>
        <path class="st19" d="M370,977.3h0v.9-1h0Z"/>
        <path class="st19" d="M368.4,913.5v1-1h0Z"/>
        <path class="st19" d="M368.4,936.2c0,.2.1.2.2.2,0-.5,0-.8.2-1.1-.1.2-.4.4-.4.9h0Z"/>
        <path class="st19" d="M368.8,972.8v-.6.6Z"/>
        <path class="st19" d="M368.2,897v.2c.1,0,.1-.2,0-.2Z"/>
        <path class="st19" d="M18,611.3h0c-.2,0-.1,0,0,0Z"/>
        <path class="st19" d="M-8.3,612.6l.4.2v-.2h-.4Z"/>
        <path class="st19" d="M367.8,784.5h0c0,.2,0,.5,0,0Z"/>
        <path class="st19" d="M347.3,614c-3.3.3,2.4.3.3.6,2.7-.2-.6-.5-.3-.6Z"/>
        <path class="st19" d="M370,975.8v.9-.9Z"/>
        <path class="st19" d="M347.7,614h-.3.3Z"/>
        <path class="st19" d="M368.1,736.6c0-.2,0-.4-.1-.5,0,.4,0,.5.1.5Z"/>
        <path class="st19" d="M368.3,771.2v.9-.9Z"/>
        <path class="st19" d="M368.4,716.3v-.2,1.3-1.1Z"/>
        <path class="st19" d="M368.4,698.9v-1,1Z"/>
        <path class="st19" d="M76.2,611.8c.2,0,.5-.2.9-.2-3.5,0-.6,0-.9.2Z"/>
        <path class="st19" d="M369.8,977.3h.1v-.7c0,.3,0,.5-.1.6h0Z"/>
        <path class="st19" d="M370.5,713.5v3.1-3.1Z"/>
        <path class="st19" d="M215.9,611.9h.7-.7Z"/>
        <path class="st19" d="M370.4,702.3v.4c0,.6,0,1.2.2,1.7v-2.1h-.2Z"/>
        <path class="st19" d="M76.2,611.8h0Z"/>
        <path class="st19" d="M55.9,611s2.6.2,1.2.3c-2.9-.2-.9,0-3.6.3-1.5-.3-2.9,0-3.2-.4-.9.3-.7.2-2.5.4.8-.3-3.4-.3-3.3-.6-.7.4,3.1.5.7.8-1.6-.2-4.7-.3-4.9-.7-1.2,0-1.8.2-3.8.3h.9c-3.5-.3-8.5,0-10.5-.5.7.6-7.3,0-4.7.6-1.4,0-3.7-.3-4.2-.4.1.4-3.6,0-5.1.4-.8-.2-3.4-.2-5-.3.7,0,1.1,0,.8.2-1.8-.2-1.3,0-2.8.2-2.4-.2.4-.3-1-.5-2.1,0-.3.3-.7.5l-3.1-.5c-.6,0-1.1,0-1.3.2-1.1,0-2-.3-3.5,0H-1l-1,.2-3.1-.3c-4.5.3-3.1.8-2.8,1.3h1.8c0,.2-1.3.3-2.1.3s2.9.5,4.9.6c5.4,0,1.1-.5,4.8-.7l4.8.3v-.2h1.4c-.3-.2,3.9,0,5.8,0l-.7.2c5.4.5,8.5-.5,12.8-.2l3,.4.6-.3c1.8.2,2.1.4,5,.3,10.1-.5,21,.2,31.3,0h-1.1c9-.7,14.1.8,22.2.2h-.6c4.1,0-.6-.2,2.4-.4.6.4,5.2.3,7.6.4h-1.9c.4,0,.6-.3,1.8-.2,2.6.5,8.3.5,12.5.7.5-.2,4.1-.4,6-.8.4,0,1.2.3,1.9.5,1.5-.2,2.7,0,3.7,0h-4c-.9,0-1.4,0-1.2,0-1.7.2,0,.2,0,.5h8.4-.3.4c2.7,0,6.5.3,8.7.5-2.2-.4.6-.4.6-.7.3,0-2.5,0-5.9,0,.2,0,.4,0,.5-.2,3-.3,5.1.3,9.4,0-.3,0-.8,0-.6-.2,1.5,0,2.9.2,3.3.3.4-.2,3.6-.4,5.3-.3,1.4.2,1.2.3,3.8.3l-1.1-.2c3,0,2.5.3,5,0-1,0-1.1,0-.3-.2,3.2,0,3.2.2,5.5.6l-.4-.3c2.7.2,7.8.5,7.8.2-.9.6,5.9.3,8.2.3-.8,0-.9,0-1-.2,4.9.4,9.9,0,14.9,0l.8-.4c2.6,0,3.4.9,6.2.8l-1-.2h11.2v-.3c1.4,0,3.2,0,4.7.3,3.3-.7,13.2.4,19.4-.3l.4.5c2.3,0,5.3,0,6.4-.3h-.5c-.2-.4,2.3,0,3.8,0s2.2.3,1.3.4c6.2-.2,15.4,0,19.3-.4,6.2.2,10.9.6,17.6.6h0c2.3,0,6.8-.3,6.8-.7,4.8,0,7.9.7,13.7.5l-1.2-.2c1.5,0,3.8,0,4.4.2.5,0,.1,0,0-.2,1.4-.2,2.2,0,3.3,0l-.5-.2c4.6-.3,11.9.3,17.8.3-1.1,0-.5-.2,0-.3,2.4.5,9.1.4,11.5.5l-1.5-.2c4.8.3,4.2-.5,9-.2l-2.8.3c2,0,3.6,0,3.1.2,2.3-.2.3-.4,3.7-.4s-2.5,0-1.3-.3l4.7-.3h2.3c-.4.6,3.9,0,1.5.6h16.8l.2.4v5.2c0,2.5,0,4.6.5,4.3,0,3.3-.1,5.9-.5,7.9v-2.1c-.2.9-.2,4.8-.2,6.4.2-2.1.3-5.6.6-7.3,0,3-.4,7.1-.5,8.7l.4.8c-.3,2.5.3,2.1,0,4.6v-.5c-.1,4.6-.5,4.6-.5,8.9l.2-.2c0,1.5-.3,3.6,0,5.1v-2.8c.3.3.4,2.4.5,3.4,0,2.9-.5,1-.5,2.5.3.6.1.2.4-.9,0,3.3-.2,7.7-.5,10,0,.2.1,0,.1,0,0,3.4-.4,6.4-.2,8.5v-.7c.4,2.7-.3,7.1.3,7.7.1,1.3,0-2.9.3-.9.2,4.1-.5,2.7-.4,6.3v-.5c0,2.6,0,6-.1,8.9.5,3.5-.1,10.7.5,14.8-.2-1.3-.2,1-.4,1,0,0,0-.2.1,0,0,1.5-.2,1.7-.3,2.2.2,1.2-.2,4.1,0,4.8-.1,0-.1,1.2-.1,2.5.2-2.6.3-.8.5-2,0,3.9-.6,4.5-.5,8.6l.3,2.2c-.4.5-.2,4.2-.4,4.2.1.7.2,1.7.4,1.6-.1,1.6.1,4.1-.1,4.8v-1.6c0,5-.5,8.1-.2,12h.6c.2,2.5-.3,4.7,0,6.9-.2-.8-.1-1-.3.7,0-1,.1-2.8.1-4.4l-.4,3.5.2-5.4c-.2,2.3-.2,2.2-.4,1.2-.2,3.3.3,3.6,0,6.7,0,1.1.3,0,.4,1.3-.2,2.8.4,5.3.1,7.3,0,.6,0-1.2.2-1,0,1.8,0,3.1-.2,3.6v-1.5c0,1.3-.3,1.6-.1,4.2-.1,1.5-.4,2.3-.4.7,0,.7.1,2.1.3,1.6,0,4-.6,1.9-.4,5.8,0-.3,0-.5,0-.4v2.5c0-3.5.5,1.1.4-3,.3.4,0,3.1.2,4.4-.2,2-.5.2-.6,1.2.1,0,.1.8.1,1.8l-.2-1v2.6-1.7c.1,1.8.5,4.5.3,7.7.1-.8.3-2.5.4-.4-.1,3.5.1.8.3,2.8,0,3.4-.4.6-.3,5.7,0,.5-.1,0-.2-.5.1,3.5,0,5.3.1,8.7,0-1.5-.1-2.6-.3-.6.2-.8.2,2.8.3,4v.3c0,1,0,0,.1-.9v-.9c0-1.7.5-1,.6,1.6-.1,2.8-.4,2.3-.5,1.9.1,3.7-.5,3.5-.4,7.1,0,.8.5,3.5.5,6.2-.3,1.3-.2-3.2-.4-1.7.7,4.3-.4,8.9,0,14.5l.3-.7v4.1l-.2-1.9c0,1.3,0,4.4.2,3.4-.3,3-.1,3.6,0,6.4,0-2.9,0,0,.1-2.2.2,3.1,0,3.3,0,5.5.1-.3.3.8.3,1.6-.2,2-.2,5.4-.3,8.2h.1c-.1,4.7.3,9.8,0,14.5h0v.2-.4c-.3-1.6-.2,3.7-.4,5.1,0,.3.2.5.2,1.3-.3,0-.1,1.8-.3,2.5.1,1.6.4-.2.3,2.6,0,1.1-.2,1.2-.3,1.1.1.6.3,2.4.3,3.8v-1.6c.2-.2.1.8.3.8,0,1.3-.3.5-.2,2.2l.2-1.5v1.8c0-1,.3-.8.4-.7-.2,3.8-.6.7-.9.9.2,3.6-.1,6.4-.1,9.2l.3-.5c0,1.4-.1,2-.2,2.5v2.1c0-1.2.2-1.6.4-1.7,0,2.2,0,5.3-.4,5.8h0c.1,2.9.2,9,.3,8.8-.1,3.2,0,7.2-.3,7.3,0,1.9.5,4.9,0,6.3.2,2.2.1,0,.4-.6.2,2.2-.4,4.5.1,5.3-.2,2.6-.1-.6-.3.3.5.5,0,4.9.4,7.3-.2,1.1-.1-1.1-.3.8.1-.2.1.8.2,1.3l-.3.5.8,2.5c-.4,3.7-.5-.8-.7,4.2v-.3c.3,1.3-.2,3.5,0,7.1,0-1.2.1-.5.2-.9v2c-.1-.2,0-.3,0,0,.2,1.8-.1,1.5,0,3.5,0-1.4.3-1,.4-.4l-.4,2.9.4-1.2c0,2.8-.6,7,0,8.5v-1.4c.2,0,.5,1,.2,2.9,0,.6-.3,1-.3.2v1.4c.4-.7.4-4.2.5-6.5-.1.7-.2,2.4-.4,1.9,0-2,.3-3.9.4-5.8-.1.8-.3,1.2-.4,1.6-.1-2.1.2-1.6.2-3.2-.1-.6-.2-1-.3-.6.1-2,.1-3.6,0-5.8,0,0-.2,2.4-.4,1.1.2-3.9.5-4.7.7-9,.5-4.9-.3-9.5,0-13,.1-.2.2,2.6.3.3-.2.4-.1-1.3-.2-1.4.4-2.4,0-3.5.2-5.3,0,.4-.2-1-.3-1.9-.3.3-.1-2.7-.5.8.5-3.6-.1-6.4.6-9.1v.9-3.6.2c0-1.6,0-1.8-.3-3.9,0,.9,0,2.2-.1,3.1-.3-1.9.2-4,.2-6.2-.2,0,0,2.2-.3,1.6,0-1.5.1-2.8.2-4.2v.2c-.4-3.8.5-1.5,0-4.2,0,0,.1-.3.2,0-.1-1-.4-3.4-.5-1,0-1.3.1-2.8.2-3.5.2,1.1,0,1.4.3,1.8v-5.3c.1-.6,0,.4,0,1.2-.6-6.2.5-12.6-.2-19.6.2.8.2-.5.3-1.2,0-2.3,0-5.7-.1-7.8v.7c0-5.4.2-9.2.2-12.7s-.2,0-.2.7c.2-2.6-.5-5.8,0-6.5v1c0-5.2.3-11,.4-16.4-.3-1.3,0,3.1-.4,2-.1-3.7.1-7.5,0-11.6,0,.7,0,.5-.1.8-.2-4,.3.5.3-3-.2.2-.2,0-.3-1.1l.2-1c0-.2-.2,0-.3.4.3-1.5.1-6.1.4-7.3,0-.3-.4.5-.5,0,0-1.8,0-3.1.1-4.3h0c-.2-1.3-.2-4.4-.2-3.7-.1-3.3.2-.5.4-3v2.6c.1,0,.2-4.6.2-4.6v1.8c-.3-2.1,0-4.3,0-6.7l.2,1.1v-2.8c-.3-.3,0-3.6-.4-2-.2-5.2.3-8.5.3-13.3,0,.8,0,.5-.1.7,0-2.8.1-4.4.3-6.1-.1.3-.1,1-.2,1,0-3.3.2-2,.3-5.6-.2,1-.2.7-.3-.3.1.2.2-.7.3-1.3-.7,2.7-.3-4-.9-2.3.2-.2.5-5.8.8-4.2v1c.1,0,0-1.2,0-2.2,0,.5,0,1.1-.1,1.1.2-5.1,0-10.5.2-16.2,0,.5-.2,2.8-.3,1.3-.1-5.7.3-9,.5-14.8-.5-.3,0,6.2-.5,6.4.1-6.1.3-12.3.5-19-.7-2.3.3-6.6-.3-10.8.2.4.3-1.7.3-4-.2.8-.2-1.6-.3-1,.2-2,.3-7.7-.1-7.5.4-.5,0-4.3.3-5.9-.2-2.5,0-5.4,0-8.5.3,1.1.1-3.1.2-4.3,0,.3,0,1-.1.8-.2-1,.2-3.6,0-5.4-.1-.8-.3.2-.3-1.1.2,0,.4-4.8.2-6.6,0,.5,0,1-.2,1.3.3-8.4,0-17.3.3-25.9l-.3,1.5c-.4-5.3.5-3.5.5-7.8-.1-5.5-.2-11.2-.3-16.8,0-2.8,0-5.6-.1-8.4v-9.4h-2.7c-.5,0-.3,0,0,0h1.2-3.1l.3-.2c-5.2.5-14.9-.4-18.7.4-4.9-.3-8.4.2-14.4-.3-1.9.2,2.2.3-.4.3l-5.6-.3h.3c-5.4-.5-14.2.6-20.9.2h.3c.2.2-1.2.3-2.3.2-.4,0,.4,0,1-.2-6-.2-7.3-.2-12.1-.3,2,.2-1.9.2-2.1.4-1.2-.2.7-.3-2.1-.4-4,0-7.6.2-10.9.3-1.3-.2-3.1-.2-3.2-.5-4.5,0-7-.2-12.4-.2h-.1c-1.5-.3-4.8.3-5.8,0,.1,0,.7.2.6.3h-2.5c1.2,0,1.8.3-.2.4-2.1-.2.6-.2-.4-.4l-.6.3c-1.6,0-2.1-.4,0-.5-5.5,0-10.9-.2-15.8,0l.5.2h-8s-.7-.2-.3-.2c-3.2-.3-.3.3-3.9,0,.9,0,2,0,2.1.2l-6.6-.3c0,.2-4.1.5-6.9.3-.1,0,.7-.2,1.4-.2h-1.8l-1.4.3-2.6-.3v.3c-1.9,0-2.7-.5-4.2-.4-5.8.2-4.6.3-8.7.6-.5-.6-6.5,0-7.5-.4-5.5.4-13.4,0-20.5.2h.6c-3.1.3-3.5-.4-6.8-.3h.8c-4.2.4-11.7,0-15.7-.2.8,0,.4.3-.9.2-1.1,0,1.1-.4-1.2-.3.6,0,.1.2-.4.2l-2.2-.3c-5.9.2-12.7.4-18.8.2-1.1,0-.3.2,0,.3-4.8,0-9.6-.3-13.9-.4l-.4.3c-2.1,0-1.3-.5-4.1-.2-.6,0,1.8,0,2.6.2-4.3.2-2.5-.3-6.6-.3l1.1.4c-3.1.2-3.6-.2-4.7-.4-4.4-.5-3.1.7-9.1.4-.9-.2.3-.3-.6-.5-4.2,0-4.7-.2-8.9,0-2.2.6,2.2,0-.3.5h3.2c-2.8.2,2.5,0,2.1.3-2.1,0-5.2-.2-7.9-.3,0,.3,3.1,0,1.9.4h-1.4,1.2c-.5.2-1.6,0-2.9,0,0,0,0-.3.4-.5h-.3c-2.7-.4-7.3,0-9.6-.4.4,0,0,0,0,.2-1.6,0-3.3-.3-5.5-.4-1.2.2.7.6-2.8.5-.6-.2.9-.6-2-.6h0l.3.2v-.3h0ZM123.2,612h1.4-1.4ZM130.4,612.1c-.9,0-2.2,0-1.9.2-.6,0-.8,0-.6-.2h2.5ZM117.8,613.9h1.7-1.7Z"/>
        <path class="st19" d="M116.5,613.7h.5-.9.4Z"/>
        <path class="st19" d="M368.7,884.8h0v-.2h0v.2Z"/>
        <polygon class="st19" points="209.7 611.8 210.2 611.8 210.2 611.8 209.7 611.8"/>
        <path class="st19" d="M369.8,917v-.4.4Z"/>
        <path class="st19" d="M369.9,932.3v-1.9,1.9Z"/>
        <path class="st19" d="M369.8,941.1h0v-.2c.1,0,.1.2.1.2h-.1Z"/>
        <path class="st19" d="M370.2,772.4v.4c0-.7,0-1.4,0-.4Z"/>
        <path class="st19" d="M369.7,821.2c0,.6,0,1.1-.1,1.6.2,0,.1-.7.1-1.6Z"/>
        <path class="st19" d="M370.6,716.6v.3h0v-.3Z"/>
        <path class="st19" d="M369.7,821.2v-2.3,2.3Z"/>
        <path class="st19" d="M370,987.3h0v-.6.6Z"/>
        <path class="st19" d="M370,987.9v-.6.6Z"/>
        <path class="st19" d="M370,987.9v1.2-1.2Z"/>
        <path class="st19" d="M370,972.6v.2c-.1,0,0,0,0-.2Z"/>
        <path class="st19" d="M369.9,968.5c-.2,1,.2,3.4,0,4.1h0c0-1.5-.1-3.1-.1-4.1h.1Z"/>
        <path class="st19" d="M368.7,950.7c0,4.7-.5-.8-.2,3.7,0-1.6.2-.8.3-.2v-3.6h0Z"/>
        <path class="st19" d="M368.3,939.8s.2,1.8.2,0c-.1-1.4-.1-1.1-.2,0Z"/>
        <path class="st19" d="M368.2,860l.3-.2c-.2.2-.2-1.3-.3.2Z"/>
        <polygon class="st19" points="369.8 846.7 370 846 369.8 844.5 369.8 846.7"/>
        <polygon class="st19" points="368.1 833.7 368 836.2 368 835.5 368.1 833.7"/>
        <path class="st19" d="M368.4,701.9l-.3-.5c-.1,1.7.2,1.5.3.5Z"/>
        <path class="st19" d="M368.3,640.3c-.2,1,0,2.6.1,3.3,0-.7,0-2-.1-3.3Z"/>
        <polygon class="st19" points="224.5 614.4 226.7 614.5 225.6 614.3 224.5 614.4"/>
      </g>
      <g class="st16">
        <g class="st16">
          <g class="st16">
            <g class="st16">
              <g class="st16">
                <g class="st16">
                  <path d="M828.6,526h5.4v28.6h-5.4v-28.6Z"/>
                  <path d="M857.2,554.6l-12.1-19h-.2v19h-5.2v-28.6h5.6l12,19h.2v-19h5.2v28.6h-5.5Z"/>
                  <path d="M868.6,526h16.8v4.7h-11.3v8.2h10.5v4.7h-10.5v11h-5.4v-28.6h0Z"/>
                  <path d="M887.6,540.3c0-8.7,6.1-14.9,14.6-14.9s14.6,6.2,14.6,14.9-6.1,14.9-14.6,14.9-14.6-6.2-14.6-14.9ZM911.3,540.2c0-5.9-3.6-10-9.1-10s-9.1,4.1-9.1,10,3.6,10.1,9.1,10.1,9.1-4.1,9.1-10.1Z"/>
                  <path d="M929.4,543.5h-2.8v11.1h-5.4v-28.6h10.9c5.6,0,9.6,3.9,9.6,8.8s-2.6,7.3-6.6,8.3l7,11.5h-6.1l-6.6-11.1h0ZM936.2,534.9c0-2.3-1.8-4.2-4.7-4.2h-5v8.4h5c2.9,0,4.7-1.9,4.7-4.2Z"/>
                  <path d="M958.2,548.2l-6.6-12.9h-.2v19.3h-5.2v-28.6h6.7l7.4,15.4h.2l7.6-15.4h6.4v28.6h-5.2v-19.3h-.2l-6.5,12.9h-4.5,0Z"/>
                  <path d="M987,526h7.1l9.1,28.6h-5.8l-1.9-6.5h-9.9l-1.9,6.5h-5.6l9.1-28.6h-.2,0ZM986.8,543.4h7.2l-3.5-12.1h-.2l-3.5,12.1Z"/>
                  <path d="M1008.8,530.7h-7.2v-4.7h19.8v4.7h-7.2v23.9h-5.4v-23.9h0Z"/>
                  <path d="M1024.9,526h5.4v28.6h-5.4v-28.6Z"/>
                  <path d="M1034.7,540.3c0-8.7,6.1-14.9,14.6-14.9s14.6,6.2,14.6,14.9-6.1,14.9-14.6,14.9-14.6-6.2-14.6-14.9ZM1058.4,540.2c0-5.9-3.6-10-9.1-10s-9.1,4.1-9.1,10,3.6,10.1,9.1,10.1,9.1-4.1,9.1-10.1Z"/>
                  <path d="M1085.7,554.6l-12.1-19h-.2v19h-5.2v-28.6h5.6l12,19h.2v-19h5.2v28.6h-5.5Z"/>
                </g>
              </g>
            </g>
          </g>
        </g>
      </g>
      <rect class="st9" x="437.1" y="624.9" width="259.7" height="342.9"/>
      <rect class="st9" x="727.5" y="624.9" width="755.4" height="342.9"/>
      <rect class="st3" x="461.9" y="265.7" width="297" height="189.8" rx="19.2" ry="19.2"/>
      <rect class="st7" x="587.1" y="383.9" width="46.5" height="108.6"/>
      <g class="st16">
        <g class="st16">
          <g class="st16">
            <g class="st16">
              <g class="st16">
                <g class="st16">
                  <path d="M690.2,104.1l12-31.4h4.5l12.8,31.4h-4.8l-3.7-9.5h-13.1l-3.4,9.5h-4.4ZM699.3,91.2h10.6l-3.3-8.7c-1-2.7-1.8-4.8-2.3-6.5-.4,2-1,4-1.7,6,0,0-3.4,9.2-3.4,9.2Z"/>
                  <path d="M722.3,104.1v-22.7h3.5v3.4c.9-1.6,1.7-2.7,2.4-3.2.8-.5,1.6-.8,2.5-.8,1.3,0,2.6.4,3.9,1.3l-1.3,3.6c-.9-.6-1.9-.8-2.8-.8s-1.6.3-2.3.8-1.2,1.2-1.4,2.1c-.4,1.3-.7,2.8-.7,4.5v11.9h-3.8Z"/>
                  <path d="M745.3,100.6l.6,3.4c-1.1.3-2.1.3-2.9.3-1.4,0-2.5-.3-3.3-.7s-1.3-1-1.6-1.8c-.3-.8-.5-2.3-.5-4.5v-13.1h-2.8v-3h2.8v-5.6l3.8-2.3v7.9h3.8v3h-3.8v13.3c0,1.1,0,1.8.2,2.1.2.3.3.6.7.8.3.2.8.3,1.3.3s1,0,1.7-.2h0Z"/>
                  <path d="M761.3,77.1v-4.4h3.8v4.4h-3.8ZM761.3,104.1v-22.7h3.8v22.7h-3.8Z"/>
                  <path d="M769.5,97.3l3.8-.6c.3,1.5.8,2.7,1.8,3.5,1,.8,2.3,1.3,4.1,1.3s3.1-.3,3.9-1.1,1.3-1.6,1.3-2.5-.4-1.6-1.2-2.1c-.5-.3-1.8-.8-3.9-1.3-2.8-.8-4.8-1.3-5.8-1.8s-1.9-1.3-2.5-2.2-.8-1.9-.8-3.1.3-1.9.7-2.8c.5-.8,1.1-1.6,1.9-2.2.6-.4,1.4-.8,2.4-1.1,1-.3,2.2-.5,3.3-.5,1.8,0,3.3.3,4.7.8s2.3,1.2,3,2.1,1.1,2.1,1.3,3.5l-3.8.5c-.2-1.2-.7-2.1-1.5-2.8s-2-1-3.5-1-3,.3-3.8.9c-.8.6-1.2,1.3-1.2,2.1s.2.9.5,1.3c.3.4.8.8,1.5,1,.4.2,1.5.5,3.4,1,2.8.8,4.6,1.3,5.7,1.8,1.1.5,1.9,1.2,2.5,2,.6.9.9,2,.9,3.3s-.3,2.5-1.1,3.6c-.8,1.2-1.8,2-3.3,2.7-1.4.6-3,.9-4.8.9-2.9,0-5.2-.6-6.8-1.8-1.6-1.3-2.5-3-3-5.4v.2h0Z"/>
                  <path d="M792.9,104.1v-22.7h3.5v3.3c1.7-2.5,4.1-3.8,7.3-3.8s2.6.3,3.8.8,2,1.2,2.6,1.9c.6.8,1,1.8,1.2,2.8.2.8.3,1.9.3,3.8v13.9h-3.8v-13.8c0-1.6-.2-2.8-.4-3.5-.3-.8-.8-1.4-1.6-1.8-.8-.5-1.7-.7-2.7-.7-1.7,0-3.1.5-4.3,1.6-1.2,1-1.8,3-1.8,5.9v12.4h-4Z"/>
                  <path d="M817.3,83.8l-1-5.8v-5.3h4.4v5.3l-1,5.8h-2.4,0Z"/>
                  <path d="M834,100.6l.6,3.4c-1.1.3-2.1.3-2.9.3-1.4,0-2.5-.3-3.3-.7s-1.3-1-1.6-1.8c-.3-.8-.5-2.3-.5-4.5v-13.1h-2.8v-3h2.8v-5.6l3.8-2.3v7.9h3.8v3h-3.8v13.3c0,1.1,0,1.8.2,2.1.2.3.3.6.7.8.3.2.8.3,1.3.3s1,0,1.7-.2h0Z"/>
                </g>
              </g>
            </g>
          </g>
        </g>
        <g class="st16">
          <g class="st16">
            <g class="st16">
              <g class="st16">
                <g class="st16">
                  <path d="M847.8,92.3c0-7.2,5.3-12.5,12.5-12.5s12.6,5.2,12.6,12.5-5.3,12.5-12.6,12.5-12.5-5.3-12.5-12.5ZM866.6,92.2c0-4-2.5-6.8-6.2-6.8s-6.2,2.8-6.2,6.8,2.5,6.9,6.2,6.9,6.2-2.9,6.2-6.9Z"/>
                  <path d="M877.6,70h6.3v28.5h4.9v5.5h-11.2v-34Z"/>
                  <path d="M902.5,79.8c3.1,0,6,1.2,7.2,3.2h.2v-13h6.3v34h-5.8v-3.1h-.2c-1.5,2.5-4.4,3.9-7.9,3.9-6.7,0-11.4-5.1-11.4-12.5s4.9-12.5,11.6-12.5h0ZM910,92.2c0-4-2.7-6.8-6.4-6.8s-6.3,2.8-6.3,6.8,2.7,6.9,6.3,6.9,6.4-2.8,6.4-6.9Z"/>
                  <path d="M926.7,106.2l-2.3,4.8-2.7-.8,2.1-4.9c0-.3.2-.5.3-.8-1.7-.3-3-1.6-3-3.6s1.5-3.6,3.6-3.6,3.7,1.7,3.7,3.5-.9,3.8-1.6,5.3h0Z"/>
                </g>
              </g>
            </g>
          </g>
        </g>
        <g class="st16">
          <g class="st16">
            <g class="st16">
              <g class="st16">
                <g class="st16">
                  <path d="M948.2,76.9v-4.5h3.9v4.5h-3.9ZM948.2,104.1v-22.9h3.9v22.9h-3.9Z"/>
                  <path d="M966.5,100.6l.6,3.4c-1.1.3-2.1.3-2.9.3-1.4,0-2.5-.3-3.3-.7s-1.3-1-1.6-1.8c-.3-.8-.5-2.3-.5-4.5v-13.2h-2.9v-3h2.9v-5.6l3.9-2.4v8h3.9v3h-3.9v13.4c0,1.1,0,1.9.2,2.1.2.3.3.6.7.8.3.2.8.3,1.3.3s1,0,1.7-.2h0Z"/>
                  <path d="M970,76.6v-4.5h4.1v3.5c0,1.9-.3,3.3-.7,4.1-.6,1.2-1.6,2-2.9,2.6l-.9-1.5c.8-.3,1.3-.8,1.8-1.5s.6-1.6.7-2.8h-2.1Z"/>
                  <path d="M977.7,97.3l3.9-.6c.3,1.5.8,2.7,1.8,3.5,1,.8,2.4,1.3,4.1,1.3s3.1-.3,4-1.1,1.3-1.6,1.3-2.5-.4-1.6-1.2-2.1c-.5-.3-1.9-.8-4-1.3-2.9-.8-4.8-1.3-5.9-1.9s-1.9-1.3-2.5-2.2-.8-1.9-.8-3.1.3-1.9.7-2.9c.5-.8,1.1-1.6,1.9-2.2.6-.4,1.4-.8,2.4-1.1s2.2-.5,3.4-.5c1.8,0,3.4.3,4.7.8s2.4,1.2,3,2.1,1.1,2.1,1.3,3.5l-3.8.5c-.2-1.2-.7-2.1-1.5-2.8s-2-1-3.5-1-3,.3-3.8.9-1.2,1.3-1.2,2.1.2.9.5,1.3c.3.4.8.8,1.5,1,.4.2,1.5.5,3.4,1,2.8.8,4.6,1.3,5.7,1.8s1.9,1.2,2.5,2c.6.9.9,2,.9,3.3s-.3,2.5-1.1,3.6c-.8,1.2-1.9,2-3.3,2.7-1.4.6-3,.9-4.8.9-2.9,0-5.2-.6-6.8-1.9-1.6-1.3-2.5-3-3-5.5v.2h0Z"/>
                </g>
              </g>
            </g>
          </g>
        </g>
        <g class="st16">
          <g class="st16">
            <g class="st16">
              <g class="st16">
                <g class="st16">
                  <path d="M1037.4,104l-14.3-22.5h-.2v22.5h-6.2v-34h6.7l14.2,22.5h.2v-22.5h6.2v34h-6.6,0Z"/>
                  <path d="M1050.8,70h19.8v5.6h-13.4v8.5h12.5v5.5h-12.5v8.7h13.6v5.7h-20.1v-34h0Z"/>
                  <path d="M1080.2,104h-7.1l10.1-17.1-9.9-16.9h7.1l6.3,12.2h.2l6.4-12.2h7.1l-10,16.8,10.2,17.2h-7.1l-6.7-12.2h-.2l-6.6,12.2h.2Z"/>
                  <path d="M1110.1,75.6h-8.5v-5.6h23.5v5.6h-8.5v28.4h-6.4v-28.4h0Z"/>
                  <path d="M1125.2,84.2h15.9v5.4h-15.9v-5.4Z"/>
                  <path d="M1161.3,85.6h17.7c0,.4.2,1.2.2,2.7,0,9.6-6.3,16.4-16.5,16.4s-17.3-7.4-17.3-17.7,7.2-17.7,17.3-17.7,11,2.7,13.9,7l-4.3,3.6c-2-3.1-5.5-5-9.5-5-6.4,0-10.8,4.9-10.8,12s4.3,12,10.8,12,9.2-3.1,10.1-7.7h-11.5v-5.6h0Z"/>
                  <path d="M1184.1,70h19.8v5.6h-13.4v8.5h12.5v5.5h-12.5v8.7h13.6v5.7h-20.1v-34h0Z"/>
                  <path d="M1230.4,104l-14.3-22.5h-.2v22.5h-6.2v-34h6.7l14.2,22.5h.2v-22.5h6.2v34h-6.6,0Z"/>
                </g>
              </g>
            </g>
          </g>
        </g>
      </g>
      <g>
        <path d="M1616.6,422.1c2-.7,3.2-.4,4.6,1.3,6.4,22,20,46.3,15.3,69.6-1.5,7.5-6.1,17.7-9.8,24.4-2.8,5.1-12.3,16.3-12.9,20.7-.5,3.9.6,6.8,1.9,10.3,7.6,20.5,18.9,41.3,26.1,62,2.7,7.8,4.2,15,4.2,23.3,1.6,2.2,7.2-2.4,8.9-3.5,9.4-6.3,16.8-14.9,26.2-20.9,15.7-9.9,30.1-11.2,48.4-9.2,5.2.5,9.3.8,9.9,6.9,2.9,30.5-12.4,57.7-43.2,64.5-17.5,3.8-33.6,3.6-48.9-6.7-2-1.4-7.5-6.6-9.2-6.6-2.8,0-4.5,5.3-6,7.5-16.9,24.1-39.4,50.2-41.4,81.4-1.4,20.8,5.9,54.2,15.1,73,2.3,4.8,3.7,7.1,9.4,8,24.2,3.5,49.3,4.8,73.1,10.4,4,1,15.7,3.8,16.3,8.4-9.8,51.1-22.3,101.5-29.7,153.2-1.2,8.3-1.3,18.2-3,26.1-1.2,5.6-4.4,9.8-9.6,12.3-10.8,5.3-36.7,15.2-48.3,15.6-17.9.7-56.5-4.5-72.8-12-14.7-6.8-14.5-14.9-16.2-29.3-2.3-20.1-3.8-40.4-6.8-60.5-4.9-32.5-14.8-67.8-16.2-100.4-.2-3.5-.6-9.9,1.9-12.5,1.9-2,11.5-7.9,14.2-9,7.8-3.1,16.8-1.4,25.1-3l47.8-1.5c2-1,2-2.2,1.7-4.2-.8-5.7-4.3-14-5.8-20-4.6-19.1-7-37.7-4.7-57.4,1.2-10.1,4.8-16.2-.9-26.2-2.5-4.3-13.5-15.6-18.2-16.5-5.2-1-7.9,1.9-12.2,3.5-24.6,9.2-53.7-.7-59.9-27.9-2.7-12,3.2-30.7,7.6-42.4,1.4-3.8,3.2-8.6,8.1-8.1,9.8,1,28.7,11.8,36,18.5,17.1,15.7,15.6,31.9,26.2,49.5,4,6.7,8,9.9,13.8,14.7,1.1.9,2,3.5,4.1,3,1.7-.4,6.1-10.9,7.4-13.3,6.2-10.8,15.2-21.2,22.2-31.6,9.3-13.8,22.9-28.8,14.6-46.2-2.7-5.6-13.1-10.7-18.8-13.2-16.2-6.9-21.2-3-36.6,0-14.3,2.9-24.2,2.3-35.5-7.5-22.3-19.2-20.9-37-13-63.5,1.5-5,3.1-5,8.2-4.7,15.3.8,32.1,13.1,43.1,23,6.4,5.7,12.5,16.8,14.6,25.2,1.8,7.4.2,13.4,8.7,17.1,5.5,2.4,11.8,3.2,17.6,6,2.9,1.4,11.7,7.8,13.4,7.7,2.4-.2,1.9-2.3,1.4-4-3.8-11.8-12.1-25.4-17-37.5-4.4-10.8-8-28.3-16.6-35.6-8.1-6.9-20.8-13.1-24.6-23.7-9.6-26.5,5.8-46.6,19.8-67.4,3-4.4,5.7-9,9.4-12.8,1.9-1.9,9-8,11.2-8.7h0l.3.4h0ZM1610.3,436c-7.5,6.8-23.4,32.4-26.9,42-3.4,9.5-3.1,26,2.4,34.7,2,3.3,14.4,13.7,17.9,15.8,5,2.9,6.8,1.4,10.3-2.5,9.3-10.3,18.4-31.7,17.6-45.6-.5-8.4-4.8-21.3-7.5-29.5-.8-2.5-6.2-17.4-7.1-18.4-1.5-1.5-5.3,2.3-6.6,3.5h-.1ZM1566.3,580.4c4.7,3.9,13.2,8.3,16.8,12.3,1.3,1.5.9,6,3.9,4,1.2-.8,1.4-1.8,1.4-3.1-.2-21.8-20-43.8-40-50.4-5.7-1.9-13.7-4.8-16.2,2.6-6.3,17.8-2,43.2,15.3,53.3,8,4.7,13.8,4.4,22.6,3,2-.3,9.5-1,9.9-3.1.2-1-8.1-7.1-9.5-8.3-10.6-9.5-20.8-18-27.2-31.1-1.6-3.3-6.9-13.8-2-15.2,4.2,14.3,13.6,26.5,25,35.9h0ZM1667.5,667.6c10.2,2.7,26.7-1.7,36.6-5.5,18.3-7,29.5-28,27.9-47.2-.6-7.7-3.6-8.7-10.9-9.3-28.1-2.1-36.7,8-56.1,24.1-2.9,2.4-16.4,12-17.4,14-1.3,2.8.5,3.5,2.8,3.9,12.5,2.1,36.6-2.4,45.1-12.5,1.1-1.3,1.3-4.8,3.1-4.8l1.4.9c-2.2,9.4-10.2,15.3-19,18.4-8.7,3-17.9,4.7-27.2,4.2-1.6,0-3.5-1.2-4.9-1-1.8.3-2.6,1.6-1.3,3.1,3,3.5,15.4,10.5,20,11.7h0ZM1520.4,654.9c9.9,12.5,21.2,22.6,32.2,34,1.5,1.5,2.5,4.4,5,4.2,1-19.7-12.2-37.5-27.6-48.3-4.2-3-17.4-10.9-22.3-8.6-.6.4-.9,1-1.2,1.6-1.7,2.8-6.8,18.5-7.9,22.4-4.1,15.2,3.8,34,18.9,39.7,5.8,2.2,25.1,2.9,30.4,0,1-.5,2.3-1.5,2.4-2.7.2-1.7-1-3-2-4.2-4.7-5.9-12.1-11.6-17.4-17.4-4.7-5.1-18.2-21.7-19-28,0-.8.3-1.5.3-2.3,1.4-1.3,7.2,8.2,8.2,9.5h0ZM1515.6,843c.4,1,1.2,1.4,2.2,1.8,6.6,2.8,21,5,28.5,6.3,11.3,2,24.8,4.1,36.2,4.7,2.5,0,13.6.4,14.9-.8.9-3,.4-7.9,0-11.2-.3-2.4-1.3-8.6-2.9-10.2-2.7-2.8-9.5,0-13,0-16.6,0-42.7-2.7-57.9,2.6-1.4.5-6.5,2.8-7.2,3.7-.7.8-.9,2.3-.6,3.4h0l-.2-.2h0ZM1602,834.2c0,.3.5,5.8.6,6.5.7,4.2,8.5,17.7,13.9,15.3,1.5-.7,2.7-3.8,2-5.3-.5-1.2-5.1-4.9-6.4-6.5-1.4-1.7-6.8-10.6-7.7-10.8s-2.1-.2-2.4.8h0ZM1667.6,841.3c-14.2-2.8-27.1-3.5-41.3-4.7-2.4-.2-11-3.5-11,.3s5.2,4.9,6.4,6.5c3,4,3.8,10.4,9.7,11.2l52.6-7.3.9-1.6c-5.7-1.9-11.4-3.2-17.3-4.3h0ZM1689.7,855.1c-15.1.5-32.3,4.1-47.7,5.6-34.3,3.3-64.6,3-98.5-3-10.5-1.8-20.9-4.8-31.5-5.9-4.7,4.1-1.3,10.9,2.7,14.5,14.9,13.2,57.9,18,77.4,17.4,23.2-.7,51.6-3.1,74.4-7.5,4.7-.9,22.9-5.2,25.6-8,1.7-1.7,4.4-10.8,2.7-12.4-.9-.9-3.8-.7-5.2-.7h0ZM1676,894.2c-10.1,2.8-20.4,2.6-30.7,4.1-5.9.8-11.6,2.4-17.5,3.3-29,4.2-68.3,1-96.5-7-2.9-.8-15-5.8-16.9-4.6-.8,1.7-.2,3.8,0,5.7,2.2,16,6.1,32.5,8.6,48.5,4,24.8,8.5,50.2,11.3,75,.6,5.5-1.7,8.7,3.8,12.5,24.7,16.9,91.4,15.9,117,1.1,7.2-4.2,9.4-8.6,10.9-16.6,1.9-10.5,2.9-21.1,4.8-31.6,6.3-34.8,14.3-69.4,20-104.4-.2-2.2-1.6-2.7-3.6-2.6-6.3.3-19.2,4.7-26.6,6-19.8,3.5-40.8,5.3-60.9,5.8-30.8.8-54.2-5.7-82.7-16-1.3-.5-2.3-2.2-3.9-1.1-1.9,2.3-1.4,6.3.6,8.4,2.1,2.4,5.4,1.9,8.4,2.8,6.9,2.1,11.7,6.3,19.8,8.3,17.9,4.3,40,5,58.5,6,14.1.8,28.7-3,42.7-5,7.3-1,14.8-1.2,22.2-2.5,4.6-.8,12-3.5,15.9-3.7.7,0,1.9.2,2.3.7,3.5,4-5.2,6.3-7.6,7h0Z"/>
        <path class="st15" d="M1681.3,886.6c-3.9.2-11.3,2.9-15.9,3.7-7.4,1.3-14.9,1.4-22.2,2.5-14,2-28.6,5.8-42.7,5-18.5-1.1-40.5-1.7-58.5-6-8.1-1.9-12.9-6.2-19.8-8.3-3-.9-6.3-.4-8.4-2.8-1.9-2.2-2.5-6.1-.6-8.4,1.7-1,2.7.7,3.9,1.1,28.5,10.3,51.9,16.8,82.7,16,20.2-.5,41.1-2.3,60.9-5.8,7.4-1.3,20.2-5.7,26.6-6,2,0,3.4.4,3.6,2.6-5.6,35-13.7,69.6-20,104.4-1.9,10.5-2.9,21.2-4.8,31.6-1.4,8-3.7,12.4-10.9,16.6-25.6,14.8-92.3,15.8-117-1.1-5.5-3.8-3.2-6.9-3.8-12.5-2.8-24.8-7.3-50.3-11.3-75-2.6-16.1-6.5-32.5-8.6-48.5-.2-1.8-.8-4,0-5.7,1.9-1.2,14,3.7,16.9,4.6,28.2,8,67.5,11.3,96.5,7,5.9-.9,11.6-2.4,17.5-3.3,10.2-1.5,20.6-1.3,30.7-4.1,2.4-.7,11.1-3,7.6-7-.4-.5-1.7-.7-2.3-.7h0Z"/>
        <path class="st15" d="M1694.8,855.8c-.9-.9-3.8-.7-5.2-.7-15.1.5-32.3,4.1-47.7,5.6-34.3,3.3-64.6,3-98.5-3-10.5-1.8-20.9-4.8-31.5-5.9-4.7,4.1-1.3,10.9,2.7,14.5,14.9,13.2,57.9,18,77.4,17.4,23.2-.7,51.6-3.1,74.4-7.5,4.7-.9,22.9-5.2,25.6-8,1.7-1.7,4.4-10.8,2.7-12.4h0Z"/>
        <path class="st15" d="M1647.5,655.9c3,3.5,15.4,10.5,20,11.7,10.2,2.7,26.7-1.7,36.6-5.5,18.3-7,29.5-28,27.9-47.2-.6-7.7-3.6-8.7-10.9-9.3-28.1-2.1-36.7,8-56.1,24.1-2.9,2.4-16.4,12-17.4,14-1.3,2.8.5,3.5,2.8,3.9,12.5,2.1,36.6-2.4,45.1-12.5,1.1-1.3,1.3-4.8,3.1-4.8l1.4.9c-2.2,9.4-10.2,15.3-19,18.4-8.7,3-17.9,4.7-27.2,4.2-1.6,0-3.5-1.2-4.9-1-1.8.3-2.6,1.6-1.3,3.1h0Z"/>
        <path class="st15" d="M1624,450.9c2.8,8.2,7,21.1,7.5,29.5.8,14-8.2,35.3-17.6,45.6-3.5,3.9-5.3,5.4-10.3,2.5-3.5-2-15.8-12.5-17.9-15.8-5.5-8.7-5.8-25.1-2.4-34.7,3.5-9.7,19.4-35.3,26.9-42,1.3-1.2,5.1-5,6.6-3.5.9,1,6.3,15.9,7.1,18.4h.1ZM1609.7,468c1.4,10.7-5.3,18.5-6.1,28.5-.7,8.4.9,17.3,1.1,25.7,4.6,2.6,4.2-4.7,3.9-7.7-1-10.2-2.2-13.2.3-23.9,1.3-5.4,5.7-14.5,5.8-19.4,0-2.3-1.3-14.5-5.4-10.7-2.4,2.2,0,5.1.4,7.5h0Z"/>
        <path class="st15" d="M1512.2,645.4c1.4-1.3,7.2,8.2,8.2,9.5,9.9,12.5,21.2,22.6,32.2,34,1.5,1.5,2.5,4.4,5,4.2,1-19.7-12.2-37.5-27.6-48.3-4.2-3-17.4-10.9-22.3-8.6-.6.4-.9,1-1.2,1.6-1.7,2.8-6.8,18.5-7.9,22.4-4.1,15.2,3.8,34,18.9,39.7,5.8,2.2,25.1,2.9,30.4,0,1-.5,2.3-1.5,2.4-2.7.2-1.7-1-3-2-4.2-4.7-5.9-12.1-11.6-17.4-17.4-4.7-5.1-18.2-21.7-19-28,0-.8.3-1.5.3-2.3h0Z"/>
        <path class="st15" d="M1541.3,544.5c4.2,14.3,13.6,26.5,25,35.9,4.7,3.9,13.2,8.3,16.8,12.3,1.3,1.5.9,6,3.9,4,1.2-.8,1.4-1.8,1.4-3.1-.2-21.8-20-43.8-40-50.4-5.7-1.9-13.7-4.8-16.2,2.6-6.3,17.8-2,43.2,15.3,53.3,8,4.7,13.8,4.4,22.6,3,2-.3,9.5-1,9.9-3.1.2-1-8.1-7.1-9.5-8.3-10.6-9.5-20.8-18-27.2-31.1-1.6-3.3-6.9-13.8-2-15.2h0Z"/>
        <path class="st15" d="M1516.3,839.6c-.7.8-.9,2.3-.6,3.4.4,1,1.2,1.4,2.2,1.8,6.6,2.8,21,5,28.5,6.3,11.3,2,24.8,4.1,36.2,4.7,2.5,0,13.6.4,14.9-.8.9-3,.4-7.9,0-11.2-.3-2.4-1.3-8.6-2.9-10.2-2.7-2.8-9.5,0-13,0-16.6,0-42.7-2.7-57.9,2.6-1.4.5-6.5,2.8-7.2,3.7h0l-.2-.2h0Z"/>
        <path class="st15" d="M1684.9,845.6c-5.7-1.9-11.4-3.2-17.3-4.3-14.2-2.8-27.1-3.5-41.3-4.7-2.4-.2-11-3.5-11,.3s5.2,4.9,6.4,6.5c3,4,3.8,10.4,9.7,11.2l52.6-7.3.9-1.6h0Z"/>
        <path class="st15" d="M1604.3,833.3c-.8-.2-2.1-.2-2.4.8,0,.3.5,5.8.6,6.5.7,4.2,8.5,17.7,13.9,15.3,1.5-.7,2.7-3.8,2-5.3-.5-1.2-5.1-4.9-6.4-6.5-1.4-1.7-6.8-10.6-7.7-10.8h0Z"/>
        <path d="M1609.3,460.5c-2.4,2.2,0,5.1.4,7.5,1.4,10.7-5.3,18.5-6.1,28.5-.7,8.4.9,17.3,1.1,25.7,4.6,2.6,4.2-4.7,3.9-7.7-1-10.2-2.2-13.2.3-23.9,1.3-5.4,5.7-14.5,5.8-19.4,0-2.3-1.3-14.5-5.4-10.7h0Z"/>
      </g>
    </g>
  </g>
  <g id="Bye">
    <g id="Back1">
      <polygon class="st4" points="86 978.2 140.8 1028.3 140.8 1002.4 260.4 1002.4 260.4 954 140.8 954 140.8 928.1 86 978.2"/>
      <g class="st16">
        <g class="st16">
          <path class="st15" d="M172.5,992.1h-9.8v-26h9.3c4.6,0,7.6,2.8,7.6,6.8s-1.5,4.9-4.1,5.8c3.2,1,4.7,3.7,4.7,6.5s-3.2,6.9-7.8,6.9h.1ZM166.5,977.4h5.2c2.4,0,4.1-1.8,4.1-4s-1.6-4-4.2-4h-5.1v8ZM176.3,984.7c0-2.3-1.7-4.1-4.2-4.1h-5.7v8.2h5.6c2.7,0,4.3-1.8,4.3-4.1h0Z"/>
          <path class="st15" d="M190,982.1l-8.9-16h4.3l6.5,12.3h.1l6.5-12.3h4.2l-9,16.1v9.9h-3.8v-10h0Z"/>
          <path class="st15" d="M206.1,966.1h14.9v3.3h-11.1v7.9h10.4v3.3h-10.4v8.2h11.3v3.4h-15.1v-26h0Z"/>
          <path class="st15" d="M225.3,990.2c0-1.3,1-2.4,2.3-2.4s2.4,1.1,2.4,2.4-1.1,2.4-2.4,2.4-2.3-1.1-2.3-2.4ZM225.8,966.1h3.8v17.6h-3.8v-17.6Z"/>
        </g>
      </g>
    </g>
  </g>
  <g id="Colors_studio">
    <g id="Colors_studio1">
      <g>
        <rect class="st6" x="738.2" y="636" width="733.7" height="322.4"/>
        <g>
          <path d="M977,781.1h-.2.2Z"/>
          <path d="M978.6,817.1c-.9,2.7-1.3,5.1-1.3,7.3s.6,3.9,1.7,5.2c1.1,1.3,2.8,2.2,5.1,2.7,1.8-2.8,3.6-6.2,5.5-10.1,1.9-3.9,3.5-8.1,4.9-12.5,1-3.4,1.7-6.6,1.9-9.7,23.6-7.3,38.9-28.4,38.9-56.2s-23.9-59-58-59-57.9,24.3-57.9,59,5.5,31.8,15.8,42.5c3,3.1,6.4,5.8,10,8l-1.1,1.1c-3.9,4.2-7,8.8-9.1,13.6s-3.2,9.4-3.2,13.6,1.2,8.9,3.7,12.3,5.6,6.4,9.4,9c3.8,2.6,7.9,5,12.1,7.2,4.2,2.2,8.3,4.6,12.1,7s7,5.2,9.4,8.2,3.7,6.7,3.7,11-1.4,8.6-4.3,11.7c-2.8,3.1-6.5,5.5-10.9,7-4.4,1.6-8.9,2.3-13.6,2.3s-9.9-1-13.5-2.9-6.4-4.4-8.2-7.5-2.7-6.3-2.7-9.9.9-7,2.6-10.7,4.2-7.4,7.5-10.9c-3.5,0-7.2.6-10.9,1.9-3.7,1.2-6.8,3.5-9.3,6.6-2.5,3.2-3.7,7.5-3.7,13.2s1.7,11.6,5.1,15.9,7.9,7.4,13.3,9.5c5.5,2.1,11.2,3.1,17.2,3.1s10.3-.8,15.3-2.3,9.6-3.7,13.8-6.5,7.4-6.3,9.9-10.5,3.7-8.9,3.7-14.3-1.2-10-3.6-13.7-5.5-7-9.3-9.7-7.8-5.1-12-7.3-8.2-4.4-12-6.5c-3.8-2.2-6.9-4.6-9.3-7.2-2.4-2.7-3.6-5.8-3.6-9.6s.8-6.3,2.5-10,4-7.2,7.1-10.5h0c7.2,2.9,15.2,4.4,23.8,4.4s4.5,0,6.7-.3c-.7,2.1-1.5,4.1-2.3,6.2-1.2,2.9-2.2,5.7-3.1,8.4h.2,0ZM922.5,743.8c0-33.1,22.5-56,54.9-56s55,22.9,55,56-14,45.9-35.9,53.1c0-3.7-1.6-8.4-4.4-11.3-2.9-3-7.9-4.5-15-4.5s-13,1.3-18.6,4c-4,1.9-7.6,4.2-10.8,6.9-15.7-9.4-25.2-26.6-25.2-48.2ZM955.9,796c2.5-2.2,5.2-4.2,8.3-5.7,4.1-2.1,8.7-3.3,13.7-3.3s5.5.5,6.6,1.6c1.1,1,1.6,2.5,1.6,4.4s-.3,4-1,6.3c-2.5.3-5,.5-7.7.5-7.8,0-15-1.3-21.5-3.8h0Z"/>
          <path d="M1218.3,826.2h0c1.6.9,3.3,1.4,5.2,1.4s5.4-1,7.8-3,3.6-4.1,3.6-6.3-.7-3.7-1.9-4.5c-1.3-.8-2.9-1.2-4.7-1.2-2.9,0-5.7.9-8.4,2.6-2.7,1.8-4,3.9-4,6.4s.8,3.6,2.4,4.6Z"/>
          <path d="M1218.1,826.2h.2-.2Z"/>
          <path d="M1292.2,866.7h0c-1.2,2.9-2.9,5.2-5,6.9s-4.2,2.9-6.4,3.7-4.1,1.1-5.6,1.1-3.1-.3-4.4-.9c2.8-4.2,5.2-8.8,7.2-13.5,2-4.8,3-9.1,3-12.9s-.9-6.4-2.7-8.9c-1.8-2.5-5-3.7-9.4-3.7s-7.4,1-9.9,3.1c-2.4,2.1-4.2,4.5-5.3,7.3-1.1,2.8-1.6,5.3-1.6,7.5,0,5.1.7,9.4,2.2,13,1.4,3.6,3.8,6.9,7.2,9.9-2.5,2.9-5.1,5.5-7.9,7.7s-5.1,3.3-7.1,3.3-3.3-.7-4.1-2c-.8-1.3-1.2-3.1-1.2-5.1s.3-4.6.9-7.2c.6-2.6,1.5-5.2,2.6-7.7s2.3-5,3.6-7.2c1.3-2.3,2.6-4.2,3.8-5.8-.4-.5-1.1-.9-2.1-1.2s-1.8-.4-2.6-.4c-2.3,0-4.5.9-6.8,2.7s-4.2,4.2-6.1,7.2c-1.8,3-3.2,6.2-4.3,9.7-.2.5-.3,1.1-.4,1.6-2.8,4.4-5.5,7.8-8.1,10-4.2,3.5-8,5.3-11.5,5.3s-4-.5-5.2-1.6-1.8-3.3-1.8-6.6.8-7,2.4-10.8,3.5-7.4,5.6-11c2.1-3.5,4-6.6,5.6-9.3s2.4-4.7,2.4-6.1-.5-2.6-1.4-3.3c-.9-.8-2-1.2-3.3-1.2-2.3,0-4.6,1.1-6.8,3.3-2.3,2.2-4.4,5.1-6.4,8.6s-3.7,7.3-5.2,11.3c-1,2.8-1.9,5.4-2.6,8-1.5,2.5-3.1,4.7-4.8,6.8-2.9,3.5-5.8,6.1-8.6,7.8-2.8,1.8-5.3,2.7-7.6,2.7s-1.9-.4-2.4-1.3-.7-2.6-.7-5.1c0-5.6.9-11.6,2.6-18s3.9-12.9,6.5-19.5,5.5-13,8.6-19.3,5.9-12.1,8.6-17.5c1.3-2.7,2.5-5.3,3.6-7.6h9c1.7,0,3-1.3,3-3v-107.5c0-1.7-1.3-3-3-3h-90c-1.7,0-3,1.3-3,3v107.5c0,1.7,1.3,3,3,3h66.7c-1.6,3.2-3.3,6.7-5,10.5-2.5,5.7-5,11.6-7.5,17.8s-4.9,12.2-7.2,18.1c-3.3,8.6-7,16-11.1,22.2s-8.1,10.9-12,14.2-7.2,4.9-10,4.9-2.9-.6-3.7-1.8c-.8-1.2-1.2-2.8-1.2-4.7s.5-5.2,1.6-8.5c1-3.3,2.5-6.7,4.4-10.2s4.2-6.8,6.8-9.8c2.6-3,5.4-5.5,8.6-7.4,3.1-1.9,6.4-2.9,9.8-2.9s2.2,0,3.3.4,1.8.7,2.2,1.3c.8-.5,1.3-1.1,1.6-1.8.2-.7.3-1.3.3-1.8,0-1.8-.7-3-2-3.8s-3.2-1.2-5.6-1.2c-4.4,0-8.7,1.1-12.9,3.3s-8.3,5-12.1,8.6c-3.8,3.5-7.1,7.4-10,11.7-2.8,4.2-5.1,8.5-6.8,12.8-.4,1.1-.8,2.1-1.1,3.1-1.1,1.6-2.2,3.1-3.4,4.5-3.2,3.7-6.3,6.6-9.3,8.6s-5.6,3-7.8,3-2.8-.5-3.3-1.6-.9-2.4-.9-3.8c0-2.5.5-5.4,1.5-8.6s2.1-6.5,3.4-9.6,2.4-5.8,3.4-8,1.5-3.5,1.5-3.8c0-1.2-.6-2.2-1.7-2.9s-2.5-1.2-4-1.6c-1.5-.4-2.7-.7-3.7-.8-1,2.3-2.4,5.1-4,8.4s-3.4,6.7-5.4,10.3c-2,3.5-4.1,6.8-6.2,9.9-2.1,3.1-4.2,5.5-6.2,7.5s-3.9,2.9-5.7,2.9-2.7-.7-3.3-2c-.6-1.3-1-2.8-1.2-4.4-.2-1.5-.2-2.5-.2-3,0-3.2.6-6.8,1.9-10.7,1.2-3.9,2.7-7.6,4.3-11,1.6-3.4,3-6,4.1-7.6-1.1-1.1-2.5-2.1-4-2.9s-2.6-1.2-3.3-1.2c-1.3,0-2.8,1.2-4.4,3.7s-3.2,5.6-4.7,9.3-2.7,7.6-3.7,11.5c0,.5-.2.9-.3,1.3-3.2,5-6.7,9.3-10.5,12.6-5.4,4.7-10.8,7.1-16,7.1s-5-.9-6.4-2.7c-1.3-1.8-2-4.8-2-9s.8-10.3,2.4-15.6c1.6-5.3,3.5-10.5,5.7-15.6h1.9c4.4,0,8.9-.3,13.7-.6s10-.7,15.7-1.2v-5.1c-3.8.4-7.6.7-11.3.9-3.7.2-7.8.2-12.4.2h-4.8c2.9-5.8,5.9-11.3,9-16.4,3.1-5.1,5.7-9.6,7.9-13.5,2.1-3.8,3.2-6.8,3.2-8.9s-.5-2.6-1.4-3.3c-.9-.8-1.9-1.2-3-1.2-1.8,0-3.8,1.2-6.1,3.5-2.3,2.3-4.7,5.5-7.2,9.6s-5.1,8.6-7.6,13.8c-2.5,5.1-4.9,10.5-7.1,16-1.1,0-2.3-.2-3.3-.3-1.1,0-2.5-.3-4.1-.5v4.8c.9.4,1.9.7,2.9.9s1.8.3,2.6.5c-2.5,6.7-4.5,13.3-6.1,19.6s-2.4,11.6-2.4,15.9,1.4,9.6,4.2,12.3,6.5,4,11,4,9.8-1.4,14.5-4.3c4.7-2.8,9-6.8,13-11.8,1.1-1.3,2.1-2.8,3.1-4.2v1.5c0,4.2,1.1,8,3.3,11.3s5.1,4.9,8.6,4.9,5.1-.9,7.4-2.6,4.5-4,6.6-6.6,4-5.4,5.8-8.2v3.1c0,2.3.4,4.5.9,6.8.5,2.2,1.5,4,3,5.5s3.8,2.1,6.8,2.1,8-1.3,12.1-3.8,8-6,11.7-10.5v.3c0,3.2.7,5.9,2.1,7.9,1.4,2.1,3.1,3.6,5.1,4.6s4,1.5,6,1.5c3.1,0,6.4-1,9.8-3.1s6.9-5,10.5-8.6,7-7.9,10.2-12.5c-.3,1.7-.6,3.3-.9,5.1-.3,1.7-.4,3.4-.4,5.1,0,3.6.8,6.8,2.5,9.5s4.6,4,8.9,4,7.9-1.2,12-3.7,7.8-5.8,11.4-10.2c.2-.2.3-.5.5-.7v1.3c0,3.8,1.1,7.1,3.4,9.8s5.7,4,10.3,4,12.4-2.5,18.1-7.6c2-1.8,3.9-3.9,5.6-6.2,0,3.5.9,6.7,2.5,9.6,1.7,3.1,4.9,4.6,9.6,4.6s9.3-1.6,13.8-4.7c4.6-3.1,8.6-6.7,12.1-10.9,1.1.4,2.4.8,3.7,1s2.7.4,4,.4c3.6,0,7.3-1.2,11.1-3.7,3.8-2.4,6.8-6.3,9.1-11.6l-2.8-2v-.4h0ZM1118.2,797.5v-107.5h90v107.5h-7.6c.5-1.2,1-2.3,1.5-3.3,1.7-3.9,2.6-6.7,2.6-8.5s-.4-2.5-1.3-3.3-1.9-1.3-3-1.3c-1.9,0-3.9,1.3-6.1,4s-4.6,6.2-7,10.7c-.3.6-.6,1.1-.9,1.7h-68.2ZM1265.5,874.1c-1.4-1.8-2.6-4.2-3.3-7.3-.8-3.1-1.2-5.8-1.2-7.9,0-4.2,1-7.8,3.1-10.6s4.1-4.2,6.1-4.2,2.5.5,3.3,1.6c.7,1.1,1.1,2.8,1.1,5.2,0,3.5-.9,7.4-2.7,11.5-1.8,4.2-3.9,8-6.4,11.7Z"/>
          <path d="M920,775.3l-18.9-17c-.5-.5-1.3-.8-2-.8h-.4c-.9,0-1.7.6-2.1,1.3-4.8,7.4-13.1,11.8-22.3,11.8s-12.4-2.3-16.2-6.9c-3.9-4.7-6-11.6-6-20,0-17,8.3-27.1,22.2-27.1s17.7,4.4,22.2,11.9c.5.8,1.2,1.3,2.1,1.4h.5c.7,0,1.4-.2,1.9-.7l19.6-16.5c1.2-1,1.4-2.7.6-3.9-10-15.5-26.7-24-46.9-24-34.1,0-57.9,24.3-57.9,59s5.3,31.9,15.5,42.5c10.4,10.8,25,16.5,42.4,16.5s36.3-8.2,46.2-23.7c.8-1.2.6-2.9-.5-3.8h0ZM874.3,799.7c-34.1,0-54.9-22.9-54.9-56s22.5-56,54.9-56h0c19.8,0,35.2,8.6,44.4,22.7l-19.6,16.5c-5.2-8.5-14.5-13.3-24.8-13.3-15.8,0-25.2,11.6-25.2,30.1s9.5,29.9,25.2,29.9,19.5-5,24.8-13.2l18.9,17c-9,14.2-23.9,22.3-43.7,22.3h0Z"/>
          <polygon points="874.3 684.8 874.3 684.8 874.3 684.8 874.3 684.8"/>
          <path d="M977.3,684.8h0Z"/>
          <path d="M977.4,773.6c16.2,0,25.4-11.3,25.4-29.9s-9.2-30.1-25.4-30.1-25.2,11.6-25.2,30.1,9.2,29.9,25.2,29.9ZM977.4,716.6c14.1,0,22.4,9.9,22.4,27.1s-8.2,26.9-22.4,26.9-22.2-9.8-22.2-26.9,8.1-27.1,22.2-27.1Z"/>
          <path d="M1046.3,800.5h60.2c1.7,0,3-1.3,3-3v-25.5c0-1.7-1.3-3-3-3h-28.2v-79c0-1.7-1.3-3-3-3h-29c-1.7,0-3,1.3-3,3v107.5c0,1.7,1.3,3,3,3ZM1046.2,690h29v82h31.2v25.5h-60.2v-107.5Z"/>
          <path d="M1147.2,772h32.1v-56.9h-32.1v56.9ZM1150.2,718.1h26.1v50.9h-26.1v-50.9Z"/>
          <path d="M1267.5,715.2h-12v21.3h12c7,0,11.2-4.9,11.2-10.7s-4.2-10.6-11.2-10.6ZM1267.5,733.4h-9v-15.3h9c5.7,0,8.2,3.8,8.2,7.6s-2.5,7.7-8.2,7.7Z"/>
          <path d="M1291.2,756c12.2-6.2,19.4-17.7,19.4-31.3s-4.1-19.9-11.6-27c-7.5-7-17.7-10.9-28.8-10.9v.2h-43.7c-1.7,0-3,1.3-3,3v107.5c0,1.7,1.3,3,3,3h28.9c1.7,0,3-1.3,3-3v-30.7l16.8,32c.5,1,1.5,1.6,2.7,1.6h32.7c1.1,0,2.1-.6,2.6-1.5s.6-2,0-3l-22.1-39.9h0ZM1278,797.4l-20.8-39.5h-1.7v39.5h-28.9v-107.5h43.7c21.3,0,37.4,15.3,37.4,34.9s-8.2,24.8-20.6,29.9l23.6,42.7h-32.7Z"/>
          <path d="M1375.4,734.9l-20.6-12.6c-2.6-1.5-3.7-2.5-3.7-4.3s1.8-2,2.4-2c1.7,0,5.2,0,9.2,8.8.5,1.1,1.6,1.8,2.7,1.8s.7,0,1.1-.2l24.8-9.3c1.5-.6,2.3-2.2,1.8-3.7-5.9-18.9-19.1-28.5-39.1-28.5h0c-24.1,0-37.1,17.8-37.1,34.6s11.3,26.3,18.7,30.9l.5.3,17.5,10.8c4.7,2.9,4.7,4.7,4.7,6.2s-.5,3.5-3.7,3.5c-5.5,0-8-6.1-9.9-12.7-.2-.8-.8-1.5-1.6-1.9s-.9-.3-1.3-.3-.8,0-1.1.2l-25.1,9.9c-1.3.5-2.1,1.9-1.9,3.3,1.7,9.6,5.8,17.6,11.9,23.3,7.1,6.6,16.7,10,28.4,10,23.3,0,39.5-14.7,39.5-35.7s-9.9-27.3-18.2-32.4h0ZM1354.3,799.9c-21.2,0-34.5-14.2-37.4-30.8l25.1-9.9c1.4,5,4.3,14.9,12.8,14.9s6.7-3.3,6.7-6.5-1-5.6-6.2-8.7l-17.5-10.7c-7.2-4.4-17.8-10.6-17.8-28.7s12.9-31.7,34.1-31.7h0c19.9,0,31.1,9.9,36.2,26.4l-24.8,9.3c-4.2-9.2-8.3-10.6-11.9-10.6s-5.4,1.9-5.4,5,2.7,5.4,5.2,6.9l20.6,12.6c7.6,4.6,16.8,13.5,16.8,29.8s-15.3,32.7-36.5,32.7h0Z"/>
        </g>
      </g>
    </g>
  </g>
  <g id="Map">
    <g id="Biography_button">
      <rect class="st6" x="445.9" y="634.3" width="242.1" height="324.1"/>
      <g>
        <g>
          <path d="M537.9,751.6h-22.8l-18.3-64.1h18.7l11.1,47.2h.3l11.2-47.2h18l-18.3,64.1h0Z"/>
          <path d="M574.6,705.5c5,0,8.7,1.2,11.3,3.8h.3c0-.3-.2-.7-.2-1.2v-1.3h15.7v44.7h-15.7v-1.3c0-.6,0-1.3.2-1.6h-.3c-2.9,2.9-7,4.3-12.1,4.3-12,0-20.7-9.5-20.7-23.7s9.2-23.8,21.5-23.8h0ZM585.4,729c0-5.4-3.2-8.7-7.6-8.7s-7.5,3.3-7.5,8.7,3.1,9,7.5,9,7.6-3.5,7.6-9Z"/>
          <path d="M652.2,706.9v44.7h-17.1v-30.1h-7.7v30.1h-17.1v-44.7h41.9,0Z"/>
          <path d="M487.5,781.6h32.9c.3,1,.5,3.1.5,7.1,0,18-11.5,31.2-31,31.2s-32.8-13.7-32.8-33.4,13.4-33.4,32.8-33.4,21,5,26.3,13.4l-11.6,9.8c-3.2-5-8.6-8-14.7-8-9.6,0-15.3,7-15.3,18.1s5.8,18.1,15.3,18.1,11.5-3.2,13.4-8h-15.8v-15h0Z"/>
          <path d="M525.5,796.2c0-14,10.1-23.8,24.3-23.8s24.3,9.8,24.3,23.8-10.1,23.7-24.3,23.7-24.3-9.8-24.3-23.7ZM557,795.9c0-5.4-2.7-8.7-7.2-8.7s-7.2,3.3-7.2,8.7,2.7,9,7.2,9,7.2-3.5,7.2-9Z"/>
          <path d="M598.9,772.4c5,0,9,1.5,11.9,4.5h.3c0-.4-.2-1.1-.2-1.6v-1.5h15.7v64.4h-32.8v-14.8h16v-8.4h-.3c-2,2-6,3.1-10.3,3.1-12.2,0-20.8-9.1-20.8-22.8s8.6-22.8,20.4-22.8h0ZM595.6,795.1c0,5,3,8,7.4,8s7.4-3,7.4-8-3.1-7.9-7.4-7.9-7.4,3-7.4,7.9Z"/>
          <path d="M635.2,818.5v-64.1h17.1v19.4h24.7v44.7h-17v-30.1h-7.7v30.1h-17.1Z"/>
        </g>
        <g>
          <g>
            <path class="st15" d="M479.9,883.8l.4-1.3c.3-1,1.3-3.2,3-6.9,1.6-3.5,3.8-8.3,6.6-14.2l9.8-21.1c4.1-8.9,8.4-18.2,12.6-27.5.2-.5.4-1,.6-1.5,0-.5.2-.9.2-1.3s-.2-.8-.3-.9c0,0-.4-.3-1.6-.3-2.5,0-4.5.7-6.1,2.3s-2.8,3.5-3.6,5.8c-.8,2.3-1.2,4.7-1.2,6.9s0,1.3,0,2,.2,1.7.3,2.6v1.1c.1,0-1,0-1,0-1.8,0-3.4-.6-4.6-1.7-1.1-1.1-2-2.4-2.6-4-.6-1.5-.9-3-.9-4.4,0-2.3.7-4.5,2-6.7,1.3-2.1,3-4,5-5.7s4.4-3,6.9-4c2.6-1,5-1.5,7.6-1.5s5,.8,6.9,2.3,3.3,4.1,4.3,7.9c.9,3.6,1.4,8.8,1.4,15.5s-.2,8.7-.5,13.1c-.3,4.1-.6,8.3-.9,12.4,0,1.2-.2,2.4-.3,3.5.8-2.2,1.8-4.4,2.8-6.6,1.9-4.3,4-8.7,6.3-13.2,2.3-4.4,4.5-8.5,6.7-12.3,2.3-4,4.2-7.3,5.9-10.1,1.9-3.1,3.2-5.1,4.1-6.4.9-1.5,1.8-2.6,2.6-3.4.9-.9,2.2-1.4,3.7-1.4s2.6.4,4.7,1.2l-.3.9.9.4c-.6,1.2-1.3,3.2-2,5.9-.8,2.7-1.6,5.9-2.6,9.6-1,4.1-2,8.5-3,13-1,4.9-1.9,9.7-2.7,14.3-.8,4.7-1.4,9.3-1.9,13.7-.5,4.3-.7,8.1-.7,11.4s0,3,.2,3.9.4,1.8.6,2.4c.3.8.7,1.8,1.1,3l.4,1.3h-1.4c-3.1,0-5.4-.5-7-1.4-1.7-1-2.9-2.6-3.4-4.7-.5-2-.8-4.6-.8-7.8,0-7.4.9-15.3,2.6-23.4,1.3-6.2,2.8-12.7,4.4-19.2-.8,1.3-1.6,2.7-2.4,4.2-2,3.7-4,7.5-5.8,11.5-1.9,4-3.7,8-5.5,12-1.7,4-3.3,7.7-4.6,10.9s-2.3,6-3.1,8.3l-.2.5-.5.2c-.6.2-1,.3-1.3.4h-1.1c-2,0-4.5-.9-5.4-5-.6-2.9-1-6.8-1-11.8v-8.3c0-2.9.2-6,.3-9.1s.2-6.2.3-9.2v-8.7c0-2.9,0-.8,0-1.2-4.4,10.4-8,18.8-10.9,25.8-3.4,8.2-6.4,15.1-8.9,20.3s-4.8,9.2-6.9,11.7c-2.2,2.6-4.7,4-7.2,4h-1.4.4Z"/>
            <path d="M513.1,802.5c2.5,0,4.5.7,6.3,2,1.7,1.4,3,3.8,4,7.4.9,3.5,1.4,8.6,1.4,15.3s-.2,8.7-.5,13.1c-.3,4.4-.6,8.5-.9,12.4-.3,3.8-.5,7.1-.5,9.8,1.3-3.9,3-8.1,4.9-12.5,2-4.4,4.1-8.8,6.3-13.1s4.5-8.4,6.7-12.3c2.2-3.8,4.1-7.2,5.9-10.1,1.8-2.9,3.1-5,4-6.4.9-1.5,1.8-2.6,2.5-3.3s1.7-1.1,3-1.1,2.4.4,4.4,1.1h0c-.6,1.3-1.3,3.3-2.1,6-.8,2.8-1.7,6-2.6,9.6-1,4-2,8.3-3,13.1s-1.9,9.5-2.7,14.4c-.8,4.8-1.4,9.4-1.9,13.8-.5,4.3-.8,8.2-.8,11.5s0,3.1.2,4.1.4,1.9.7,2.6c.3.8.6,1.7,1,2.9-2.9,0-5-.4-6.5-1.3s-2.5-2.2-3-4.1-.8-4.4-.8-7.5c0-7.4.8-15.1,2.5-23.2s3.7-16.5,5.9-25.1c-1.9,2.7-3.8,5.8-5.8,9.4-2,3.6-3.9,7.5-5.9,11.5-1.9,4-3.8,8-5.5,12-1.7,3.9-3.2,7.6-4.6,10.9-1.3,3.4-2.4,6.2-3.1,8.4-.6.2-1,.3-1.2.4h-.8c-2.3,0-3.8-1.4-4.4-4.2s-.9-6.7-.9-11.6v-8.3c0-2.9.2-6,.3-9s.2-6.1.3-9.2v-14.7c-5,11.7-9.3,21.8-12.8,30.1s-6.4,15.1-8.9,20.3-4.7,9-6.8,11.4-4.2,3.6-6.5,3.6c.3-1,1.3-3.3,2.9-6.8s3.8-8.3,6.6-14.2,6-13,9.8-21.1c3.8-8.2,8-17.3,12.6-27.5.3-.5.5-1.1.7-1.7.2-.6.2-1.1.2-1.6s-.2-1.2-.6-1.6-1.2-.6-2.3-.6c-2.8,0-5,.8-6.8,2.5s-3.1,3.8-3.9,6.2c-.8,2.5-1.2,4.9-1.2,7.3s0,1.3.1,2.1c0,.8.2,1.7.3,2.7-1.6,0-2.9-.5-3.9-1.4s-1.8-2.2-2.3-3.6c-.5-1.4-.8-2.8-.8-4,0-2.1.6-4.2,1.8-6.2,1.2-2,2.8-3.8,4.8-5.4,2-1.6,4.2-2.9,6.6-3.8,2.4-.9,4.8-1.4,7.2-1.4M513.1,800.5c-2.7,0-5.3.5-7.9,1.5s-5,2.4-7.2,4.1c-2.2,1.8-3.9,3.7-5.3,5.9-1.4,2.3-2.1,4.7-2.1,7.2s.3,3.1.9,4.7c.6,1.7,1.6,3.2,2.8,4.3,1.4,1.3,3.2,2,5.3,2h2.3l-.3-2.3c-.1-.9-.2-1.8-.3-2.6v-1.9c0-2.2.4-4.4,1.1-6.6.7-2.2,1.8-3.9,3.4-5.4,1.4-1.3,3.2-2,5.4-2s.7,0,.9,0h0c0,.3,0,.6-.2,1.1-.1.5-.3.9-.5,1.3h0c-4.3,9.4-8.5,18.6-12.6,27.5l-5.9,12.6-3.9,8.5c-3,6.4-5,10.9-6.6,14.2-1.7,3.7-2.7,5.9-3,7l-.9,2.6h2.8c2.9,0,5.5-1.5,8-4.3,2.2-2.6,4.5-6.6,7-11.9,2.5-5.3,5.5-12.1,8.9-20.4,2.5-6,5.5-13,9-21.3v5c0,3-.2,6.1-.3,9.2,0,3.1-.2,6.1-.3,9.1v8.3c0,5.1.3,9,1,12,1.1,5,4.5,5.8,6.4,5.8s1,0,1.4-.2c.2,0,.7-.2,1.3-.4l1-.3.3-1c.7-2.3,1.8-5.1,3-8.3,1.3-3.2,2.8-6.9,4.5-10.9,1.7-3.9,3.6-8,5.4-11.9,1.5-3.2,3.1-6.3,4.6-9.3-1,4.1-1.9,8.2-2.7,12.1-1.7,8.2-2.6,16.1-2.6,23.6s.3,5.9.8,8c.6,2.4,2,4.2,3.9,5.3,1.8,1,4.3,1.6,7.5,1.6h2.8l-.9-2.6c-.4-1.2-.8-2.2-1.1-3-.2-.6-.4-1.4-.6-2.3,0-.9-.2-2.1-.2-3.7,0-3.2.2-7,.7-11.3.5-4.4,1.2-9,1.9-13.7.8-4.6,1.6-9.4,2.7-14.3.9-4.5,1.9-8.9,3-13,.9-3.6,1.8-6.8,2.6-9.5.7-2.6,1.4-4.5,2-5.7l-1.8-.9.7-1.8c-2.2-.8-3.9-1.2-5.1-1.2-1.8,0-3.3.6-4.4,1.7s-1.8,2.1-2.8,3.6c-.9,1.4-2.2,3.4-4.1,6.5-1.7,2.8-3.7,6.2-5.9,10.1-2.2,3.8-4.4,7.9-6.7,12.3-2.3,4.5-4.5,8.9-6.4,13.2,0,.3-.2.6-.4.8.3-3.2.5-6.5.7-9.6.3-4.4.5-8.9.5-13.2,0-6.9-.5-12-1.5-15.8-1.1-4-2.6-6.8-4.7-8.4-2.1-1.6-4.6-2.5-7.5-2.5h0l.3.8h-.1Z"/>
          </g>
          <g>
            <path class="st15" d="M598.3,903c-.7,0-1.4-.2-2.1-.6-.7-.3-1.3-.7-1.8-1.2-.6-.5-.9-1-1-1.5v-.6c1.6-4.8,3-9,4.2-12.6,1.1-3.4,2.1-6.8,2.9-10,.5-2,1-4,1.4-6.2-1.9,2.1-3.9,3.9-6,5.2-2.6,1.7-5.3,2.5-8,2.5s-5.3-1-6.9-3c-1-1.4-1.7-2.8-2.1-4.3-2.1,2.4-4.1,4.4-5.9,5.9-2.4,2-5,3-7.8,3s-4.6-.8-6.4-2.4c-1.8-1.6-2.8-4.1-2.8-7.3s.6-5.1,1.7-7.9c1.1-2.8,2.6-5.6,4.5-8.3s4.1-5.2,6.5-7.4,5.1-4,7.9-5.4c2.9-1.4,5.6-2.1,8.6-2.1s5.7.8,7.9,2.4c2.2,1.6,3.4,3.9,3.4,6.6s-1.3,4.1-2.4,4.7c-.3.2-.7.4-1,.5.8.7,1.3,1.5,1.3,2.5s-.3,1.8-1,3c-.6,1.1-1.3,2.3-2,3.4-.8,1.2-1.4,2.4-1.9,3.6-.5,1.1-.7,2.1-.7,3.1s.2,1.3.6,1.9c.2.3.5.7,1.4.7s2.7-.6,6.1-3.3c2.3-1.9,4.7-4.9,7.1-9.1v-.5c.2-1.1.4-2.2.6-3.4.7-4.8,1.4-10.1,2.1-15.9.2-1,.4-1.6.6-2.1.5-1,1.8-1.1,2.8-1.1,2.3,0,4.1.7,5.2,2,1.1,1.3,1.6,2.7,1.6,4.3s0,1.8-.4,3.6c0,.5-.2,1-.2,1.6.6-.7,1.2-1.4,1.8-2,1.7-1.8,3.6-3.3,5.7-4.4,2.1-1.2,4.5-1.8,6.9-1.8,3.5,0,6.5,1.2,8.8,3.6l1.6,1.7h-.3c1.4,2.1,2.1,4.7,2.1,7.7s-.6,5.6-1.8,8.6-2.9,5.8-5.1,8.4c-2.2,2.6-4.9,4.8-7.9,6.5-3.1,1.7-6.6,2.6-10.3,2.6s-4.1-.3-5.5-.9c-1.6-.7-2.4-1.5-2.5-2.6-1.2,5-2.1,8.7-2.9,11.9-.9,3.8-1.9,7-2.9,9.5-1,2.8-2.2,4.6-3.4,5.7-.7.6-1.5.9-2.3.9v.3h0ZM613.2,861.8c-1.1,3.9-2.2,7.9-3.2,12,.3-.4.7-.7,1.3-.8s1.2-.2,1.8-.2c2.9,0,5.7-.7,8.1-1.9,2.4-1.2,4.5-2.8,6.3-4.7s3.2-4,4.1-6.2c.9-2.2,1.4-4.4,1.4-6.5s-.4-3.4-1.2-4.6c-.7-1.2-1.8-1.7-3.4-1.7s-2.9.5-4.5,1.4c-1.6,1-3.1,2.3-4.5,3.9-1.4,1.6-2.7,3.2-3.8,4.9s-1.9,3.2-2.5,4.4h.1ZM585.5,844.7c-1.7,0-3.4.6-5.1,1.7-1.8,1.2-3.6,2.8-5.3,4.7-1.7,2-3.3,4.1-4.6,6.5-1.3,2.3-2.4,4.7-3.2,6.9s-1.1,4.2-1.1,5.9.8,2.2,1.3,2.2c1.3,0,2.8-.7,4.4-2,1.8-1.5,3.6-3.3,5.5-5.5s3.7-4.5,5.4-6.9c1.7-2.3,3.2-4.3,4.4-6,.3-.5.7-.8,1.2-.9,0-.3,0-.6.2-.9v-1.7c0-1.2-.2-2.2-.7-3.1,0-.3-.5-1-2.5-1h0Z"/>
            <path d="M610,837c2,0,3.5.5,4.5,1.6.9,1.1,1.4,2.3,1.4,3.6s0,1.8-.3,3.5c-.2,1.6-.6,3.6-1,5.9,1.2-1.9,2.7-3.8,4.3-5.5s3.4-3.1,5.4-4.2c2-1.1,4.1-1.6,6.5-1.6s5.9,1.1,8,3.3h0c2.1,2.2,3.2,5.1,3.2,8.6s-.6,5.3-1.7,8.2-2.8,5.6-4.9,8.2-4.7,4.6-7.7,6.3c-3,1.6-6.3,2.4-9.8,2.4s-3.8-.3-5.1-.8-1.9-1.1-1.9-1.8.2-.7.8-.8c.5,0,1-.2,1.6-.2,3.1,0,6-.7,8.5-2s4.8-2.9,6.6-4.9c1.9-2,3.3-4.2,4.3-6.5s1.5-4.6,1.5-6.9-.5-3.7-1.3-5.2c-.9-1.5-2.3-2.2-4.2-2.2s-3.3.5-5,1.6-3.3,2.4-4.7,4c-1.5,1.6-2.8,3.3-3.9,5.1-1.1,1.8-2,3.3-2.6,4.6-1.3,4.4-2.4,8.7-3.4,13.1-1,4.3-2,8.4-2.9,12.1s-1.9,6.9-2.8,9.4c-1,2.6-2,4.3-3.1,5.3-.5.5-1.1.7-1.7.7s-1.1-.2-1.7-.5c-.6-.3-1.1-.6-1.5-1s-.7-.7-.8-1c1.6-4.8,3.1-9,4.2-12.6,1.2-3.5,2.1-6.9,2.9-10s1.5-6.4,2.1-9.8v-.4c-.4.6-.8,1.1-1.3,1.7-2.2,2.8-4.6,4.9-7,6.5-2.5,1.5-4.9,2.3-7.5,2.3s-4.7-.9-6.1-2.6c-1.3-1.7-2.1-3.6-2.2-5.6v-.5c-2.7,3.2-5.1,5.7-7.3,7.5-2.2,1.9-4.6,2.8-7.1,2.8s-4.1-.7-5.7-2.2c-1.6-1.5-2.4-3.6-2.4-6.6s.5-4.8,1.6-7.5,2.5-5.4,4.4-8c1.8-2.7,4-5.1,6.4-7.2,2.4-2.1,4.9-3.9,7.7-5.2,2.7-1.3,5.3-2,8.2-2s5.3.7,7.3,2.2,3,3.4,3,5.8-.6,3.1-1.9,3.9c-.9.6-1.9.8-3,.8h-1.4c0-.6.2-1.2.3-1.8s.2-1.2.2-1.9c0-1.3-.3-2.5-.8-3.6s-1.7-1.6-3.4-1.6-3.8.6-5.7,1.9c-1.9,1.3-3.8,2.9-5.5,4.9-1.8,2-3.3,4.2-4.7,6.7s-2.5,4.8-3.3,7.1-1.2,4.4-1.2,6.3.8,3.2,2.3,3.2,3.2-.8,5.1-2.2c1.9-1.5,3.7-3.4,5.6-5.6,1.9-2.2,3.7-4.6,5.4-6.9,1.7-2.4,3.2-4.4,4.5-6,.2-.3.5-.5.8-.5h.4c.3,0,.7.2,1.1.3.8.2,1.5.6,2.1,1,.7.5,1,1.1,1,1.8s-.3,1.5-.8,2.5c-.6,1-1.2,2.2-2,3.4s-1.4,2.5-2,3.7-.8,2.4-.8,3.5.2,1.7.7,2.4c.5.8,1.2,1.1,2.3,1.1,1.6,0,3.8-1.2,6.7-3.5,2.4-2,4.9-5.2,7.4-9.5.2-1.3.4-2.7.6-4.1.6-4.4,1.4-9.7,2.1-16,0-.8.3-1.4.5-1.7s.8-.5,1.9-.5M610,835c-.8,0-2.8,0-3.6,1.6s-.5,1.3-.7,2.3h0c-.7,5.8-1.5,11.2-2.1,15.9-.2,1.2-.3,2.3-.5,3.4v.2c-2.4,4-4.7,6.9-6.8,8.7-3.4,2.8-4.9,3.1-5.4,3.1s-.5,0-.6-.2c-.3-.4-.4-.9-.4-1.4,0-.8.2-1.7.7-2.7.5-1.1,1.1-2.3,1.9-3.5.7-1.2,1.4-2.3,2-3.5.8-1.4,1.1-2.5,1.1-3.5s0-1.4-.7-2.2c1.3-.8,2.7-2.4,2.7-5.5s-1.3-5.5-3.8-7.4c-2.3-1.7-5.2-2.6-8.4-2.6s-6,.7-9,2.2c-2.9,1.4-5.6,3.3-8.1,5.5s-4.7,4.8-6.7,7.5c-1.9,2.7-3.5,5.6-4.6,8.5s-1.7,5.7-1.7,8.3,1,6.2,3.1,8c2,1.8,4.4,2.7,7,2.7s5.8-1.1,8.4-3.2c1.5-1.3,3.2-2.9,4.9-4.8.4,1,1,2,1.7,3,1.7,2.2,4.3,3.4,7.6,3.4s5.8-.9,8.5-2.6c1.3-.8,2.5-1.8,3.7-2.9-.2.9-.4,1.9-.7,2.8-.8,3.2-1.8,6.5-2.9,9.9-1.2,3.5-2.6,7.7-4.2,12.5l-.2.6.2.6c.2.7.6,1.3,1.3,2,.6.5,1.3,1,2,1.4.9.4,1.7.6,2.6.6s2.1-.4,3-1.2c1.4-1.2,2.6-3.2,3.7-6.1,1-2.6,1.9-5.8,2.9-9.6.7-2.7,1.4-5.8,2.3-9.6.5.4,1,.7,1.7,1,1.5.6,3.4.9,5.8.9,3.9,0,7.5-.9,10.8-2.7,3.2-1.7,6-4,8.2-6.7s4-5.6,5.2-8.7c1.3-3.1,1.9-6.1,1.9-8.9s-.4-4.6-1.3-6.5h1l-3.4-3.5c-2.5-2.6-5.7-3.9-9.5-3.9s-5.1.6-7.4,1.9c-2,1.1-3.9,2.5-5.5,4.2,0-.9.2-1.6.2-2.1,0-1.8-.6-3.5-1.9-4.9-1.3-1.6-3.3-2.3-6-2.3h0ZM567.2,871.7s-.2-.4-.2-1.2c0-1.6.4-3.5,1.1-5.6.8-2.2,1.8-4.5,3.1-6.8s2.8-4.4,4.5-6.3c1.6-1.9,3.3-3.4,5.1-4.6,1.6-1,3.1-1.6,4.6-1.6s1.4,0,1.6.5c.4.8.6,1.7.6,2.7v1.9c-.5.2-.9.6-1.2,1.1-1.3,1.7-2.8,3.7-4.4,6-1.7,2.3-3.5,4.6-5.3,6.8-1.8,2.1-3.6,3.9-5.3,5.3-1.5,1.2-2.8,1.8-3.8,1.8s0,0,0,0h-.4,0ZM614.2,862.1c.6-1.2,1.4-2.6,2.4-4.2,1.1-1.7,2.3-3.3,3.7-4.8,1.3-1.5,2.8-2.7,4.3-3.7,1.4-.9,2.7-1.3,4-1.3s2.2.7,2.5,1.2c.7,1.2,1,2.5,1,4.1s-.4,4-1.3,6.1c-.9,2.1-2.2,4.1-3.9,5.9-1.7,1.8-3.7,3.3-6,4.5-2.3,1.1-4.8,1.7-7.7,1.8h-1.6c.8-3.3,1.7-6.6,2.6-9.8h0v.2Z"/>
          </g>
        </g>
      </g>
    </g>
  </g>
  <g id="Receptioner1">
    <path d="M1024.4,469.5c-.3-1.9-1.8-8.9-4.2-8.7-5.4,1.3-1.4,8-1.1,12,.4,4.9-.6,11.5-2.6,16h8c.7-6.5,1-12.9-.2-19.3h0Z"/>
    <path d="M873.5,427.8c1.2-4.8,2.8-12.4,5.1-16.6,4.9-8.9,24.6-12.2,33.6-15.8,1.4,0-4.4,21.5-3.5,24.5,1,3.4,14.1,6.3,17.6,7-3.4,5-13.7,8.2-11.5,15.1,9.7,15.7,21.4,30.2,29.6,46.7h14.2l-20.4-81.6c6.2,1.4,9.7,3.4,16,.6,1.4-.6,4.3-3.2,5.3-3.2s5.3,3.6,7.7,4.1c4.8,1.2,8.9.4,13-2.2-4.9,27.5-12.4,54.5-20.3,81.3l-1.4.9h16c1.2-3,3.1-5.8,4.7-8.5,7-11.6,15.3-23.7,21.9-35.4,1-1.8,3.6-6.4,3.2-8.1-.9-3.4-8.3-6.6-10.9-8.9,0-1.5,15.8-5,17-8.7,1.7-5.5-5.4-18.2-4.1-24.6,8.2,3.3,17.8,5.6,25.8,9.1,10.3,4.5,11.5,14.2,13.8,24.3,3.7,16.2,8.5,39.5,10,55.8.2,1.6,0,3.2,0,4.9h9.6c0-.1-.2-.3-.3-.4-2.1-17.5-4.7-35-8.3-52.2-2.8-13.5-5-32.9-18.3-39.6l-50-18.2-4.4-18.4c19-7,34.6-23.5,42.2-42,23-3,34.1-27.7,20.8-47-1.1-1.6-3.7-3.3-4.2-5-.8-2.5-.6-6.6-1.1-9.4-4.9-23.8-17.7-44.6-38.4-57.7,8.9-16.1-8-25.7-21-30.3-16.5-5.9-33.5-5.1-49.5,1.9-11.1,4.8-26,14.7-17.6,28.4-19.9,13.8-32.1,30.9-37.5,54.6-.9,3.9-1,9.6-2.2,12.9-.9,2.3-5.4,6.1-7,9.5-8.8,18,3.6,40.7,24,40.9,7,18.9,22.7,35.7,41.4,43.5l-3.8,18.5c-17.3,7.5-36.3,11.5-52.9,20.3-10.2,7.5-12.8,25.6-15.3,37.4-3.7,17.4-6.2,34.9-7.8,52.6h8.9c2.4-20.4,5.3-41.2,10.2-61.1h.1ZM948.8,480.3l-26.2-39.8c4.4-3.5,7.9-7.9,12.7-10.8l13.5,50.7h0ZM946.9,383.8c-1.5-1-6.5-3.8-6.7-5.2-.2-1.6,3.1-14.4,4.4-14.8,9.8,1.9,19.1,2.3,28.8,0,.6,0,1,.3,1.4.7.9.9,4,15.7,3.5,16.4l-18.6,10c-1.8,0-10.7-5.6-12.8-7h0ZM996.1,439.7l-26.2,43.2,14.2-53.3c1.6,1.7,12.3,8.6,12.1,10.1h0ZM989.2,400.7c.7-1.5,7-9.6,8.2-8.5l5.2,23.3-17.7,7.7c-.7-.9,3.2-20,4.3-22.4h0ZM988.2,389c-5.7,7.4-15.4,18.6-24.3,8.7l19.6-11.4c1.4-.3,4.9,1.3,4.7,2.8h0ZM1030.4,307.2c3.4-11.2,4.4-22.6,5.6-34.2,13.7,8.1,8.6,29.8-5.6,34.2ZM926.8,184.8c16-13.7,52.8-15.4,67.8.6,2.4,2.6,3.2,8.8-.5,8.4-1.5-.1-7.9-3.3-10.5-4-15.2-4.4-33.6-4.4-48.8.2-1.8.5-9.8,4.4-10.8,3.8-3-3.9-.2-6.5,2.9-9.1h-.1ZM879.3,276.9c.5-.6,4.3-4.6,5-3.9-.5,11.6,1.5,23.1,4.6,34.2-12-4.6-17.8-19.5-9.5-30.3h0ZM886.2,260.8c6.2-49.9,58.9-78.9,104.9-58.1,23.5,10.6,41.5,35.8,41.9,61.8l-45.7-41.2-101,37.6h0ZM893.5,265.8l92.9-34.1,39.6,37.4c3.6,44.4-30.6,97.3-80.3,85-38.1-9.4-54.6-52.3-52.2-88.2h0ZM934.8,387c4.9-1,15.3,8.7,20.6,9.8.8,1.1-3.6,4-4.6,4.3-8.3,2.5-14.7-6.5-18.4-12.5.6-.7,1.5-1.3,2.4-1.5h0ZM921.2,392.4c.6-.6,2.2-1,3.1-1.6l.9.2c7.2,8.4,5.7,21,8.5,31.3l-16.5-6.4c-.5-2.2,2.7-22.2,4-23.6h0Z"/>
    <path d="M900.8,474.7c.2-3.8,3.3-12.3,3.1-14.4-.4-4.1-4-2.6-5.7.6-4.3,8.5-4.7,18.6-3.5,27.9h7.2c-.5-4.7-1.5-9.4-1.2-14.1h.1Z"/>
    <path d="M977.4,332.9c3.3-2.6,15.1-16,6-17.1-14.9,1-31.4-1.2-46.1,0-1,0-2.7.1-3.4.8-3,3,2.2,10.2,4.4,12.7,10.1,11.2,27.3,13.2,39.2,3.6h-.1ZM942.2,322.4c3.4,1.5,6.3,0,9.5,0,6.6-.2,16.8-.7,23.1,0,1,.1,1.6,0,2.3,1-6.8,9.6-20.1,11.4-29.8,4.8-.9-.6-5.8-5-5-5.8h0Z"/>
    <path d="M930.2,272.5c-7.7,1.7-7.4,22.5,1.8,21.6,8.6-.8,9.1-24-1.8-21.6h0Z"/>
    <path d="M987.4,272.5c-7.9,1.6-7,22.2,1.2,22.2s9-24.3-1.2-22.2Z"/>
    <path d="M945.3,266.3c2.6-2.5-1.3-5.8-3.4-7.1-7.2-4.3-17.4-3.6-24,1.7-3.7,3-5.3,9.8,0,8.7,3.2-.6,6.5-6,12.8-6.2,4.4-.2,11.4,6,14.5,2.9h.1Z"/>
    <path d="M985.5,264c3.5-.5,7.6-.3,10.6,1.5,1.9,1.2,5.7,6.2,8.5,3.4,4.7-4.7-8.1-11.6-12.2-12.2-4.2-.6-17.2.9-18,6.1-1,6.9,8.3,1.5,11,1.1h.1Z"/>
    <path d="M955,306.6c3,.6,7.9-.5,11.2,0,1.3-1.2,2.4-3.4,1-5-2.2-2.3-12.5-1.8-14,0s-.5,4.5,1.7,5h0Z"/>
    <path d="M1037.2,441.6c-6-.3-11.4-.9-17.5-.6-1.8.1-8.1.4-8.8,1.1-1.3,1.3-1.7,7.2.3,8.2,1.1.5,22.2.7,24.7.4,1.1-.1,2-.2,2.6-1.3.7-1.9.7-7.1-1.4-7.8h.1Z"/>
    <path d="M958.5,442.9c-6.9,1.3-3.6,12.5,3,9,5-2.6,1.9-9.9-3-9Z"/>
    <path d="M958,422.1c7.6,2.4,8.2-11.2-.2-8.8-3.5,1-3.8,7.5.2,8.8Z"/>
  </g>
  <g id="Receptioner2">
    <path d="M1024.6,469.5c-.3-1.9-1.8-8.9-4.2-8.7-5.4,1.3-1.4,8-1.1,12,.4,4.9-.6,11.5-2.6,16h8c.7-6.5,1-12.9-.2-19.3h0Z"/>
    <path d="M873.8,427.8c1.2-4.8,2.8-12.4,5.1-16.6,4.9-8.9,24.6-12.2,33.6-15.8,1.4,0-4.4,21.5-3.5,24.5,1,3.4,14.1,6.3,17.6,7-3.4,5-13.7,8.2-11.5,15.1,9.7,15.7,21.4,30.2,29.6,46.7h14.2l-20.4-81.6c6.2,1.4,9.7,3.4,16,.6,1.4-.6,4.3-3.2,5.3-3.2s5.3,3.6,7.7,4.1c4.8,1.2,8.9.4,13-2.2-4.9,27.5-12.4,54.5-20.3,81.3l-1.4.9h16c1.2-3,3.1-5.8,4.7-8.5,7-11.6,15.3-23.7,21.9-35.4,1-1.8,3.6-6.4,3.2-8.1-.9-3.4-8.3-6.6-10.9-8.9,0-1.5,15.8-5,17-8.7,1.7-5.5-5.4-18.2-4.1-24.6,8.2,3.3,17.8,5.6,25.8,9.1,10.3,4.5,11.5,14.2,13.8,24.3,3.7,16.2,8.5,39.5,10,55.8.2,1.6,0,3.2,0,4.9h9.6c0-.1-.2-.3-.3-.4-2.1-17.5-4.7-35-8.3-52.2-2.8-13.5-5-32.9-18.3-39.6l-50-18.2-4.4-18.4c19-7,34.6-23.5,42.2-42,23-3,34.1-27.7,20.8-47-1.1-1.6-3.7-3.3-4.2-5-.8-2.5-.6-6.6-1.1-9.4-4.9-23.8-17.7-44.6-38.4-57.7,8.9-16.1-8-25.7-21-30.3-16.5-5.9-33.5-5.1-49.5,1.9-11.1,4.8-26,14.7-17.6,28.4-19.9,13.8-32.1,30.9-37.5,54.6-.9,3.9-1,9.6-2.2,12.9-.9,2.3-5.4,6.1-7,9.5-8.8,18,3.6,40.7,24,40.9,7,18.9,22.7,35.7,41.4,43.5l-3.8,18.5c-17.3,7.5-36.3,11.5-52.9,20.3-10.2,7.5-12.8,25.6-15.3,37.4-3.7,17.4-6.2,34.9-7.8,52.6h8.9c2.4-20.4,5.3-41.2,10.2-61.1h.1ZM949,480.3l-26.2-39.8c4.4-3.5,7.9-7.9,12.7-10.8l13.5,50.7h0ZM947.1,383.8c-1.5-1-6.5-3.8-6.7-5.2-.2-1.6,3.1-14.4,4.4-14.8,9.8,1.9,19.1,2.3,28.8,0,.6,0,1,.3,1.4.7.9.9,4,15.7,3.5,16.4l-18.6,10c-1.8,0-10.7-5.6-12.8-7h0ZM996.3,439.7l-26.2,43.2,14.2-53.3c1.6,1.7,12.3,8.6,12.1,10.1h0ZM989.5,400.7c.7-1.5,7-9.6,8.2-8.5l5.2,23.3-17.7,7.7c-.7-.9,3.2-20,4.3-22.4h0ZM988.4,389c-5.7,7.4-15.4,18.6-24.3,8.7l19.6-11.4c1.4-.3,4.9,1.3,4.7,2.8h0ZM1030.6,307.2c3.4-11.2,4.4-22.6,5.6-34.2,13.7,8.1,8.6,29.8-5.6,34.2ZM927,184.8c16-13.7,52.8-15.4,67.8.6,2.4,2.6,3.2,8.8-.5,8.4-1.5-.1-7.9-3.3-10.5-4-15.2-4.4-33.6-4.4-48.8.2-1.8.5-9.8,4.4-10.8,3.8-3-3.9-.2-6.5,2.9-9.1h-.1ZM879.6,276.9c.5-.6,4.3-4.6,5-3.9-.5,11.6,1.5,23.1,4.6,34.2-12-4.6-17.8-19.5-9.5-30.3h0ZM886.5,260.8c6.2-49.9,58.9-78.9,104.9-58.1,23.5,10.6,41.5,35.8,41.9,61.8l-45.7-41.2-101,37.6h-.1ZM893.8,265.8l92.9-34.1,39.6,37.4c3.6,44.4-30.6,97.3-80.3,85-38.1-9.4-54.6-52.3-52.2-88.2h0ZM935,387c4.9-1,15.3,8.7,20.6,9.8.8,1.1-3.6,4-4.6,4.3-8.3,2.5-14.7-6.5-18.4-12.5.6-.7,1.5-1.3,2.4-1.5h0ZM921.4,392.4c.6-.6,2.2-1,3.1-1.6l.9.2c7.2,8.4,5.7,21,8.5,31.3l-16.5-6.4c-.5-2.2,2.7-22.2,4-23.6h0Z"/>
    <path d="M901,474.7c.2-3.8,3.3-12.3,3.1-14.4-.4-4.1-4-2.6-5.7.6-4.3,8.5-4.7,18.6-3.5,27.9h7.2c-.5-4.7-1.5-9.4-1.2-14.1h.1Z"/>
    <path d="M1037.4,441.6c-6-.3-11.4-.9-17.5-.6-1.8.1-8.1.4-8.8,1.1-1.3,1.3-1.7,7.2.3,8.2,1.1.5,22.2.7,24.7.4,1.1-.1,2-.2,2.6-1.3.7-1.9.7-7.1-1.4-7.8h.1Z"/>
    <path d="M958.7,442.9c-6.9,1.3-3.6,12.5,3,9,5-2.6,1.9-9.9-3-9Z"/>
    <path d="M958.2,422.1c7.6,2.4,8.2-11.2-.2-8.8-3.5,1-3.8,7.5.2,8.8Z"/>
    <path class="st1" d="M938.4,294.9c3.5-3.3,5.8-8.5,5.8-14.4,0-10-6.6-18.1-14.7-18.1s-14.7,8.1-14.7,18.1,2.3,11.1,5.8,14.4c2.5-2.3,5.5-3.7,8.9-3.7s6.4,1.4,8.9,3.7h0Z"/>
    <path class="st1" d="M997.3,294.9c3.5-3.3,5.8-8.5,5.8-14.4,0-10-6.6-18.1-14.7-18.1s-14.7,8.1-14.7,18.1,2.3,11.1,5.8,14.4c2.5-2.3,5.5-3.7,8.9-3.7s6.4,1.4,8.9,3.7h0Z"/>
    <path class="st5" d="M983.8,358.7c0-32.9-10.9-59.5-24.3-59.5s-24.3,26.6-24.3,59.5,0,5.4.2,8h48.1c0-2.6.2-5.3.2-8h0Z"/>
    <path d="M996.5,256.3c3.4.9,7.1,2.6,9.2,5.6,1.3,1.8,2.8,7.9,6.5,6.4,6.2-2.5-2.9-13.8-6.5-16s-16.1-5.9-18.9-1.4c-3.6,5.9,7.1,4.7,9.7,5.3h0Z"/>
    <path d="M924.8,256.3c2.7-.7,13.3.6,9.7-5.3-2.8-4.5-15.3-.8-18.9,1.4-3.5,2.1-12.6,13.4-6.5,16,3.7,1.5,5.2-4.6,6.5-6.4,2.1-2.9,5.8-4.7,9.2-5.6h0Z"/>
    <path class="st11" d="M911.7,311.6c-1.3,3,0,6.5,2.9,7.8s6.5,0,7.8-2.9,1.8-10.2-1.2-11.6-8.2,3.7-9.5,6.7h0Z"/>
    <path class="st10" d="M887.1,339.7c-1.4,3.1,0,6.8,3,8.2s6.8,0,8.2-3,1.9-10.8-1.2-12.2-8.6,3.9-10,7h0Z"/>
    <path class="st12" d="M891.6,312.5c-1.7,2-1.4,4.9.6,6.6s4.9,1.4,6.6-.6,3.5-7.4,1.5-9.1-7,1.1-8.7,3.1h0Z"/>
    <path class="st11" d="M1002.9,312c1.3,3,4.8,4.3,7.8,3s4.3-4.8,3-7.8-6.5-8.1-9.5-6.7-2.6,8.6-1.2,11.6h0Z"/>
    <path class="st13" d="M1013.8,332.4c.8,1.7,3,2.5,4.7,1.6s2.5-3,1.6-4.7-4-4.7-5.8-3.8-1.4,5.2-.5,6.9h0Z"/>
    <path class="st12" d="M1032.2,334.8c1.1,2.3,4,3.3,6.3,2.2s3.3-4,2.2-6.3-5.4-6.3-7.8-5.2-1.8,7-.7,9.3h0Z"/>
  </g>
</svg>